<svg width="86" height="99" viewBox="0 0 86 99" fill="none" xmlns="http://www.w3.org/2000/svg">
<path d="M61.9332 25.2996H13.8804V29.341H61.9332V25.2996Z" fill="#9ca3af"/>
<path d="M61.9332 31.8589H13.8804V35.9003H61.9332V31.8589Z" fill="#9ca3af"/>
<path d="M61.9332 38.4397H13.8804V42.4811H61.9332V38.4397Z" fill="#9ca3af"/>
<path d="M61.9332 44.9988H13.8804V49.0402H61.9332V44.9988Z" fill="#9ca3af"/>
<path d="M51.2266 51.5586H13.8804V55.6H51.2266V51.5586Z" fill="#9ca3af"/>
<path d="M70.2493 89.9624C70.2493 93.3056 67.5409 96.014 64.1977 96.014H11.5956C8.25241 96.014 5.54401 93.3056 5.54401 89.9624V89.4969C5.54401 88.7256 4.91877 88.1004 4.14749 88.1004V88.1004C3.37622 88.1004 2.75098 88.7256 2.75098 89.4969V90.9781C2.75098 95.3157 6.26343 98.807 10.5799 98.807H65.1922C69.5299 98.807 73.0212 95.2946 73.0212 90.9781V31.8965C73.0212 31.1252 72.3959 30.5 71.6246 30.5V30.5C70.8534 30.5 70.2281 31.1252 70.2281 31.8965V89.9624H70.2493Z" fill="#9ca3af"/>
<path d="M11.5954 9.02773C8.25224 9.02773 5.54385 11.7361 5.54385 15.0793H5.56501V60.8047C5.56501 61.5759 4.93976 62.2012 4.16849 62.2012C3.39721 62.2012 2.77197 61.5759 2.77197 60.8047V14.0848C2.77197 9.76831 6.26326 6.25586 10.6009 6.25586H50.5H55.164C55.9294 6.25586 56.5499 6.87636 56.5499 7.6418C56.5499 8.40723 55.9294 9.02773 55.164 9.02773H11.5954Z" fill="#9ca3af"/>
<path d="M61.5102 75.1722C61.5102 69.0995 56.5801 64.1482 50.4862 64.1482H0V86.1751H50.5074C56.5801 86.1751 61.5102 81.2449 61.5102 75.1722ZM21.9846 75.6589C21.117 76.4418 19.9321 76.8226 18.4086 76.8226H15.4252V82.0278H13.14V68.2743H18.4086C19.9321 68.2743 21.117 68.6763 21.9846 69.4592C22.8521 70.2421 23.2753 71.2789 23.2753 72.5485C23.2753 73.8392 22.8309 74.876 21.9846 75.6589ZM36.4787 76.209C36.4787 77.9229 35.9286 79.3194 34.8494 80.4197C33.7492 81.4989 32.3315 82.049 30.5964 82.049H26.0472V68.2954H30.5964C32.3315 68.2954 33.7492 68.8456 34.8494 69.9247C35.9497 71.0038 36.4787 72.4215 36.4787 74.1354V76.209ZM48.3914 70.1363H41.8743V74.347H47.4181V76.1879H41.8743V82.049H39.5891V68.2954H48.3914V70.1363Z" fill="#9ca3af"/>
<path d="M30.5752 70.1362H28.3323V80.2081H30.5752C31.6755 80.2081 32.543 79.8272 33.1989 79.0866C33.8549 78.3461 34.1723 77.3727 34.1723 76.209V74.093C34.1723 72.9293 33.8549 71.9771 33.1989 71.2365C32.5641 70.4959 31.6755 70.1362 30.5752 70.1362Z" fill="#9ca3af"/>
<path d="M18.4085 70.1362H15.425V74.9817H18.4085C19.2549 74.9817 19.8897 74.749 20.334 74.3046C20.7572 73.8603 20.9688 73.2678 20.9688 72.5696C20.9688 71.8713 20.7572 71.2788 20.334 70.8133C19.8897 70.369 19.2549 70.1362 18.4085 70.1362Z" fill="#9ca3af"/>
<path d="M72.8571 21C72.3049 21 71.8571 20.5523 71.8571 20V14.1429H66C65.4477 14.1429 65 13.6951 65 13.1429V12.8571C65 12.3049 65.4477 11.8571 66 11.8571H71.8571V6C71.8571 5.44771 72.3049 5 72.8571 5H73.1429C73.6951 5 74.1429 5.44772 74.1429 6V11.8571H80C80.5523 11.8571 81 12.3049 81 12.8571V13.1429C81 13.6951 80.5523 14.1429 80 14.1429H74.1429V20C74.1429 20.5523 73.6951 21 73.1429 21H72.8571Z" fill="#9ca3af"/>
<path d="M84.75 13C84.75 19.4893 79.4893 24.75 73 24.75C66.5107 24.75 61.25 19.4893 61.25 13C61.25 6.51065 66.5107 1.25 73 1.25C79.4893 1.25 84.75 6.51065 84.75 13Z" stroke="#9ca3af" stroke-width="2.5"/>
</svg>
