<svg width="51" height="50" viewBox="0 0 51 50" fill="none" xmlns="http://www.w3.org/2000/svg">
<path d="M29.9118 25.1355C24.6 26.9939 24.6 21.817 22.5 21.1533M37.4471 29L37.3235 23.1444C37.3235 21.817 37.4471 21.286 36.7059 20.4895C40.1647 20.0913 43.5 18.6312 43.5 12.5251C43.4985 10.9388 42.9226 9.41535 41.8941 8.27734C42.3765 6.89944 42.3321 5.37247 41.7706 4.02962C41.7706 4.02962 40.4118 3.6314 37.4471 5.75526C34.936 5.05251 32.2993 5.05251 29.7882 5.75526C26.8235 3.6314 25.4647 4.02962 25.4647 4.02962C24.9032 5.37247 24.8588 6.89944 25.3412 8.27734C24.3127 9.41535 23.7368 10.9388 23.7353 12.5251C23.7353 18.6312 27.0706 20.0913 30.5294 20.4895C29.7882 21.286 29.7882 22.0824 29.9118 23.1444V27.7903" stroke="url(#paint0_linear_477_886)" stroke-width="3" stroke-linecap="round" stroke-linejoin="round"/>
<path d="M46.3486 34.7127L23.9019 44.1877C22.1906 44.9013 20.2802 44.8616 18.6484 44.0687L7.58426 38.5186L6.15149 41.3333L17.2555 46.8835C18.5688 47.5178 20.0016 47.8349 21.4344 47.8349C22.7079 47.8349 23.9815 47.5971 25.1357 47.0817L47.5824 37.6464C48.7764 37.131 49.6918 36.1796 50.1694 34.9902C50.647 33.7613 50.6072 32.453 50.05 31.2637C48.9754 28.9643 46.1497 27.894 43.7219 28.9247L42.3289 29.5194L35.5631 32.3737L36.7968 35.3074L43.5627 32.453L44.9557 31.8584C45.7915 31.5016 46.7864 31.8187 47.1446 32.6116C47.3436 33.008 47.3436 33.4441 47.1844 33.8406C47.0252 34.237 46.7466 34.5542 46.3486 34.7127Z" fill="url(#paint1_linear_477_886)"/>
<path d="M3.68393 32.3341L7.42506 29.2418C9.57421 27.6164 12.201 26.9028 14.8675 27.22C15.9421 27.3389 16.9371 27.6164 17.8922 28.0525L28.2002 32.6116C28.4788 32.7305 28.7176 32.9287 28.8768 33.2062C29.1554 33.6423 29.1952 34.1973 28.9962 34.7127C28.9166 34.8713 28.837 34.9902 28.7574 35.1091C28.2798 35.6245 27.5634 35.7831 26.9266 35.5056L18.9668 31.9773L17.6534 34.8713L25.6133 38.3996C26.2501 38.6771 26.9266 38.8357 27.5634 38.8357C28.9166 38.8357 30.1902 38.2807 31.1454 37.2103C31.4638 36.8535 31.7423 36.457 31.9413 36.021C32.5781 34.5541 32.4587 32.8891 31.6229 31.5412C31.1056 30.7483 30.3892 30.114 29.5534 29.7572L19.2056 25.1585C17.9718 24.6035 16.6187 24.2467 15.2655 24.0881C11.7632 23.6917 8.30064 24.6431 5.5147 26.7442L0.5 30.8276V48.2313H3.68393V32.3341Z" fill="url(#paint2_linear_477_886)"/>
<defs>
<linearGradient id="paint0_linear_477_886" x1="43.5" y1="4" x2="18.2393" y2="9.527" gradientUnits="userSpaceOnUse">
<stop stop-color="#4FC5EB"/>
<stop offset="1" stop-color="#5D52D9"/>
</linearGradient>
<linearGradient id="paint1_linear_477_886" x1="50.5" y1="28.5315" x2="9.3398" y2="53.1628" gradientUnits="userSpaceOnUse">
<stop stop-color="#4FC5EB"/>
<stop offset="1" stop-color="#5D52D9"/>
</linearGradient>
<linearGradient id="paint2_linear_477_886" x1="32.3465" y1="24" x2="-3.58438" y2="36.3004" gradientUnits="userSpaceOnUse">
<stop stop-color="#4FC5EB"/>
<stop offset="1" stop-color="#5D52D9"/>
</linearGradient>
</defs>
</svg>
