<svg width="50" height="51" viewBox="0 0 50 51" fill="none" xmlns="http://www.w3.org/2000/svg">
<path d="M36.3201 31.833C36.264 31.833 36.2079 31.8238 36.1518 31.8044L33.8844 31.0157C33.6181 30.9228 33.4783 30.632 33.5701 30.3657C33.662 30.0993 33.9538 29.9595 34.2201 30.0514L36.4875 30.8402C36.7538 30.933 36.8936 31.2238 36.8018 31.4902C36.7283 31.7014 36.5314 31.833 36.3201 31.833Z" fill="url(#paint0_linear_477_778)"/>
<path d="M38.0599 27.9829C37.9762 27.9829 37.8925 27.9625 37.814 27.9196C37.567 27.7839 37.4772 27.4737 37.6129 27.2268L39.5109 23.7768L34.465 22.936L33.0548 25.6666C32.9252 25.9166 32.618 26.0135 32.367 25.886C32.117 25.7564 32.0191 25.4482 32.1476 25.1982L33.7293 22.137C33.8313 21.94 34.0487 21.8319 34.266 21.8676L40.3885 22.888C40.5517 22.9156 40.6915 23.0196 40.764 23.1686C40.8364 23.3176 40.8313 23.4921 40.7517 23.637L38.5068 27.7186C38.415 27.887 38.2405 27.9829 38.0599 27.9829Z" fill="url(#paint1_linear_477_778)"/>
<path d="M15.816 6.55431C15.5343 6.55431 15.3058 6.32574 15.3058 6.04411C15.3058 4.2339 13.5088 2.34411 12.7547 1.62982C12.0006 2.34411 10.2037 4.2339 10.2037 6.04411C10.2037 6.32574 9.97513 6.55431 9.69349 6.55431C9.41186 6.55431 9.18329 6.32574 9.18329 6.04411C9.18329 3.28594 12.2955 0.660434 12.4282 0.55023C12.618 0.393087 12.8925 0.393087 13.0823 0.55023C13.2139 0.660434 16.3262 3.28594 16.3262 6.04411C16.3262 6.32574 16.0976 6.55431 15.816 6.55431Z" fill="url(#paint2_linear_477_778)"/>
<path d="M10.7139 12.6767C10.4854 12.6767 10.2772 12.5227 10.2201 12.29L9.19964 8.20838C9.16087 8.05634 9.19556 7.8941 9.2925 7.77063C9.38842 7.64716 9.53638 7.57471 9.69352 7.57471H12.7548C14.1609 7.57471 15.3058 8.71961 15.3058 10.1257C15.3058 11.5319 14.1609 12.6767 12.7548 12.6767C12.4731 12.6767 12.2445 12.4482 12.2445 12.1665C12.2445 11.8849 12.4731 11.6563 12.7548 11.6563C13.5986 11.6563 14.2854 10.9696 14.2854 10.1257C14.2854 9.28185 13.5986 8.59512 12.7548 8.59512H10.3476L11.2088 12.0431C11.2772 12.3165 11.1109 12.5931 10.8374 12.6614C10.7966 12.6716 10.7547 12.6767 10.7139 12.6767Z" fill="url(#paint3_linear_477_778)"/>
<path d="M16.8364 8.59512H8.67311C8.39147 8.59512 8.1629 8.36654 8.1629 8.08491C8.1629 7.80328 8.39147 7.57471 8.67311 7.57471H16.8364C17.118 7.57471 17.3466 7.80328 17.3466 8.08491C17.3466 8.36654 17.118 8.59512 16.8364 8.59512Z" fill="url(#paint4_linear_477_778)"/>
<path d="M13.7751 20.8399C13.5302 20.8399 13.3139 20.6634 13.2721 20.4134L12.2782 14.4522L10.3527 12.5267C10.1537 12.3277 10.1537 12.0042 10.3527 11.8052C10.5516 11.6063 10.8751 11.6063 11.0741 11.8052L13.1149 13.8461C13.1904 13.9216 13.2404 14.0175 13.2578 14.1226L14.2782 20.245C14.3241 20.5226 14.1364 20.7859 13.8588 20.8318C13.8302 20.8379 13.8027 20.8399 13.7751 20.8399Z" fill="url(#paint5_linear_477_778)"/>
<path d="M16.1558 18.4596C15.9343 18.4596 15.7303 18.3136 15.666 18.0902L15.1792 16.3891C15.1017 16.1177 15.2588 15.8361 15.5292 15.7575C15.8007 15.6851 16.0823 15.8371 16.1609 16.1075L16.6476 17.8085C16.7252 18.08 16.568 18.3616 16.2976 18.4402C16.2496 18.4524 16.2027 18.4596 16.1558 18.4596Z" fill="url(#paint6_linear_477_778)"/>
<path d="M15.6691 16.7583C15.4476 16.7583 15.2435 16.6124 15.1793 16.3879L14.3048 13.3267C14.2537 13.1492 14.3037 12.9573 14.4344 12.8257L16.3262 10.9338V10.1257C16.3262 9.84405 16.5548 9.61548 16.8364 9.61548C17.118 9.61548 17.3466 9.84405 17.3466 10.1257V11.1461C17.3466 11.2818 17.2925 11.4114 17.1976 11.5073L15.3691 13.3359L16.1609 16.1083C16.2384 16.3798 16.0813 16.6614 15.8099 16.7389C15.7629 16.7522 15.716 16.7583 15.6691 16.7583Z" fill="url(#paint7_linear_477_778)"/>
<path d="M12.7547 21.8605H11.7343C11.4527 21.8605 11.2241 21.6319 11.2241 21.3503V18.2891C11.2241 18.1533 11.2782 18.0238 11.3731 17.9278L12.8313 16.4697C13.0302 16.2707 13.3537 16.2707 13.5527 16.4697C13.7517 16.6686 13.7517 16.9921 13.5527 17.1911L12.2445 18.5003V20.8401H12.5435L16.3262 17.0574V16.7584H15.816C15.5343 16.7584 15.3058 16.5299 15.3058 16.2482C15.3058 15.9666 15.5343 15.738 15.816 15.738H16.8364C17.118 15.738 17.3466 15.9666 17.3466 16.2482V17.2686C17.3466 17.4044 17.2925 17.534 17.1976 17.6299L13.116 21.7115C13.02 21.8064 12.8905 21.8605 12.7547 21.8605Z" fill="url(#paint8_linear_477_778)"/>
<path d="M13.7751 23.9013H12.7547C12.619 23.9013 12.4894 23.8472 12.3935 23.7523L11.3731 22.7319C11.2782 22.636 11.2241 22.5064 11.2241 22.3707V21.3503C11.2241 21.0687 11.4527 20.8401 11.7343 20.8401C12.016 20.8401 12.2445 21.0687 12.2445 21.3503V22.1595L12.966 22.8809H13.7751C14.0568 22.8809 14.2854 23.1095 14.2854 23.3911C14.2854 23.6727 14.0568 23.9013 13.7751 23.9013Z" fill="url(#paint9_linear_477_778)"/>
<path d="M17.6017 19.8198C17.5609 19.8198 17.5191 19.8146 17.4772 19.8044C17.2037 19.7361 17.0374 19.4595 17.1058 19.1861L17.315 18.3483L16.3793 16.4769C16.2527 16.2249 16.3558 15.9187 16.6078 15.7922C16.8599 15.6667 17.166 15.7687 17.2925 16.0208L18.3129 18.0616C18.367 18.1708 18.3813 18.2953 18.3517 18.4136L18.0966 19.434C18.0384 19.6657 17.8313 19.8198 17.6017 19.8198Z" fill="url(#paint10_linear_477_778)"/>
<path d="M31.1221 12.6769C30.9895 12.6769 30.8589 12.6249 30.7609 12.5279C27.8497 9.61567 26.6548 9.61567 24.9997 9.61567C23.3446 9.61567 22.1497 9.61567 19.2384 12.5279C19.0925 12.6749 18.8731 12.7177 18.6823 12.6381C18.4915 12.5595 18.367 12.3728 18.367 12.1667V10.1259C18.367 9.99016 18.4211 9.86057 18.516 9.76465C21.7272 6.55444 23.2435 6.55444 24.9997 6.55444C26.7558 6.55444 28.2721 6.55444 31.4834 9.76465C31.5783 9.86057 31.6324 9.99016 31.6324 10.1259V12.1667C31.6324 12.3728 31.5079 12.5595 31.317 12.6381C31.2538 12.6646 31.1875 12.6769 31.1221 12.6769ZM24.9997 8.59526C26.5885 8.59526 27.9823 8.59526 30.6119 10.9749V10.3381C27.8078 7.57485 26.6252 7.57485 24.9997 7.57485C23.3742 7.57485 22.1915 7.57485 19.3874 10.3381V10.9749C22.017 8.59526 23.4109 8.59526 24.9997 8.59526Z" fill="url(#paint11_linear_477_778)"/>
<path d="M26.0201 7.57474H23.9793C23.8293 7.57474 23.6864 7.50943 23.5905 7.39413C23.4936 7.27984 23.4517 7.12882 23.4762 6.98086L24.4966 0.858416C24.5374 0.612497 24.7497 0.431885 24.9997 0.431885C25.2497 0.431885 25.4619 0.612497 25.5028 0.858416L26.5232 6.98086C26.5477 7.12882 26.5058 7.27984 26.4089 7.39413C26.313 7.50943 26.1701 7.57474 26.0201 7.57474ZM24.5813 6.55433H25.417L24.9997 4.04617L24.5813 6.55433Z" fill="url(#paint12_linear_477_778)"/>
<path d="M30.1017 9.61544C30.0231 9.61544 29.9456 9.59708 29.8731 9.56136L29.7191 9.48381C29.6813 9.46442 29.6456 9.44096 29.6129 9.4134C29.0242 8.90422 28.5027 8.52157 28.0191 8.24402C27.8915 8.17157 27.8027 8.0481 27.7731 7.90422C27.7435 7.76034 27.7772 7.61136 27.865 7.49504L30.714 3.69708C30.8568 3.50524 31.1129 3.43994 31.3303 3.53687C31.5476 3.63381 31.6691 3.86953 31.6221 4.1032L30.6017 9.20524C30.5711 9.36136 30.4691 9.49402 30.3252 9.5634C30.2548 9.5981 30.1782 9.61544 30.1017 9.61544ZM29.015 7.6634C29.2548 7.82361 29.5027 8.00524 29.7599 8.21034L30.1803 6.10932L29.015 7.6634Z" fill="url(#paint13_linear_477_778)"/>
<path d="M19.8976 9.61544C19.8211 9.61544 19.7445 9.5981 19.6731 9.5634C19.5303 9.49402 19.4282 9.36136 19.3966 9.20524L18.3762 4.1032C18.3292 3.86953 18.4507 3.63483 18.668 3.53687C18.8854 3.43994 19.1415 3.50524 19.2854 3.69708L22.1343 7.49606C22.2221 7.61238 22.2558 7.76136 22.2262 7.90524C22.1966 8.0481 22.1068 8.17259 21.9803 8.24504C21.4956 8.52259 20.9752 8.90524 20.3854 9.41443C20.3527 9.44198 20.318 9.46544 20.2792 9.48483L20.1252 9.56238C20.0537 9.59708 19.9762 9.61544 19.8976 9.61544ZM19.818 6.1083L20.2384 8.20932C20.4966 8.00524 20.7445 7.82361 20.9843 7.66238L19.818 6.1083Z" fill="url(#paint14_linear_477_778)"/>
<path d="M18.8772 15.7379H17.8568C17.5751 15.7379 17.3466 15.5093 17.3466 15.2277C17.3466 14.9461 17.5751 14.7175 17.8568 14.7175H18.8772C22.5864 14.7175 24.5241 10.9553 24.5435 10.9175C24.67 10.6655 24.9762 10.5634 25.2282 10.691C25.4803 10.8175 25.5823 11.1226 25.4558 11.3746C25.367 11.5522 23.2241 15.7379 18.8772 15.7379Z" fill="url(#paint15_linear_477_778)"/>
<path d="M24.9997 19.8195C22.468 19.8195 20.4078 17.7593 20.4078 15.2277V14.8634C20.4078 14.6501 20.5415 14.4583 20.7425 14.3848C23.2323 13.4706 24.5313 10.942 24.5446 10.9175C24.6181 10.7716 24.7578 10.6695 24.9191 10.643C25.0793 10.6175 25.2456 10.6706 25.3609 10.7848C25.3793 10.8042 27.2793 12.6767 29.0813 12.6767C29.363 12.6767 29.5915 12.9053 29.5915 13.1869V15.2277C29.5915 17.7593 27.5313 19.8195 24.9997 19.8195ZM21.4282 15.2093V15.2277C21.4282 17.1971 23.0303 18.7991 24.9997 18.7991C26.9691 18.7991 28.5711 17.1971 28.5711 15.2277V13.6614C27.1374 13.4675 25.8099 12.5144 25.1242 11.942C24.5772 12.794 23.3548 14.3808 21.4282 15.2093Z" fill="url(#paint16_linear_477_778)"/>
<path d="M20.918 19.8198C20.7874 19.8198 20.6568 19.7698 20.5568 19.6708C18.3915 17.5045 18.367 12.383 18.367 12.1667C18.367 11.8851 18.5956 11.6565 18.8772 11.6565C19.1588 11.6565 19.3874 11.8851 19.3874 12.1667C19.3874 12.2157 19.4119 17.082 21.2793 18.9483C21.4782 19.1473 21.4782 19.4708 21.2793 19.6698C21.1793 19.7698 21.0486 19.8198 20.918 19.8198Z" fill="url(#paint17_linear_477_778)"/>
<path d="M29.0813 19.8197C28.9507 19.8197 28.8201 19.7697 28.7201 19.6707C28.5211 19.4718 28.5211 19.1483 28.7201 18.9493C29.3793 18.2901 29.8823 17.1799 30.2181 15.6462C30.2783 15.3697 30.5477 15.1952 30.8252 15.2575C31.1007 15.3177 31.2742 15.5891 31.214 15.8646C30.8364 17.5911 30.2395 18.8728 29.4405 19.6707C29.3425 19.7697 29.2119 19.8197 29.0813 19.8197Z" fill="url(#paint18_linear_477_778)"/>
<path d="M30.9915 14.6085C30.9711 14.6085 30.9517 14.6075 30.9313 14.6055C30.6517 14.5728 30.4517 14.3187 30.4844 14.0391C30.6099 12.9728 30.6119 12.1749 30.6119 12.1667C30.6119 11.8851 30.8405 11.6565 31.1221 11.6565C31.4038 11.6565 31.6324 11.8851 31.6324 12.1667C31.6324 12.2014 31.6313 13.0279 31.4977 14.1575C31.467 14.4177 31.2466 14.6085 30.9915 14.6085Z" fill="url(#paint19_linear_477_778)"/>
<path d="M29.5915 16.7584H28.9364C28.7782 16.7584 28.6293 16.6849 28.5323 16.5604C28.4354 16.4359 28.4027 16.2727 28.4425 16.1196C28.5303 15.7839 28.5711 15.5002 28.5711 15.2278V13.187C28.5711 12.9053 28.7997 12.6768 29.0813 12.6768H29.5915C30.717 12.6768 31.6323 13.5921 31.6323 14.7176C31.6323 15.8431 30.717 16.7584 29.5915 16.7584ZM29.5578 15.738H29.5915C30.1538 15.738 30.6119 15.2798 30.6119 14.7176C30.6119 14.1553 30.1538 13.6972 29.5915 13.6972V15.2278C29.5915 15.3951 29.5803 15.5635 29.5578 15.738Z" fill="url(#paint20_linear_477_778)"/>
<path d="M24.9997 22.8809C23.5936 22.8809 22.4487 21.736 22.4487 20.3299V18.7432C22.4487 18.5605 22.5466 18.3921 22.7048 18.3003C22.864 18.2095 23.0589 18.2105 23.215 18.3013C24.3466 18.9605 25.6517 18.9605 26.7834 18.3013C26.9405 18.2095 27.1354 18.2085 27.2936 18.3003C27.4517 18.3921 27.5497 18.5595 27.5497 18.7432V20.3299C27.5497 20.6115 27.3211 20.8401 27.0395 20.8401C26.7579 20.8401 26.5293 20.6115 26.5293 20.3299V19.5462C25.5405 19.9085 24.4568 19.9085 23.4681 19.5462V20.3299C23.4681 21.1738 24.1548 21.8605 24.9987 21.8605C25.1048 21.8605 25.2089 21.8493 25.3079 21.8289C25.5885 21.7779 25.8538 21.9523 25.9099 22.2279C25.966 22.5044 25.7875 22.7738 25.5109 22.8299C25.3466 22.8625 25.1752 22.8809 24.9997 22.8809Z" fill="url(#paint21_linear_477_778)"/>
<path d="M17.8568 18.7993C17.666 18.7993 17.4833 18.6921 17.3956 18.5085C17.2742 18.2533 17.3823 17.9493 17.6374 17.8278L19.5384 16.9227C19.7935 16.8023 20.0966 16.9105 20.2191 17.1646C20.3405 17.4197 20.2323 17.7238 19.9772 17.8452L18.0762 18.7503C18.0058 18.7829 17.9303 18.7993 17.8568 18.7993Z" fill="url(#paint22_linear_477_778)"/>
<path d="M16.6823 29.5911C16.4721 29.5911 16.2761 29.4605 16.2017 29.2513L15.268 26.6227C15.1741 26.3574 15.3119 26.0656 15.5782 25.9707C15.8415 25.8758 16.1353 26.0156 16.2302 26.2809L17.1639 28.9094C17.2578 29.1748 17.12 29.4666 16.8537 29.5615C16.7966 29.5809 16.7394 29.5911 16.6823 29.5911Z" fill="url(#paint23_linear_477_778)"/>
<path d="M39.2855 32.0644H37.2446C35.8385 32.0644 34.6936 30.9195 34.6936 29.5134C34.6936 28.1073 35.8385 26.9624 37.2446 26.9624H39.2855C39.5671 26.9624 39.7957 27.191 39.7957 27.4726V31.5542C39.7957 31.8359 39.5671 32.0644 39.2855 32.0644ZM37.2446 27.9828C36.4008 27.9828 35.714 28.6695 35.714 29.5134C35.714 30.3573 36.4008 31.044 37.2446 31.044H38.7752V27.9828H37.2446Z" fill="url(#paint24_linear_477_778)"/>
<path d="M14.7956 33.0849C14.7435 33.0849 14.6915 33.0767 14.6415 33.0614C14.5099 33.0196 14.4007 32.9267 14.3395 32.8032L13.319 30.7624C13.2374 30.5981 13.2497 30.4032 13.3507 30.2512L14.7109 28.2104C14.867 27.9767 15.1823 27.9124 15.418 28.0685C15.6527 28.2247 15.716 28.542 15.5599 28.7757L14.3639 30.5706L15.017 31.8757L27.6773 25.0583L29.6456 21.1216C29.7722 20.8696 30.0773 20.7675 30.3303 20.893C30.5824 21.0196 30.6844 21.3257 30.5589 21.5777L28.5181 25.6594C28.4711 25.7532 28.3956 25.8308 28.3038 25.8808L15.0384 33.0236C14.9629 33.0645 14.8793 33.0849 14.7956 33.0849Z" fill="url(#paint25_linear_477_778)"/>
<path d="M26.0201 24.9216C25.8895 24.9216 25.7589 24.8716 25.6589 24.7727C25.4599 24.5737 25.4599 24.2502 25.6589 24.0512L26.6793 23.0308C26.8783 22.8318 27.2017 22.8318 27.4007 23.0308C27.5997 23.2298 27.5997 23.5533 27.4007 23.7523L26.3803 24.7727C26.2813 24.8716 26.1507 24.9216 26.0201 24.9216Z" fill="url(#paint26_linear_477_778)"/>
<path d="M15.816 30.0238H14.4558C14.1741 30.0238 13.9456 29.7952 13.9456 29.5136C13.9456 29.232 14.1741 29.0034 14.4558 29.0034H15.6956L17.6292 28.0371C17.8813 27.9116 18.1864 28.0136 18.3139 28.2656C18.4405 28.5177 18.3374 28.8238 18.0854 28.9503L16.0445 29.9707C15.9731 30.0054 15.8956 30.0238 15.816 30.0238Z" fill="url(#paint27_linear_477_778)"/>
<path d="M13.7751 25.9422C13.7364 25.9422 13.6966 25.9381 13.6578 25.9289C13.5098 25.8942 13.3864 25.7962 13.318 25.6605L12.2976 23.6197C12.1711 23.3677 12.2741 23.0615 12.5262 22.935C12.7792 22.8085 13.0843 22.9116 13.2109 23.1636L13.9578 24.6575L17.4803 22.0156L18.7925 20.0473C18.9486 19.8136 19.2639 19.7493 19.4997 19.9054C19.7343 20.0615 19.7976 20.3789 19.6415 20.6126L18.2813 22.6534C18.2497 22.7013 18.2088 22.7442 18.1629 22.7789L14.0813 25.8401C13.9915 25.9064 13.8843 25.9422 13.7751 25.9422Z" fill="url(#paint28_linear_477_778)"/>
<path d="M16.8364 37.1665C16.7037 37.1665 16.5731 37.1145 16.4752 37.0176L15.4548 35.9972C15.3599 35.9012 15.3058 35.7716 15.3058 35.6359V32.0247C15.3058 31.7431 15.5344 31.5145 15.816 31.5145C16.0976 31.5145 16.3262 31.7431 16.3262 32.0247V35.4247L16.9527 36.0512L23.6874 33.1645L27.0721 29.7808C27.2711 29.5818 27.5946 29.5818 27.7936 29.7808C27.9926 29.9798 27.9926 30.3033 27.7936 30.5023L24.3395 33.9563C24.2936 34.0023 24.2395 34.039 24.1793 34.0645L17.0364 37.1257C16.9721 37.1533 16.9037 37.1665 16.8364 37.1665Z" fill="url(#paint29_linear_477_778)"/>
<path d="M17.8568 34.1053C17.669 34.1053 17.4894 34.0022 17.3996 33.8237C17.2731 33.5716 17.3762 33.2655 17.6282 33.139L21.7099 31.0982L25.714 28.0849C25.9395 27.9155 26.2589 27.9614 26.4282 28.1869C26.5976 28.4125 26.5517 28.7318 26.3262 28.9012L22.2446 31.9625L18.0854 34.0512C18.0119 34.088 17.9343 34.1053 17.8568 34.1053Z" fill="url(#paint30_linear_477_778)"/>
<path d="M33.1629 35.1258C33.0303 35.1258 32.8997 35.0737 32.8017 34.9768L31.668 33.8431C31.4691 33.6442 31.4691 33.3207 31.668 33.1217C31.867 32.9227 32.1905 32.9227 32.3895 33.1217L33.3007 34.0329L35.9487 33.1503L37.9048 31.1942C38.1038 30.9952 38.4272 30.9952 38.6262 31.1942C38.8252 31.3931 38.8252 31.7166 38.6262 31.9156L36.5854 33.9564C36.5293 34.0125 36.4609 34.0544 36.3864 34.0799L33.3252 35.1003C33.2711 35.1176 33.217 35.1258 33.1629 35.1258Z" fill="url(#paint31_linear_477_778)"/>
<path d="M34.1834 33.0849H31.9385C31.6569 33.0849 31.4283 32.8563 31.4283 32.5747C31.4283 32.293 31.6569 32.0645 31.9385 32.0645H34.1834C34.465 32.0645 34.6936 32.293 34.6936 32.5747C34.6936 32.8563 34.465 33.0849 34.1834 33.0849Z" fill="url(#paint32_linear_477_778)"/>
<path d="M18.8772 42.2685C18.8292 42.2685 18.7813 42.2624 18.7343 42.2481C18.5976 42.2083 18.4843 42.1134 18.42 41.9869L17.3996 39.9461C17.3649 39.8747 17.3466 39.7971 17.3466 39.7175V36.2185C17.3466 35.9369 17.5751 35.7083 17.8568 35.7083C18.1384 35.7083 18.367 35.9369 18.367 36.2185V39.5971L19.0874 41.0379L23.6425 38.3043L26.3405 35.0665C26.5211 34.8502 26.8425 34.8216 27.0599 35.0012C27.2762 35.1818 27.3058 35.5032 27.1252 35.7206L24.3721 39.0247C24.3354 39.0685 24.2915 39.1063 24.2425 39.1349L19.1404 42.1961C19.0598 42.2441 18.969 42.2685 18.8772 42.2685Z" fill="url(#paint33_linear_477_778)"/>
<path d="M19.8976 38.1869C19.7099 38.1869 19.5303 38.0839 19.4405 37.9053C19.3139 37.6533 19.417 37.3471 19.669 37.2206L23.7507 35.1798C24.0038 35.0533 24.3089 35.1553 24.4354 35.4084C24.5619 35.6604 24.4589 35.9665 24.2068 36.0931L20.1252 38.1339C20.0527 38.1696 19.9752 38.1869 19.8976 38.1869Z" fill="url(#paint34_linear_477_778)"/>
<path d="M30.1017 42.2685C30.0599 42.2685 30.0191 42.2634 29.9782 42.2532L25.8966 41.2328C25.6446 41.1696 25.4803 40.9277 25.5139 40.6706L27.5548 25.3645C27.5925 25.0849 27.8486 24.8889 28.1282 24.9257C28.4078 24.9634 28.6037 25.2196 28.567 25.4991L26.5864 40.3532L29.9456 41.193L30.7619 40.3767C30.8568 40.2818 30.9864 40.2277 31.1221 40.2277H31.6323V34.6155L30.6201 24.5185L29.6986 21.7532L27.217 20.9257L23.3578 25.7502C23.2956 25.8267 23.2139 25.8838 23.1211 25.9155L18.019 27.6165C17.7507 27.7063 17.4629 27.5614 17.3741 27.294C17.2853 27.0267 17.4292 26.7379 17.6966 26.6491L22.6558 24.9961L26.6435 20.0114C26.7772 19.8451 26.9997 19.7787 27.2037 19.8461L30.265 20.8665C30.417 20.9165 30.5374 21.0369 30.5874 21.1889L31.6078 24.2502C31.6201 24.2859 31.6282 24.3236 31.6313 24.3604L32.6517 34.5645L32.6527 40.7379C32.6527 41.0196 32.4242 41.2481 32.1425 41.2481H31.3333L30.4619 42.1196C30.366 42.2155 30.2354 42.2685 30.1017 42.2685Z" fill="url(#paint35_linear_477_778)"/>
<path d="M31.1221 41.2483C30.9344 41.2483 30.7548 41.1452 30.665 40.9667C30.316 40.2667 28.5711 36.7218 28.5711 35.6361C28.5711 35.1555 28.7731 33.4157 29.1711 30.4657C29.2099 30.1871 29.467 29.9922 29.7456 30.0279C30.0252 30.0657 30.2201 30.3228 30.1834 30.6024C29.668 34.4116 29.5915 35.3912 29.5915 35.6361C29.5915 36.2565 30.7538 38.8595 31.5783 40.5095C31.7048 40.7616 31.6017 41.0677 31.3497 41.1942C31.2772 41.231 31.1997 41.2483 31.1221 41.2483Z" fill="url(#paint36_linear_477_778)"/>
<path d="M23.4691 42.2687C23.4415 42.2687 23.4129 42.2667 23.3844 42.2616C23.1068 42.2157 22.918 41.9524 22.965 41.6748L23.4752 38.6136C23.5211 38.3361 23.7844 38.1432 24.0619 38.1942C24.3395 38.2402 24.5283 38.5034 24.4813 38.781L23.9711 41.8422C23.9313 42.0922 23.715 42.2687 23.4691 42.2687Z" fill="url(#paint37_linear_477_778)"/>
<path d="M38.265 50.4319C37.9834 50.4319 37.7548 50.2033 37.7548 49.9217V46.3502H12.2445V49.9217C12.2445 50.2033 12.016 50.4319 11.7343 50.4319C11.4527 50.4319 11.2241 50.2033 11.2241 49.9217V45.84C11.2241 45.5584 11.4527 45.3298 11.7343 45.3298H38.265C38.5466 45.3298 38.7752 45.5584 38.7752 45.84V49.9217C38.7752 50.2033 38.5466 50.4319 38.265 50.4319Z" fill="url(#paint38_linear_477_778)"/>
<path d="M36.2242 46.3503H13.7752C13.4935 46.3503 13.265 46.1217 13.265 45.8401V43.7993C13.265 43.5176 13.4935 43.2891 13.7752 43.2891H36.2242C36.5058 43.2891 36.7344 43.5176 36.7344 43.7993V45.8401C36.7344 46.1217 36.5058 46.3503 36.2242 46.3503ZM14.2854 45.3299H35.714V44.3095H14.2854V45.3299Z" fill="url(#paint39_linear_477_778)"/>
<path d="M32.1425 42.2686C31.8609 42.2686 31.6323 42.04 31.6323 41.7584V40.738C31.6323 40.4564 31.8609 40.2278 32.1425 40.2278C32.4242 40.2278 32.6527 40.4564 32.6527 40.738V41.7584C32.6527 42.04 32.4242 42.2686 32.1425 42.2686Z" fill="url(#paint40_linear_477_778)"/>
<path d="M37.2446 25.6869C37.2038 25.6869 37.1619 25.6818 37.1201 25.6716L35.0793 25.1614C34.8058 25.0931 34.6395 24.8165 34.7079 24.5431C34.7762 24.2696 35.0507 24.1002 35.3262 24.1716L37.3671 24.6818C37.6405 24.7502 37.8069 25.0267 37.7385 25.3002C37.6813 25.5329 37.4742 25.6869 37.2446 25.6869Z" fill="url(#paint41_linear_477_778)"/>
<path d="M41.5997 11.6564C41.3181 11.6564 41.0895 11.4279 41.0895 11.1462C41.0895 10.3024 40.4028 9.61562 39.5589 9.61562C39.014 9.61562 38.5058 9.90848 38.2334 10.3809C38.0925 10.6238 37.7803 10.7075 37.5364 10.5666C37.2925 10.4258 37.2089 10.1136 37.3507 9.8697C37.8048 9.08297 38.6517 8.59521 39.5599 8.59521C40.966 8.59521 42.1109 9.74011 42.1109 11.1462C42.1099 11.4279 41.8813 11.6564 41.5997 11.6564Z" fill="url(#paint42_linear_477_778)"/>
<path d="M41.5997 11.6564C41.3181 11.6564 41.0895 11.4279 41.0895 11.1462C41.0895 9.74011 42.2344 8.59521 43.6406 8.59521C44.5487 8.59521 45.3957 9.08399 45.8498 9.8697C45.9916 10.1136 45.9079 10.4258 45.664 10.5666C45.4191 10.7075 45.1079 10.6238 44.9671 10.3809C44.6936 9.90848 44.1855 9.61562 43.6406 9.61562C42.7967 9.61562 42.1099 10.3024 42.1099 11.1462C42.1099 11.4279 41.8814 11.6564 41.5997 11.6564Z" fill="url(#paint43_linear_477_778)"/>
<path d="M42.6201 11.6564H40.5793C40.2977 11.6564 40.0691 11.4278 40.0691 11.1462C40.0691 10.8646 40.2977 10.636 40.5793 10.636H42.6201C42.9018 10.636 43.1303 10.8646 43.1303 11.1462C43.1303 11.4278 42.9018 11.6564 42.6201 11.6564Z" fill="url(#paint44_linear_477_778)"/>
<path d="M10.7139 32.0646H5.61183C5.3302 32.0646 5.10162 31.836 5.10162 31.5544C5.10162 31.2728 5.3302 31.0442 5.61183 31.0442H10.7139C10.9955 31.0442 11.2241 31.2728 11.2241 31.5544C11.2241 31.836 10.9955 32.0646 10.7139 32.0646Z" fill="url(#paint45_linear_477_778)"/>
<path d="M44.3875 39.2074H42.3466C42.065 39.2074 41.8364 38.9788 41.8364 38.6972C41.8364 38.4156 42.065 38.187 42.3466 38.187H44.3875C44.6691 38.187 44.8977 38.4156 44.8977 38.6972C44.8977 38.9788 44.6691 39.2074 44.3875 39.2074Z" fill="url(#paint46_linear_477_778)"/>
<path d="M19.8976 24.5818C19.6843 24.5818 19.4853 24.4471 19.4139 24.2328C19.3251 23.9654 19.469 23.6767 19.7364 23.5879L21.7772 22.9073C22.0486 22.8165 22.3333 22.9634 22.4221 23.2297C22.5109 23.4971 22.367 23.7859 22.0996 23.8746L20.0588 24.5552C20.0047 24.5726 19.9507 24.5818 19.8976 24.5818Z" fill="url(#paint47_linear_477_778)"/>
<path d="M10.7139 43.7666C10.6445 43.7666 10.5731 43.7523 10.5047 43.7217C9.32105 43.1891 7.54145 42.6748 5.7741 43.2636C2.55062 44.3401 0.374083 43.2819 0.282246 43.236C0.0302048 43.1095 -0.0718363 42.8034 0.0536743 42.5513C0.181226 42.2993 0.486329 42.1983 0.73837 42.3227C0.754697 42.3309 2.65062 43.2299 5.45063 42.2952C7.52921 41.6013 9.57513 42.1819 10.9241 42.7911C11.1813 42.9064 11.2955 43.2095 11.1792 43.4656C11.0935 43.6544 10.9078 43.7666 10.7139 43.7666Z" fill="url(#paint48_linear_477_778)"/>
<path d="M47.0528 45.2115C46.211 45.2115 45.213 44.9626 44.1048 44.2238C42.312 43.0289 40.5273 42.9442 39.3456 43.0819C39.062 43.1115 38.812 42.9146 38.7793 42.635C38.7467 42.3554 38.9467 42.1013 39.2262 42.0687C40.5814 41.9095 42.6212 42.0075 44.6712 43.3748C47.3528 45.1615 49.112 43.4564 49.1293 43.4391C49.3283 43.2401 49.6518 43.2401 49.8508 43.4391C50.0497 43.6381 50.0497 43.9615 49.8508 44.1605C49.8344 44.1758 48.7691 45.2115 47.0528 45.2115Z" fill="url(#paint49_linear_477_778)"/>
<path d="M45.4079 48.732C45.3742 48.732 45.3405 48.7289 45.3069 48.7218C44.8885 48.6371 44.5028 48.5085 44.1589 48.3371C43.0711 47.7932 41.9783 47.5565 41.2538 47.4534C40.9752 47.4136 40.7813 47.1555 40.8201 46.8769C40.8609 46.5983 41.1222 46.4065 41.3967 46.4432C42.1967 46.5565 43.4038 46.8187 44.614 47.4238C44.8763 47.5544 45.1773 47.6555 45.5069 47.7218C45.7834 47.7769 45.962 48.0463 45.9069 48.3228C45.8589 48.5647 45.6467 48.732 45.4079 48.732Z" fill="url(#paint50_linear_477_778)"/>
<path d="M8.67306 47.9687C8.61592 47.9687 8.55776 47.9595 8.50163 47.9391C7.77714 47.6799 6.68836 47.3707 5.61183 47.3707C5.3302 47.3707 5.10162 47.1422 5.10162 46.8605C5.10162 46.5789 5.3302 46.3503 5.61183 46.3503C6.8353 46.3503 8.04551 46.6922 8.84449 46.9789C9.1098 47.0738 9.24857 47.3656 9.15266 47.631C9.07817 47.8391 8.88225 47.9687 8.67306 47.9687Z" fill="url(#paint51_linear_477_778)"/>
<path d="M34.1834 48.391H16.8364C16.5547 48.391 16.3262 48.1624 16.3262 47.8808C16.3262 47.5992 16.5547 47.3706 16.8364 47.3706H34.1834C34.465 47.3706 34.6936 47.5992 34.6936 47.8808C34.6936 48.1624 34.465 48.391 34.1834 48.391Z" fill="url(#paint52_linear_477_778)"/>
<defs>
<linearGradient id="paint0_linear_477_778" x1="36.83" y1="30.0232" x2="33.4438" y2="31.6256" gradientUnits="userSpaceOnUse">
<stop stop-color="#4FC5EB"/>
<stop offset="1" stop-color="#5D52D9"/>
</linearGradient>
<linearGradient id="paint1_linear_477_778" x1="40.8151" y1="21.8608" x2="31.1502" y2="25.4482" gradientUnits="userSpaceOnUse">
<stop stop-color="#4FC5EB"/>
<stop offset="1" stop-color="#5D52D9"/>
</linearGradient>
<linearGradient id="paint2_linear_477_778" x1="16.3262" y1="0.432374" x2="8.08402" y2="2.93727" gradientUnits="userSpaceOnUse">
<stop stop-color="#4FC5EB"/>
<stop offset="1" stop-color="#5D52D9"/>
</linearGradient>
<linearGradient id="paint3_linear_477_778" x1="15.3058" y1="7.57471" x2="8.27616" y2="9.77168" gradientUnits="userSpaceOnUse">
<stop stop-color="#4FC5EB"/>
<stop offset="1" stop-color="#5D52D9"/>
</linearGradient>
<linearGradient id="paint4_linear_477_778" x1="17.3466" y1="7.57471" x2="15.5645" y2="11.7524" gradientUnits="userSpaceOnUse">
<stop stop-color="#4FC5EB"/>
<stop offset="1" stop-color="#5D52D9"/>
</linearGradient>
<linearGradient id="paint5_linear_477_778" x1="14.2851" y1="11.656" x2="9.2083" y2="12.2437" gradientUnits="userSpaceOnUse">
<stop stop-color="#4FC5EB"/>
<stop offset="1" stop-color="#5D52D9"/>
</linearGradient>
<linearGradient id="paint6_linear_477_778" x1="16.6674" y1="15.7395" x2="14.8055" y2="16.0084" gradientUnits="userSpaceOnUse">
<stop stop-color="#4FC5EB"/>
<stop offset="1" stop-color="#5D52D9"/>
</linearGradient>
<linearGradient id="paint7_linear_477_778" x1="17.3466" y1="9.61548" x2="13.5352" y2="10.041" gradientUnits="userSpaceOnUse">
<stop stop-color="#4FC5EB"/>
<stop offset="1" stop-color="#5D52D9"/>
</linearGradient>
<linearGradient id="paint8_linear_477_778" x1="17.3466" y1="15.738" x2="10.1197" y2="17.6205" gradientUnits="userSpaceOnUse">
<stop stop-color="#4FC5EB"/>
<stop offset="1" stop-color="#5D52D9"/>
</linearGradient>
<linearGradient id="paint9_linear_477_778" x1="14.2854" y1="20.8401" x2="10.6719" y2="21.7813" gradientUnits="userSpaceOnUse">
<stop stop-color="#4FC5EB"/>
<stop offset="1" stop-color="#5D52D9"/>
</linearGradient>
<linearGradient id="paint10_linear_477_778" x1="18.3668" y1="15.7385" x2="15.8363" y2="16.0683" gradientUnits="userSpaceOnUse">
<stop stop-color="#4FC5EB"/>
<stop offset="1" stop-color="#5D52D9"/>
</linearGradient>
<linearGradient id="paint11_linear_477_778" x1="31.6324" y1="6.55444" x2="18.9502" y2="13.711" gradientUnits="userSpaceOnUse">
<stop stop-color="#4FC5EB"/>
<stop offset="1" stop-color="#5D52D9"/>
</linearGradient>
<linearGradient id="paint12_linear_477_778" x1="26.53" y1="0.431886" x2="22.7196" y2="0.85717" gradientUnits="userSpaceOnUse">
<stop stop-color="#4FC5EB"/>
<stop offset="1" stop-color="#5D52D9"/>
</linearGradient>
<linearGradient id="paint13_linear_477_778" x1="31.6322" y1="3.49243" x2="26.8834" y2="4.27412" gradientUnits="userSpaceOnUse">
<stop stop-color="#4FC5EB"/>
<stop offset="1" stop-color="#5D52D9"/>
</linearGradient>
<linearGradient id="paint14_linear_477_778" x1="22.2367" y1="3.49243" x2="17.4867" y2="4.27452" gradientUnits="userSpaceOnUse">
<stop stop-color="#4FC5EB"/>
<stop offset="1" stop-color="#5D52D9"/>
</linearGradient>
<linearGradient id="paint15_linear_477_778" x1="25.5101" y1="10.636" x2="16.7431" y2="14.2899" gradientUnits="userSpaceOnUse">
<stop stop-color="#4FC5EB"/>
<stop offset="1" stop-color="#5D52D9"/>
</linearGradient>
<linearGradient id="paint16_linear_477_778" x1="29.5915" y1="10.6367" x2="18.7513" y2="13.4606" gradientUnits="userSpaceOnUse">
<stop stop-color="#4FC5EB"/>
<stop offset="1" stop-color="#5D52D9"/>
</linearGradient>
<linearGradient id="paint17_linear_477_778" x1="21.4285" y1="11.6565" x2="17.606" y2="12.0299" gradientUnits="userSpaceOnUse">
<stop stop-color="#4FC5EB"/>
<stop offset="1" stop-color="#5D52D9"/>
</linearGradient>
<linearGradient id="paint18_linear_477_778" x1="31.2259" y1="15.2449" x2="27.9541" y2="15.7395" gradientUnits="userSpaceOnUse">
<stop stop-color="#4FC5EB"/>
<stop offset="1" stop-color="#5D52D9"/>
</linearGradient>
<linearGradient id="paint19_linear_477_778" x1="31.6324" y1="11.6565" x2="30.1958" y2="11.8024" gradientUnits="userSpaceOnUse">
<stop stop-color="#4FC5EB"/>
<stop offset="1" stop-color="#5D52D9"/>
</linearGradient>
<linearGradient id="paint20_linear_477_778" x1="31.6323" y1="12.6768" x2="27.7532" y2="13.4705" gradientUnits="userSpaceOnUse">
<stop stop-color="#4FC5EB"/>
<stop offset="1" stop-color="#5D52D9"/>
</linearGradient>
<linearGradient id="paint21_linear_477_778" x1="27.5497" y1="18.2319" x2="21.6055" y2="19.9308" gradientUnits="userSpaceOnUse">
<stop stop-color="#4FC5EB"/>
<stop offset="1" stop-color="#5D52D9"/>
</linearGradient>
<linearGradient id="paint22_linear_477_778" x1="20.2689" y1="16.8735" x2="17.0825" y2="18.1334" gradientUnits="userSpaceOnUse">
<stop stop-color="#4FC5EB"/>
<stop offset="1" stop-color="#5D52D9"/>
</linearGradient>
<linearGradient id="paint23_linear_477_778" x1="17.1934" y1="25.9409" x2="14.7764" y2="26.2781" gradientUnits="userSpaceOnUse">
<stop stop-color="#4FC5EB"/>
<stop offset="1" stop-color="#5D52D9"/>
</linearGradient>
<linearGradient id="paint24_linear_477_778" x1="39.7957" y1="26.9624" x2="33.7733" y2="28.5311" gradientUnits="userSpaceOnUse">
<stop stop-color="#4FC5EB"/>
<stop offset="1" stop-color="#5D52D9"/>
</linearGradient>
<linearGradient id="paint25_linear_477_778" x1="30.6126" y1="20.8394" x2="11.3672" y2="27.9407" gradientUnits="userSpaceOnUse">
<stop stop-color="#4FC5EB"/>
<stop offset="1" stop-color="#5D52D9"/>
</linearGradient>
<linearGradient id="paint26_linear_477_778" x1="27.55" y1="22.8816" x2="25.1416" y2="23.509" gradientUnits="userSpaceOnUse">
<stop stop-color="#4FC5EB"/>
<stop offset="1" stop-color="#5D52D9"/>
</linearGradient>
<linearGradient id="paint27_linear_477_778" x1="18.3681" y1="27.9834" x2="14.1409" y2="30.3699" gradientUnits="userSpaceOnUse">
<stop stop-color="#4FC5EB"/>
<stop offset="1" stop-color="#5D52D9"/>
</linearGradient>
<linearGradient id="paint28_linear_477_778" x1="19.7271" y1="19.8201" x2="11.1625" y2="22.5471" gradientUnits="userSpaceOnUse">
<stop stop-color="#4FC5EB"/>
<stop offset="1" stop-color="#5D52D9"/>
</linearGradient>
<linearGradient id="paint29_linear_477_778" x1="27.9428" y1="29.6316" x2="14.5668" y2="35.4749" gradientUnits="userSpaceOnUse">
<stop stop-color="#4FC5EB"/>
<stop offset="1" stop-color="#5D52D9"/>
</linearGradient>
<linearGradient id="paint30_linear_477_778" x1="26.5305" y1="27.9827" x2="16.4867" y2="31.9073" gradientUnits="userSpaceOnUse">
<stop stop-color="#4FC5EB"/>
<stop offset="1" stop-color="#5D52D9"/>
</linearGradient>
<linearGradient id="paint31_linear_477_778" x1="38.7755" y1="31.0449" x2="31.2443" y2="34.5332" gradientUnits="userSpaceOnUse">
<stop stop-color="#4FC5EB"/>
<stop offset="1" stop-color="#5D52D9"/>
</linearGradient>
<linearGradient id="paint32_linear_477_778" x1="34.6936" y1="32.0645" x2="32.265" y2="34.0887" gradientUnits="userSpaceOnUse">
<stop stop-color="#4FC5EB"/>
<stop offset="1" stop-color="#5D52D9"/>
</linearGradient>
<linearGradient id="paint33_linear_477_778" x1="27.2435" y1="34.8833" x2="16.1235" y2="38.7648" gradientUnits="userSpaceOnUse">
<stop stop-color="#4FC5EB"/>
<stop offset="1" stop-color="#5D52D9"/>
</linearGradient>
<linearGradient id="paint34_linear_477_778" x1="24.4895" y1="35.1255" x2="19.0774" y2="37.4754" gradientUnits="userSpaceOnUse">
<stop stop-color="#4FC5EB"/>
<stop offset="1" stop-color="#5D52D9"/>
</linearGradient>
<linearGradient id="paint35_linear_477_778" x1="32.6527" y1="19.8201" x2="13.9512" y2="23.1412" gradientUnits="userSpaceOnUse">
<stop stop-color="#4FC5EB"/>
<stop offset="1" stop-color="#5D52D9"/>
</linearGradient>
<linearGradient id="paint36_linear_477_778" x1="31.6324" y1="30.0237" x2="27.7931" y2="30.2964" gradientUnits="userSpaceOnUse">
<stop stop-color="#4FC5EB"/>
<stop offset="1" stop-color="#5D52D9"/>
</linearGradient>
<linearGradient id="paint37_linear_477_778" x1="24.4885" y1="38.186" x2="22.5774" y2="38.3727" gradientUnits="userSpaceOnUse">
<stop stop-color="#4FC5EB"/>
<stop offset="1" stop-color="#5D52D9"/>
</linearGradient>
<linearGradient id="paint38_linear_477_778" x1="38.7752" y1="45.3298" x2="27.1156" y2="61.7299" gradientUnits="userSpaceOnUse">
<stop stop-color="#4FC5EB"/>
<stop offset="1" stop-color="#5D52D9"/>
</linearGradient>
<linearGradient id="paint39_linear_477_778" x1="36.7344" y1="43.2891" x2="30.8035" y2="55.1329" gradientUnits="userSpaceOnUse">
<stop stop-color="#4FC5EB"/>
<stop offset="1" stop-color="#5D52D9"/>
</linearGradient>
<linearGradient id="paint40_linear_477_778" x1="32.6527" y1="40.2278" x2="31.388" y2="40.3925" gradientUnits="userSpaceOnUse">
<stop stop-color="#4FC5EB"/>
<stop offset="1" stop-color="#5D52D9"/>
</linearGradient>
<linearGradient id="paint41_linear_477_778" x1="37.7538" y1="24.1553" x2="34.7179" y2="25.7358" gradientUnits="userSpaceOnUse">
<stop stop-color="#4FC5EB"/>
<stop offset="1" stop-color="#5D52D9"/>
</linearGradient>
<linearGradient id="paint42_linear_477_778" x1="42.1109" y1="8.59522" x2="36.9031" y2="10.7352" gradientUnits="userSpaceOnUse">
<stop stop-color="#4FC5EB"/>
<stop offset="1" stop-color="#5D52D9"/>
</linearGradient>
<linearGradient id="paint43_linear_477_778" x1="45.9188" y1="8.59522" x2="40.711" y2="10.7352" gradientUnits="userSpaceOnUse">
<stop stop-color="#4FC5EB"/>
<stop offset="1" stop-color="#5D52D9"/>
</linearGradient>
<linearGradient id="paint44_linear_477_778" x1="43.1303" y1="10.636" x2="40.7346" y2="12.5081" gradientUnits="userSpaceOnUse">
<stop stop-color="#4FC5EB"/>
<stop offset="1" stop-color="#5D52D9"/>
</linearGradient>
<linearGradient id="paint45_linear_477_778" x1="11.2241" y1="31.0442" x2="8.98235" y2="34.5477" gradientUnits="userSpaceOnUse">
<stop stop-color="#4FC5EB"/>
<stop offset="1" stop-color="#5D52D9"/>
</linearGradient>
<linearGradient id="paint46_linear_477_778" x1="44.8977" y1="38.187" x2="42.5019" y2="40.0591" gradientUnits="userSpaceOnUse">
<stop stop-color="#4FC5EB"/>
<stop offset="1" stop-color="#5D52D9"/>
</linearGradient>
<linearGradient id="paint47_linear_477_778" x1="22.4483" y1="22.8804" x2="19.285" y2="24.3626" gradientUnits="userSpaceOnUse">
<stop stop-color="#4FC5EB"/>
<stop offset="1" stop-color="#5D52D9"/>
</linearGradient>
<linearGradient id="paint48_linear_477_778" x1="11.2247" y1="41.9797" x2="7.37719" y2="48.2752" gradientUnits="userSpaceOnUse">
<stop stop-color="#4FC5EB"/>
<stop offset="1" stop-color="#5D52D9"/>
</linearGradient>
<linearGradient id="paint49_linear_477_778" x1="50" y1="42.0117" x2="42.2893" y2="49.0569" gradientUnits="userSpaceOnUse">
<stop stop-color="#4FC5EB"/>
<stop offset="1" stop-color="#5D52D9"/>
</linearGradient>
<linearGradient id="paint50_linear_477_778" x1="45.9168" y1="46.4387" x2="41.1028" y2="49.2283" gradientUnits="userSpaceOnUse">
<stop stop-color="#4FC5EB"/>
<stop offset="1" stop-color="#5D52D9"/>
</linearGradient>
<linearGradient id="paint51_linear_477_778" x1="9.18305" y1="46.3503" x2="5.58929" y2="48.7111" gradientUnits="userSpaceOnUse">
<stop stop-color="#4FC5EB"/>
<stop offset="1" stop-color="#5D52D9"/>
</linearGradient>
<linearGradient id="paint52_linear_477_778" x1="34.6936" y1="47.3706" x2="33.6862" y2="52.0937" gradientUnits="userSpaceOnUse">
<stop stop-color="#4FC5EB"/>
<stop offset="1" stop-color="#5D52D9"/>
</linearGradient>
</defs>
</svg>
