<svg width="50" height="50" viewBox="0 0 50 50" fill="none" xmlns="http://www.w3.org/2000/svg">
<path fill-rule="evenodd" clip-rule="evenodd" d="M8.2 21.4914C5.7535 22.1833 4 24.0555 4 26.2543V42.9491C4 45.7389 6.8203 48 10.3 48C17.5723 48 32.4277 48 39.7 48C43.1797 48 46 45.7389 46 42.9491V26.2543C46 24.0555 44.2465 22.1833 41.8 21.4914V14.3999C41.8 6.99875 34.3177 1 25.0861 1H24.9139C15.6823 1 8.2 6.99875 8.2 14.3999V21.4914ZM39.7 24.5707C40.8592 24.5707 41.8 25.325 41.8 26.2543V42.9491C41.8 43.8785 40.8592 44.6328 39.7 44.6328H10.3C9.1408 44.6328 8.2 43.8785 8.2 42.9491V26.2543C8.2 25.325 9.1408 24.5707 10.3 24.5707H39.7ZM37.6 21.2035H12.4V14.3999C12.4 8.85915 18.0028 4.36724 24.9139 4.36724H25.0861C31.9972 4.36724 37.6 8.85915 37.6 14.3999V21.2035Z" fill="url(#paint0_linear_477_769)"/>
<path fill-rule="evenodd" clip-rule="evenodd" d="M22.8959 37.6791V39.723C22.8959 40.6524 23.8367 41.4066 24.9959 41.4066C26.1551 41.4066 27.0959 40.6524 27.0959 39.723V37.6825C29.5445 36.9888 31.3001 35.1166 31.3001 32.9178C31.3001 30.1297 28.4777 27.8669 25.0001 27.8669C21.5225 27.8669 18.7001 30.1297 18.7001 32.9178C18.7001 35.1133 20.4515 36.9854 22.8959 37.6791V37.6791ZM25.0001 31.2342C26.1593 31.2342 27.1001 31.9885 27.1001 32.9178C27.1001 33.8472 26.1593 34.6014 25.0001 34.6014C23.8409 34.6014 22.9001 33.8472 22.9001 32.9178C22.9001 31.9885 23.8409 31.2342 25.0001 31.2342Z" fill="url(#paint1_linear_477_769)"/>
<defs>
<linearGradient id="paint0_linear_477_769" x1="46" y1="1.00001" x2="-4.21909" y2="12.6892" gradientUnits="userSpaceOnUse">
<stop stop-color="#4FC5EB"/>
<stop offset="1" stop-color="#5D52D9"/>
</linearGradient>
<linearGradient id="paint1_linear_477_769" x1="31.3001" y1="27.8669" x2="16.2995" y2="31.503" gradientUnits="userSpaceOnUse">
<stop stop-color="#4FC5EB"/>
<stop offset="1" stop-color="#5D52D9"/>
</linearGradient>
</defs>
</svg>
