<svg width="50" height="50" viewBox="0 0 50 50" fill="none" xmlns="http://www.w3.org/2000/svg">
<g clip-path="url(#clip0_478_898)">
<path d="M46.5719 28.225L46.1406 28.6413C44.2009 30.5137 43.2028 33.157 43.4207 35.8441L43.4706 36.4593C43.5247 37.1229 43.1076 37.7302 42.4733 37.9157L41.9392 38.0707C39.334 38.8268 37.2088 40.7176 36.1549 43.2172L35.9289 43.7532C35.6695 44.366 35.0168 44.7148 34.3732 44.5764L33.8434 44.4671C31.1763 43.917 28.4036 44.6041 26.302 46.3358L25.879 46.6844C25.6233 46.8948 25.3125 47 24.9999 47C24.6873 47 24.3765 46.8948 24.1208 46.6844L23.6987 46.3365C21.5971 44.6044 18.8242 43.917 16.1569 44.467L15.6266 44.5764C14.9821 44.7167 14.3313 44.3651 14.0709 43.7532L13.8449 43.2172C12.791 40.7176 10.6658 38.8268 8.06058 38.0707L7.52655 37.9157C6.89403 37.7302 6.47601 37.1229 6.52918 36.4593L6.57907 35.8441C6.79701 33.157 5.79888 30.5137 3.85924 28.6413L3.42796 28.225C2.95035 27.7654 2.86235 27.0298 3.21528 26.4696L3.54046 25.9533C4.97634 23.6732 5.31509 20.8697 4.4636 18.3132L4.26858 17.7277C4.05957 17.0973 4.32175 16.4061 4.89285 16.0747L5.39802 15.7815C7.7343 14.4251 9.33773 12.0909 9.76558 9.42353L9.86141 8.82612C9.96683 8.169 10.5159 7.67893 11.175 7.65217L11.7188 7.6306C14.4355 7.52283 16.9579 6.19274 18.5814 4.01186L18.9185 3.55901C19.3163 3.02833 20.0304 2.85021 20.6254 3.13631L21.1109 3.36888C23.5692 4.54646 26.4288 4.54646 28.8871 3.36888L29.3726 3.13631C29.9648 2.84928 30.6826 3.02741 31.0786 3.55901L31.4166 4.01292C33.0401 6.19317 35.5621 7.52282 38.2783 7.63056L38.8229 7.65217C39.482 7.67893 40.0312 8.169 40.1393 8.8252L40.2351 9.42262C40.663 12.09 42.2664 14.4241 44.6027 15.7805L45.1079 16.0738C45.679 16.4052 45.9393 17.0964 45.7322 17.7268L45.5367 18.3138C44.686 20.8694 45.0247 23.6717 46.4596 25.9511L46.7854 26.4687C47.1375 27.0298 47.0495 27.7654 46.5719 28.225Z" stroke="url(#paint0_linear_478_898)" stroke-width="3" stroke-miterlimit="10" stroke-linecap="round"/>
<path d="M11 29.8556V20H17.5652V21.718H13.0964V24.0664H17.1294V25.7844H13.0964V29.8556H11Z" fill="url(#paint1_linear_478_898)"/>
<path d="M18.8167 29.8556V22.4639H20.8163V23.7536H20.8937C21.0293 23.2948 21.2569 22.9483 21.5764 22.7141C21.896 22.4767 22.2639 22.358 22.6803 22.358C22.7836 22.358 22.8949 22.3645 23.0144 22.3773C23.1338 22.3901 23.2387 22.4078 23.3291 22.4302V24.2493C23.2322 24.2204 23.0983 24.1947 22.9272 24.1723C22.7561 24.1498 22.5996 24.1386 22.4576 24.1386C22.1542 24.1386 21.883 24.2044 21.6442 24.3359C21.4086 24.4642 21.2214 24.6439 21.0826 24.8749C20.947 25.1059 20.8792 25.3722 20.8792 25.6737V29.8556H18.8167Z" fill="url(#paint2_linear_478_898)"/>
<path d="M27.4383 30C26.6734 30 26.0149 29.846 25.463 29.538C24.9143 29.2268 24.4914 28.7873 24.1945 28.2194C23.8975 27.6484 23.7491 26.9731 23.7491 26.1935C23.7491 25.4331 23.8975 24.7658 24.1945 24.1915C24.4914 23.6173 24.9094 23.1697 25.4485 22.8489C25.9907 22.5281 26.6266 22.3677 27.356 22.3677C27.8466 22.3677 28.3034 22.4463 28.7262 22.6035C29.1523 22.7575 29.5234 22.9901 29.8398 23.3013C30.1593 23.6124 30.4078 24.0039 30.5854 24.4755C30.7629 24.9439 30.8516 25.4925 30.8516 26.1213V26.6843H24.5721V25.4139H28.9102C28.9102 25.1187 28.8456 24.8572 28.7165 24.6295C28.5874 24.4017 28.4083 24.2236 28.1791 24.0953C27.9532 23.9637 27.6901 23.898 27.3899 23.898C27.0768 23.898 26.7992 23.9702 26.5572 24.1145C26.3183 24.2557 26.1311 24.4466 25.9955 24.6872C25.86 24.9246 25.7906 25.1893 25.7874 25.4812V26.6891C25.7874 27.0549 25.8551 27.3709 25.9907 27.6372C26.1295 27.9034 26.3248 28.1088 26.5765 28.2531C26.8283 28.3975 27.1269 28.4697 27.4722 28.4697C27.7014 28.4697 27.9112 28.4376 28.1016 28.3734C28.2921 28.3093 28.4551 28.213 28.5906 28.0847C28.7262 27.9564 28.8295 27.7992 28.9005 27.6131L30.8081 27.7382C30.7112 28.1938 30.5127 28.5916 30.2126 28.9317C29.9156 29.2685 29.5315 29.5316 29.0603 29.7209C28.5922 29.907 28.0516 30 27.4383 30Z" fill="url(#paint3_linear_478_898)"/>
<path d="M35.5867 30C34.8217 30 34.1633 29.846 33.6113 29.538C33.0626 29.2268 32.6398 28.7873 32.3428 28.2194C32.0459 27.6484 31.8974 26.9731 31.8974 26.1935C31.8974 25.4331 32.0459 24.7658 32.3428 24.1915C32.6398 23.6173 33.0578 23.1697 33.5968 22.8489C34.1391 22.5281 34.7749 22.3677 35.5044 22.3677C35.995 22.3677 36.4517 22.4463 36.8746 22.6035C37.3006 22.7575 37.6718 22.9901 37.9881 23.3013C38.3077 23.6124 38.5562 24.0039 38.7337 24.4755C38.9112 24.9439 39 25.4925 39 26.1213V26.6843H32.7205V25.4139H37.0585C37.0585 25.1187 36.994 24.8572 36.8649 24.6295C36.7358 24.4017 36.5566 24.2236 36.3275 24.0953C36.1015 23.9637 35.8385 23.898 35.5383 23.898C35.2252 23.898 34.9476 23.9702 34.7055 24.1145C34.4667 24.2557 34.2795 24.4466 34.1439 24.6872C34.0083 24.9246 33.9389 25.1893 33.9357 25.4812V26.6891C33.9357 27.0549 34.0035 27.3709 34.1391 27.6372C34.2779 27.9034 34.4731 28.1088 34.7249 28.2531C34.9767 28.3975 35.2752 28.4697 35.6206 28.4697C35.8498 28.4697 36.0596 28.4376 36.25 28.3734C36.4404 28.3093 36.6034 28.213 36.739 28.0847C36.8746 27.9564 36.9778 27.7992 37.0489 27.6131L38.9564 27.7382C38.8596 28.1938 38.6611 28.5916 38.3609 28.9317C38.064 29.2685 37.6799 29.5316 37.2086 29.7209C36.7406 29.907 36.2 30 35.5867 30Z" fill="url(#paint4_linear_478_898)"/>
</g>
<defs>
<linearGradient id="paint0_linear_478_898" x1="47" y1="3.00001" x2="-4.9371" y2="16.5283" gradientUnits="userSpaceOnUse">
<stop stop-color="#4FC5EB"/>
<stop offset="1" stop-color="#5D52D9"/>
</linearGradient>
<linearGradient id="paint1_linear_478_898" x1="39" y1="20" x2="15.9614" y2="36.8027" gradientUnits="userSpaceOnUse">
<stop stop-color="#4FC5EB"/>
<stop offset="1" stop-color="#5D52D9"/>
</linearGradient>
<linearGradient id="paint2_linear_478_898" x1="39" y1="20" x2="15.9614" y2="36.8027" gradientUnits="userSpaceOnUse">
<stop stop-color="#4FC5EB"/>
<stop offset="1" stop-color="#5D52D9"/>
</linearGradient>
<linearGradient id="paint3_linear_478_898" x1="39" y1="20" x2="15.9614" y2="36.8027" gradientUnits="userSpaceOnUse">
<stop stop-color="#4FC5EB"/>
<stop offset="1" stop-color="#5D52D9"/>
</linearGradient>
<linearGradient id="paint4_linear_478_898" x1="39" y1="20" x2="15.9614" y2="36.8027" gradientUnits="userSpaceOnUse">
<stop stop-color="#4FC5EB"/>
<stop offset="1" stop-color="#5D52D9"/>
</linearGradient>
<clipPath id="clip0_478_898">
<rect width="50" height="50" fill="white"/>
</clipPath>
</defs>
</svg>
