<svg width="29" height="26" viewBox="0 0 29 26" fill="none" xmlns="http://www.w3.org/2000/svg">
<path d="M20.9444 9.30558e-08C19.6939 9.30558e-08 18.4604 0.293677 17.3419 0.857774C16.2233 1.42187 15.2504 2.24089 14.5 3.24998C13.4856 1.88575 12.0713 0.878036 10.4575 0.369575C8.84365 -0.138885 7.11212 -0.122313 5.50816 0.416946C3.90421 0.956205 2.50913 1.99081 1.52055 3.37421C0.531967 4.75761 0 6.41967 0 8.12495C0 17.8614 13.4125 25.5394 13.9764 25.8644C14.1362 25.955 14.3167 26.0017 14.5 25.9998C14.6834 26.003 14.8643 25.9562 15.0236 25.8644C17.4936 24.408 19.8103 22.702 21.938 20.7728C26.6236 16.5207 29 12.2687 29 8.12495C29 5.97008 28.1513 3.90347 26.6406 2.37974C25.1299 0.856019 23.0809 9.30558e-08 20.9444 9.30558e-08Z" fill="url(#paint0_linear_91_1223)"/>
<defs>
<linearGradient id="paint0_linear_91_1223" x1="29" y1="2.97481e-06" x2="-4.70852" y2="9.79331" gradientUnits="userSpaceOnUse">
<stop stop-color="#4FC5EB"/>
<stop offset="1" stop-color="#5D52D9"/>
</linearGradient>
</defs>
</svg>
