<svg xmlns="http://www.w3.org/2000/svg" height="54.522" viewBox="0 0 356.5976 54.522259" width="356.6"><g fill="#000d74" transform="translate(-2.6886 -2.8515)"><path d="m50.001 30.593c-2.526-2.218-3.196-5.104-3.196-7.604 0-1.753 0.541-4.794 3.016-7.063 1.855-1.702 4.304-2.733 8.145-2.733 1.598 0 2.552 0.103 3.737 0.258 0.979 0.129 1.805 0.361 2.578 0.438 0.283 0.025 0.386 0.154 0.386 0.31 0 0.206-0.077 0.515-0.129 1.418-0.051 0.851-0.025 2.269-0.077 2.783-0.026 0.387-0.077 0.593-0.309 0.593-0.206 0-0.258-0.206-0.258-0.566-0.025-0.801-0.36-1.702-1.005-2.371-0.851-0.903-2.861-1.6-5.232-1.6-2.243 0-3.712 0.567-4.846 1.6-1.882 1.727-2.372 4.175-2.372 6.676 0 6.134 4.666 9.175 8.12 9.175 2.293 0 3.685-0.257 4.717-1.444 0.438-0.487 0.773-1.234 0.876-1.699 0.077-0.413 0.129-0.517 0.335-0.517 0.18 0 0.232 0.182 0.232 0.387 0 0.31-0.309 2.552-0.567 3.429-0.129 0.438-0.232 0.566-0.67 0.748-1.031 0.412-2.99 0.593-4.64 0.593-3.53-0.002-6.494-0.776-8.841-2.811"/><path d="m67.968 24.875c0-3.688 2.437-8.452 8.907-8.452 5.37 0 8.713 3.127 8.713 8.065s-3.451 8.842-8.929 8.842c-6.189 0-8.691-4.637-8.691-8.455m14.601 0.411c0-4.831-2.782-7.829-6.319-7.829-2.481 0-5.306 1.381-5.306 6.75 0 4.486 2.481 8.045 6.621 8.045 1.51 0 5.004-0.733 5.004-6.966"/><path d="m93.313 26.773c0 2.762 0 4.249 0.453 4.638 0.367 0.324 0.927 0.474 2.61 0.474 1.143 0 1.984-0.021 2.523-0.603 0.259-0.281 0.518-0.885 0.561-1.295 0.021-0.193 0.064-0.323 0.237-0.323 0.151 0 0.172 0.106 0.172 0.367 0 0.235-0.151 1.854-0.323 2.479-0.129 0.474-0.237 0.582-1.359 0.582-3.106 0-4.528-0.13-6.275-0.13-0.497 0-1.855 0.065-2.718 0.065-0.28 0-0.432-0.065-0.432-0.217 0-0.107 0.087-0.172 0.346-0.172 0.323 0 0.582-0.043 0.776-0.087 0.431-0.086 0.539-0.56 0.626-1.185 0.107-0.906 0.107-2.61 0.107-4.596v-3.796c0-3.277 0-3.882-0.043-4.57-0.043-0.734-0.215-1.079-0.927-1.23-0.173-0.043-0.431-0.064-0.712-0.064-0.237 0-0.366-0.043-0.366-0.194s0.15-0.194 0.474-0.194c1.014 0 2.372 0.065 2.955 0.065 0.517 0 2.092-0.065 2.933-0.065 0.302 0 0.453 0.043 0.453 0.194s-0.13 0.194-0.389 0.194c-0.237 0-0.582 0.021-0.84 0.064-0.583 0.108-0.756 0.476-0.799 1.23-0.043 0.688-0.043 1.293-0.043 4.57v3.799z"/><path d="m104.03 22.979c0-3.278 0-3.883-0.043-4.572-0.044-0.732-0.216-1.079-0.927-1.229-0.173-0.043-0.54-0.063-0.842-0.063-0.237 0-0.366-0.043-0.366-0.194 0-0.15 0.15-0.193 0.474-0.193 1.143 0 2.502 0.063 3.148 0.063 0.519 0 1.877-0.063 2.654-0.063 0.323 0 0.474 0.043 0.474 0.193 0 0.151-0.129 0.194-0.345 0.194-0.237 0-0.366 0.021-0.625 0.063-0.583 0.107-0.755 0.475-0.798 1.229-0.043 0.689-0.043 1.294-0.043 4.572v3.019c0 3.127 0.625 4.444 1.682 5.306 0.97 0.798 1.963 0.884 2.695 0.884 0.95 0 2.114-0.301 2.976-1.164 1.187-1.186 1.252-3.127 1.252-5.348v-2.696c0-3.278 0-3.883-0.043-4.572-0.043-0.732-0.216-1.079-0.928-1.229-0.173-0.043-0.539-0.064-0.776-0.064s-0.367-0.043-0.367-0.194c0-0.15 0.151-0.193 0.453-0.193 1.1 0 2.459 0.063 2.48 0.063 0.259 0 1.618-0.063 2.459-0.063 0.302 0 0.453 0.043 0.453 0.193 0 0.151-0.129 0.194-0.389 0.194-0.237 0-0.366 0.021-0.625 0.064-0.582 0.107-0.755 0.475-0.798 1.229-0.043 0.689-0.043 1.294-0.043 4.572v2.308c0 2.395-0.237 4.938-2.049 6.491-1.531 1.316-3.084 1.553-4.486 1.553-1.143 0-3.214-0.064-4.787-1.487-1.1-0.992-1.92-2.589-1.92-5.717v-3.149z"/><path d="m124.3 16.811c0.065-0.367 0.194-0.562 0.367-0.562 0.172 0 0.302 0.108 0.582 0.669l5.887 12.164 5.867-12.314c0.149-0.346 0.279-0.519 0.474-0.519s0.323 0.216 0.388 0.669l1.963 13.328c0.194 1.359 0.41 1.984 1.057 2.18 0.626 0.192 1.058 0.215 1.338 0.215 0.193 0 0.345 0.021 0.345 0.15 0 0.172-0.259 0.238-0.561 0.238-0.539 0-3.516-0.066-4.378-0.131-0.496-0.042-0.625-0.107-0.625-0.237 0-0.106 0.086-0.172 0.236-0.235 0.129-0.045 0.194-0.324 0.108-0.929l-1.294-9.49h-0.086l-4.702 9.792c-0.496 1.015-0.604 1.208-0.798 1.208s-0.41-0.432-0.755-1.077c-0.517-0.993-2.221-4.293-2.48-4.897-0.194-0.452-1.488-3.169-2.243-4.787h-0.086l-1.122 8.583c-0.043 0.389-0.065 0.669-0.065 1.015 0 0.409 0.281 0.604 0.648 0.69 0.388 0.085 0.69 0.107 0.905 0.107 0.173 0 0.324 0.043 0.324 0.15 0 0.194-0.194 0.238-0.517 0.238-0.907 0-1.877-0.066-2.265-0.066-0.41 0-1.445 0.066-2.135 0.066-0.216 0-0.389-0.044-0.389-0.238 0-0.107 0.129-0.15 0.346-0.15 0.173 0 0.323 0 0.646-0.065 0.604-0.129 0.776-0.97 0.884-1.704l2.15-14.061z"/><path d="m147.31 22.979c0-3.278 0-3.883-0.044-4.572-0.043-0.733-0.216-1.079-0.928-1.229-0.172-0.043-0.538-0.065-0.84-0.065-0.238 0-0.367-0.043-0.367-0.192 0-0.152 0.151-0.194 0.476-0.194 1.143 0 2.501 0.063 2.933 0.063 1.057 0 1.897-0.063 2.631-0.063 3.903 0 4.593 2.091 4.593 3.235 0 1.768-1.013 2.823-2.199 3.773 1.769 0.604 3.925 2.135 3.925 4.657 0 2.309-1.789 4.703-5.758 4.703-0.518 0-2.48-0.13-3.127-0.13-0.496 0-1.854 0.065-2.718 0.065-0.279 0-0.431-0.065-0.431-0.216 0-0.109 0.086-0.173 0.345-0.173 0.323 0 0.582-0.043 0.776-0.087 0.431-0.086 0.539-0.561 0.625-1.186 0.108-0.905 0.108-2.609 0.108-4.595v-3.794zm2.587 0.367c0 0.172 0.064 0.215 0.15 0.236 0.194 0.042 0.519 0.065 1.015 0.065 0.712 0 1.186-0.087 1.553-0.41 0.561-0.454 0.884-1.229 0.884-2.286 0-1.444-0.841-3.343-2.696-3.343-0.302 0-0.496 0-0.711 0.043-0.151 0.043-0.194 0.129-0.194 0.367l-0.001 5.328zm2.847 1.724c-0.453-0.324-0.949-0.475-1.79-0.518-0.388-0.021-0.604-0.021-0.927-0.021-0.087 0-0.13 0.044-0.13 0.151v5.112c0 1.423 0.064 1.79 0.755 2.069 0.582 0.237 1.078 0.258 1.573 0.258 0.972 0 2.61-0.517 2.61-2.759 0.001-1.337-0.452-3.148-2.091-4.292"/><path d="m162.28 22.979c0-3.278 0-3.883-0.043-4.572-0.043-0.732-0.259-1.1-0.733-1.208-0.237-0.064-0.517-0.086-0.775-0.086-0.216 0-0.345-0.043-0.345-0.216 0-0.129 0.172-0.172 0.517-0.172 0.819 0 2.178 0.063 2.803 0.063 0.54 0 1.813-0.063 2.633-0.063 0.279 0 0.452 0.043 0.452 0.172 0 0.173-0.13 0.216-0.345 0.216-0.216 0-0.388 0.021-0.648 0.064-0.582 0.107-0.754 0.475-0.797 1.229-0.044 0.688-0.044 1.294-0.044 4.572v3.796c0 2.091 0 3.796 0.087 4.723 0.064 0.582 0.216 0.971 0.863 1.058 0.302 0.043 0.776 0.086 1.1 0.086 0.236 0 0.346 0.063 0.346 0.173 0 0.15-0.173 0.216-0.41 0.216-1.423 0-2.783-0.065-3.365-0.065-0.496 0-1.854 0.065-2.717 0.065-0.28 0-0.431-0.065-0.431-0.216 0-0.109 0.086-0.173 0.345-0.173 0.323 0 0.582-0.043 0.775-0.086 0.432-0.087 0.562-0.454 0.625-1.079 0.108-0.905 0.108-2.61 0.108-4.701l-0.001-3.796z"/><path d="m175.4 27.399c-0.109 0-0.152 0.043-0.195 0.172l-1.165 3.085c-0.215 0.538-0.324 1.057-0.324 1.315 0 0.388 0.195 0.669 0.864 0.669h0.323c0.259 0 0.322 0.043 0.322 0.172 0 0.172-0.129 0.216-0.365 0.216-0.691 0-1.617-0.064-2.286-0.064-0.237 0-1.423 0.064-2.545 0.064-0.28 0-0.41-0.044-0.41-0.216 0-0.129 0.086-0.172 0.259-0.172 0.195 0 0.496-0.022 0.668-0.043 0.993-0.13 1.403-0.863 1.834-1.941l5.412-13.545c0.261-0.625 0.389-0.861 0.605-0.861 0.193 0 0.322 0.193 0.538 0.689 0.519 1.187 3.969 9.985 5.35 13.264 0.817 1.942 1.446 2.243 1.897 2.351 0.322 0.064 0.646 0.087 0.903 0.087 0.175 0 0.282 0.021 0.282 0.172 0 0.172-0.195 0.216-0.993 0.216-0.774 0-2.351 0-4.076-0.044-0.388-0.021-0.646-0.021-0.646-0.172 0-0.129 0.087-0.172 0.302-0.194 0.151-0.043 0.302-0.236 0.194-0.496l-1.728-4.571c-0.043-0.108-0.107-0.151-0.215-0.151h-4.807v-0.002zm4.399-1.078c0.108 0 0.13-0.064 0.108-0.13l-1.941-5.327c-0.021-0.086-0.044-0.193-0.107-0.193-0.066 0-0.108 0.107-0.13 0.193l-1.983 5.307c-0.022 0.086 0 0.15 0.086 0.15h3.967z"/><path d="m198.51 21.03c0-3.919 0-4.64-0.052-5.465-0.055-0.877-0.258-1.289-1.107-1.47-0.207-0.052-0.645-0.077-1.007-0.077-0.282 0-0.438-0.052-0.438-0.231 0-0.181 0.182-0.232 0.566-0.232 1.366 0 2.991 0.077 3.764 0.077 0.619 0 2.242-0.077 3.17-0.077 0.388 0 0.568 0.052 0.568 0.232s-0.156 0.231-0.414 0.231c-0.283 0-0.437 0.025-0.746 0.077-0.696 0.13-0.902 0.567-0.955 1.47-0.051 0.825-0.051 1.546-0.051 5.465v3.608c0 3.736 0.748 5.31 2.01 6.341 1.162 0.954 2.349 1.056 3.225 1.056 1.134 0 2.525-0.36 3.557-1.39 1.418-1.418 1.495-3.738 1.495-6.395v-3.22c0-3.919 0-4.64-0.052-5.465-0.053-0.877-0.258-1.289-1.109-1.47-0.205-0.052-0.645-0.077-0.928-0.077s-0.438-0.052-0.438-0.231c0-0.181 0.181-0.232 0.539-0.232 1.316 0 2.939 0.077 2.965 0.077 0.311 0 1.934-0.077 2.938-0.077 0.361 0 0.542 0.052 0.542 0.232s-0.154 0.231-0.465 0.231c-0.283 0-0.438 0.025-0.747 0.077-0.696 0.13-0.901 0.567-0.954 1.47-0.051 0.825-0.051 1.546-0.051 5.465v2.758c0 2.861-0.284 5.902-2.449 7.758-1.828 1.572-3.687 1.856-5.361 1.856-1.366 0-3.84-0.078-5.721-1.78-1.316-1.185-2.295-3.091-2.295-6.83l0.001-3.762z"/><path d="m221.81 30.096c0.043 1.682 0.323 2.242 0.754 2.393 0.367 0.13 0.776 0.152 1.123 0.152 0.237 0 0.365 0.043 0.365 0.173 0 0.171-0.191 0.215-0.496 0.215-1.4 0-2.265-0.064-2.674-0.064-0.193 0-1.208 0.064-2.328 0.064-0.281 0-0.476-0.021-0.476-0.215 0-0.13 0.129-0.173 0.345-0.173 0.279 0 0.67-0.022 0.973-0.108 0.56-0.173 0.646-0.798 0.666-2.675l0.195-12.767c0-0.432 0.064-0.733 0.279-0.733 0.238 0 0.432 0.28 0.798 0.669 0.259 0.28 3.537 3.795 6.687 6.922 1.467 1.468 4.377 4.573 4.744 4.917h0.107l-0.215-9.683c-0.021-1.315-0.217-1.725-0.732-1.941-0.322-0.13-0.842-0.13-1.145-0.13-0.26 0-0.346-0.063-0.346-0.193 0-0.173 0.238-0.193 0.562-0.193 1.122 0 2.157 0.064 2.61 0.064 0.236 0 1.057-0.064 2.113-0.064 0.278 0 0.496 0.021 0.496 0.193 0 0.13-0.131 0.193-0.39 0.193-0.216 0-0.388 0-0.647 0.065-0.604 0.173-0.774 0.626-0.797 1.833l-0.236 13.608c0 0.476-0.088 0.669-0.281 0.669-0.237 0-0.497-0.237-0.732-0.474-1.357-1.295-4.119-4.12-6.361-6.341-2.353-2.33-4.744-5.025-5.135-5.436h-0.063l0.237 9.06z"/><path d="m241.73 22.979c0-3.278 0-3.883-0.043-4.572-0.043-0.732-0.26-1.1-0.733-1.208-0.236-0.064-0.519-0.086-0.775-0.086-0.216 0-0.347-0.043-0.347-0.216 0-0.129 0.174-0.172 0.52-0.172 0.817 0 2.178 0.063 2.805 0.063 0.537 0 1.811-0.063 2.631-0.063 0.279 0 0.453 0.043 0.453 0.172 0 0.173-0.131 0.216-0.346 0.216-0.216 0-0.389 0.021-0.647 0.064-0.583 0.107-0.754 0.475-0.797 1.229-0.044 0.688-0.044 1.294-0.044 4.572v3.796c0 2.091 0 3.796 0.087 4.723 0.063 0.582 0.215 0.971 0.862 1.058 0.302 0.043 0.775 0.086 1.1 0.086 0.236 0 0.345 0.063 0.345 0.173 0 0.15-0.172 0.216-0.409 0.216-1.424 0-2.781-0.065-3.363-0.065-0.498 0-1.856 0.065-2.719 0.065-0.279 0-0.432-0.065-0.432-0.216 0-0.109 0.087-0.173 0.346-0.173 0.322 0 0.582-0.043 0.776-0.086 0.431-0.087 0.562-0.454 0.625-1.079 0.108-0.905 0.108-2.61 0.108-4.701v-3.796h-0.003z"/><path d="m251.21 18.838c-0.495-1.187-0.86-1.424-1.638-1.639-0.324-0.087-0.67-0.087-0.842-0.087-0.194 0-0.26-0.064-0.26-0.194 0-0.173 0.236-0.194 0.563-0.194 1.144 0 2.371 0.065 3.127 0.065 0.539 0 1.574-0.065 2.65-0.065 0.26 0 0.498 0.043 0.498 0.194s-0.13 0.194-0.324 0.194c-0.345 0-0.67 0.021-0.842 0.15-0.149 0.108-0.214 0.259-0.214 0.453 0 0.281 0.193 0.884 0.495 1.661l3.71 9.791h0.086c0.927-2.373 3.729-9.317 4.249-10.74 0.107-0.28 0.191-0.604 0.191-0.798 0-0.172-0.084-0.345-0.277-0.409-0.261-0.087-0.583-0.108-0.863-0.108-0.195 0-0.367-0.021-0.367-0.173 0-0.173 0.194-0.216 0.604-0.216 1.077 0 1.981 0.065 2.263 0.065 0.369 0 1.383-0.065 2.028-0.065 0.28 0 0.452 0.043 0.452 0.194s-0.129 0.194-0.344 0.194c-0.217 0-0.67 0-1.059 0.259-0.279 0.193-0.604 0.561-1.188 1.94-0.84 2.028-1.422 3.191-2.588 5.845-1.379 3.149-2.394 5.5-2.867 6.579-0.561 1.25-0.689 1.596-0.991 1.596-0.28 0-0.41-0.302-0.819-1.316l-5.433-13.176z"/><path d="m269.92 22.979c0-3.278 0-3.883-0.043-4.572-0.043-0.732-0.216-1.079-0.927-1.229-0.172-0.043-0.541-0.063-0.844-0.063-0.235 0-0.365-0.043-0.365-0.194 0-0.15 0.152-0.193 0.475-0.193 1.145 0 2.502 0.063 3.105 0.063 0.69 0 4.982 0 5.392-0.021 0.41-0.043 0.756-0.087 0.929-0.13 0.107-0.021 0.236-0.086 0.344-0.086s0.131 0.086 0.131 0.193c0 0.151-0.108 0.41-0.172 1.402-0.022 0.215-0.065 1.165-0.108 1.423-0.021 0.108-0.063 0.238-0.215 0.238s-0.194-0.108-0.194-0.302c0-0.151-0.021-0.519-0.131-0.777-0.15-0.387-0.366-0.647-1.443-0.776-0.367-0.043-2.632-0.086-3.063-0.086-0.108 0-0.151 0.065-0.151 0.215v5.457c0 0.151 0.022 0.237 0.151 0.237 0.474 0 2.956 0 3.45-0.043 0.518-0.043 0.841-0.109 1.035-0.323 0.151-0.172 0.238-0.281 0.347-0.281 0.085 0 0.149 0.045 0.149 0.173 0 0.13-0.107 0.475-0.172 1.573-0.043 0.433-0.086 1.295-0.086 1.446 0 0.172 0 0.409-0.193 0.409-0.152 0-0.195-0.085-0.195-0.194-0.021-0.215-0.021-0.495-0.087-0.775-0.107-0.432-0.408-0.754-1.207-0.842-0.409-0.044-2.545-0.063-3.063-0.063-0.105 0-0.129 0.086-0.129 0.215v1.704c0 0.733-0.02 2.716 0 3.342 0.043 1.488 0.389 1.813 2.588 1.813 0.563 0 1.469 0 2.027-0.26 0.563-0.258 0.82-0.711 0.973-1.596 0.041-0.236 0.084-0.323 0.235-0.323 0.173 0 0.173 0.173 0.173 0.388 0 0.497-0.173 1.963-0.279 2.396-0.15 0.561-0.347 0.561-1.164 0.561-3.258 0-4.701-0.13-5.977-0.13-0.495 0-1.854 0.065-2.717 0.065-0.28 0-0.432-0.065-0.432-0.216 0-0.109 0.088-0.173 0.346-0.173 0.324 0 0.583-0.043 0.775-0.086 0.433-0.087 0.539-0.562 0.627-1.187 0.106-0.904 0.106-2.609 0.106-4.594v-3.798h-0.001z"/><path d="m284.73 22.979c0-3.278 0-3.883-0.043-4.572-0.043-0.733-0.215-1.078-0.927-1.229-0.173-0.044-0.54-0.063-0.842-0.063-0.237 0-0.367-0.043-0.367-0.194s0.152-0.194 0.476-0.194c1.144 0 2.502 0.065 2.955 0.065 0.732 0 2.371-0.065 3.039-0.065 1.36 0 2.806 0.129 3.973 0.928 0.604 0.409 1.464 1.51 1.464 2.955 0 1.596-0.669 3.062-2.847 4.831 1.92 2.415 3.406 4.334 4.68 5.672 1.209 1.251 2.094 1.401 2.417 1.467 0.237 0.043 0.43 0.064 0.603 0.064 0.172 0 0.26 0.064 0.26 0.173 0 0.172-0.15 0.216-0.409 0.216h-2.05c-1.207 0-1.746-0.108-2.308-0.41-0.928-0.497-1.745-1.51-2.954-3.17-0.861-1.188-1.854-2.654-2.136-2.978-0.108-0.129-0.237-0.15-0.387-0.15l-1.878-0.043c-0.107 0-0.174 0.043-0.174 0.173v0.302c0 2.005 0 3.71 0.108 4.615 0.065 0.625 0.194 1.099 0.841 1.186 0.323 0.043 0.797 0.087 1.059 0.087 0.171 0 0.258 0.064 0.258 0.173 0 0.15-0.15 0.216-0.43 0.216-1.252 0-2.849-0.065-3.172-0.065-0.41 0-1.77 0.065-2.633 0.065-0.279 0-0.431-0.065-0.431-0.216 0-0.108 0.087-0.173 0.345-0.173 0.324 0 0.583-0.044 0.777-0.087 0.431-0.087 0.539-0.561 0.625-1.186 0.107-0.905 0.107-2.61 0.107-4.594v-3.799h0.001zm2.545 1.703c0 0.238 0.045 0.324 0.195 0.39 0.452 0.15 1.1 0.215 1.641 0.215 0.861 0 1.142-0.087 1.529-0.366 0.646-0.476 1.271-1.467 1.271-3.236 0-3.062-2.026-3.946-3.299-3.946-0.539 0-0.93 0.021-1.145 0.087-0.15 0.043-0.193 0.129-0.193 0.302v6.554h0.001z"/><path d="m301.14 32.771c-0.346-0.152-0.41-0.26-0.41-0.734 0-1.187 0.086-2.48 0.107-2.825 0.021-0.325 0.086-0.561 0.26-0.561 0.193 0 0.217 0.193 0.217 0.367 0 0.28 0.086 0.732 0.193 1.099 0.475 1.597 1.747 2.179 3.082 2.179 1.941 0 2.892-1.315 2.892-2.458 0-1.058-0.323-2.071-2.113-3.451l-0.993-0.775c-2.37-1.855-3.189-3.365-3.189-5.112 0-2.372 1.983-4.076 4.98-4.076 1.401 0 2.308 0.216 2.869 0.367 0.193 0.043 0.302 0.107 0.302 0.258 0 0.281-0.088 0.906-0.088 2.588 0 0.476-0.063 0.648-0.235 0.648-0.151 0-0.215-0.13-0.215-0.389 0-0.194-0.108-0.863-0.563-1.424-0.324-0.409-0.949-1.057-2.352-1.057-1.597 0-2.566 0.928-2.566 2.221 0 0.992 0.498 1.746 2.287 3.106l0.604 0.453c2.589 2.005 3.536 3.451 3.536 5.499 0 1.252-0.475 2.739-2.028 3.753-1.076 0.688-2.283 0.885-3.429 0.885-1.251-0.001-2.223-0.153-3.148-0.561"/><path d="m315.84 22.979c0-3.278 0-3.883-0.044-4.572-0.043-0.732-0.258-1.1-0.732-1.208-0.236-0.064-0.518-0.086-0.775-0.086-0.216 0-0.345-0.043-0.345-0.216 0-0.129 0.172-0.172 0.518-0.172 0.819 0 2.179 0.063 2.803 0.063 0.539 0 1.813-0.063 2.633-0.063 0.279 0 0.452 0.043 0.452 0.172 0 0.173-0.13 0.216-0.346 0.216-0.215 0-0.388 0.021-0.646 0.064-0.583 0.107-0.756 0.475-0.8 1.229-0.043 0.688-0.043 1.294-0.043 4.572v3.796c0 2.091 0 3.796 0.087 4.723 0.063 0.582 0.216 0.971 0.861 1.058 0.303 0.043 0.777 0.086 1.102 0.086 0.235 0 0.345 0.063 0.345 0.173 0 0.15-0.172 0.216-0.41 0.216-1.424 0-2.782-0.065-3.365-0.065-0.494 0-1.854 0.065-2.716 0.065-0.281 0-0.432-0.065-0.432-0.216 0-0.109 0.086-0.173 0.346-0.173 0.323 0 0.581-0.043 0.775-0.086 0.432-0.087 0.561-0.454 0.625-1.079 0.107-0.905 0.107-2.61 0.107-4.701v-3.796z"/><path d="m330.57 17.932-3.213 0.086c-1.251 0.043-1.77 0.151-2.092 0.626-0.217 0.323-0.324 0.582-0.366 0.754-0.044 0.173-0.109 0.26-0.238 0.26-0.15 0-0.193-0.108-0.193-0.346 0-0.345 0.409-2.308 0.452-2.479 0.065-0.28 0.13-0.41 0.26-0.41 0.171 0 0.388 0.216 0.928 0.259 0.625 0.065 1.444 0.108 2.156 0.108h8.54c1.38 0 1.897-0.216 2.07-0.216 0.151 0 0.172 0.13 0.172 0.453 0 0.452-0.063 1.94-0.063 2.502-0.022 0.215-0.066 0.345-0.194 0.345-0.172 0-0.216-0.108-0.238-0.432l-0.021-0.237c-0.044-0.561-0.625-1.164-2.546-1.207l-2.716-0.065v8.842c0 1.984 0 3.689 0.104 4.616 0.065 0.604 0.195 1.077 0.842 1.164 0.305 0.043 0.776 0.087 1.102 0.087 0.236 0 0.346 0.064 0.346 0.172 0 0.151-0.173 0.217-0.41 0.217-1.424 0-2.782-0.065-3.387-0.065-0.496 0-1.854 0.065-2.717 0.065-0.28 0-0.433-0.065-0.433-0.217 0-0.107 0.088-0.172 0.347-0.172 0.322 0 0.582-0.044 0.774-0.087 0.433-0.087 0.562-0.56 0.625-1.185 0.108-0.906 0.108-2.611 0.108-4.596v-8.842h0.001z"/><path d="m348.45 27.442c0-1.165-0.216-1.638-0.496-2.264-0.151-0.347-3.041-5.09-3.795-6.211-0.539-0.799-1.079-1.338-1.489-1.575-0.279-0.151-0.646-0.28-0.905-0.28-0.173 0-0.323-0.043-0.323-0.193 0-0.131 0.15-0.194 0.409-0.194 0.389 0 2.006 0.063 2.718 0.063 0.453 0 1.337-0.063 2.31-0.063 0.214 0 0.324 0.063 0.324 0.194 0 0.129-0.153 0.15-0.478 0.236-0.194 0.043-0.302 0.215-0.302 0.389 0 0.173 0.106 0.431 0.258 0.732 0.304 0.648 3.322 5.845 3.668 6.449 0.216-0.519 2.932-5.263 3.234-5.931 0.216-0.475 0.302-0.842 0.302-1.122 0-0.216-0.086-0.452-0.452-0.539-0.193-0.043-0.389-0.086-0.389-0.215 0-0.151 0.107-0.194 0.367-0.194 0.711 0 1.401 0.063 2.024 0.063 0.478 0 1.899-0.063 2.311-0.063 0.236 0 0.388 0.043 0.388 0.172 0 0.151-0.172 0.216-0.409 0.216-0.217 0-0.626 0.086-0.949 0.258-0.452 0.217-0.689 0.476-1.164 1.059-0.712 0.861-3.731 5.93-4.118 6.857-0.324 0.776-0.324 1.444-0.324 2.156v1.77c0 0.345 0 1.251 0.064 2.156 0.042 0.625 0.236 1.1 0.885 1.186 0.302 0.044 0.775 0.087 1.077 0.087 0.237 0 0.346 0.063 0.346 0.172 0 0.151-0.172 0.217-0.452 0.217-1.358 0-2.718-0.065-3.3-0.065-0.539 0-1.899 0.065-2.697 0.065-0.301 0-0.474-0.045-0.474-0.217 0-0.108 0.106-0.172 0.345-0.172 0.302 0 0.562-0.043 0.755-0.087 0.433-0.086 0.626-0.561 0.668-1.186 0.065-0.905 0.065-1.812 0.065-2.156l-0.002-1.77z"/><path d="m49.708 49.727c0-2.154 0-2.551-0.029-3.004-0.029-0.483-0.17-0.723-0.481-0.793-0.156-0.043-0.34-0.058-0.51-0.058-0.141 0-0.226-0.027-0.226-0.142 0-0.084 0.113-0.113 0.339-0.113 0.539 0 1.431 0.043 1.842 0.043 0.354 0 1.19-0.043 1.728-0.043 0.184 0 0.297 0.029 0.297 0.113 0 0.113-0.085 0.142-0.226 0.142-0.142 0-0.255 0.015-0.425 0.043-0.383 0.069-0.496 0.313-0.525 0.808-0.028 0.453-0.028 0.85-0.028 3.004v2.492c0 1.373 0 2.492 0.057 3.102 0.042 0.383 0.141 0.638 0.566 0.693 0.199 0.028 0.51 0.057 0.722 0.057 0.156 0 0.227 0.043 0.227 0.115 0 0.098-0.113 0.141-0.269 0.141-0.934 0-1.827-0.043-2.209-0.043-0.326 0-1.218 0.043-1.785 0.043-0.184 0-0.283-0.043-0.283-0.141 0-0.072 0.057-0.115 0.227-0.115 0.212 0 0.382-0.027 0.509-0.057 0.283-0.057 0.368-0.297 0.411-0.707 0.071-0.596 0.071-1.715 0.071-3.088v-2.492z"/><path d="m57.625 54.398c0.028 1.104 0.213 1.473 0.496 1.572 0.24 0.084 0.51 0.1 0.736 0.1 0.155 0 0.241 0.027 0.241 0.113 0 0.112-0.128 0.143-0.326 0.143-0.92 0-1.487-0.044-1.756-0.044-0.128 0-0.793 0.044-1.53 0.044-0.185 0-0.311-0.016-0.311-0.143 0-0.086 0.084-0.113 0.226-0.113 0.184 0 0.44-0.016 0.638-0.071 0.368-0.113 0.425-0.524 0.439-1.757l0.127-8.383c0-0.284 0.043-0.482 0.184-0.482 0.156 0 0.284 0.184 0.524 0.439 0.17 0.184 2.323 2.492 4.391 4.547 0.963 0.962 2.875 3.002 3.116 3.229h0.07l-0.141-6.359c-0.014-0.863-0.142-1.133-0.482-1.273-0.212-0.086-0.552-0.086-0.75-0.086-0.17 0-0.227-0.041-0.227-0.126 0-0.114 0.156-0.128 0.369-0.128 0.736 0 1.416 0.043 1.713 0.043 0.156 0 0.694-0.043 1.388-0.043 0.184 0 0.326 0.014 0.326 0.128 0 0.085-0.085 0.126-0.255 0.126-0.142 0-0.255 0-0.425 0.043-0.396 0.114-0.51 0.411-0.524 1.205l-0.156 8.936c0 0.313-0.056 0.439-0.184 0.439-0.156 0-0.325-0.155-0.481-0.313-0.893-0.85-2.706-2.705-4.179-4.164-1.543-1.528-3.115-3.3-3.371-3.568h-0.042l0.156 5.946z"/><path d="m77.821 46.411-2.11 0.058c-0.821 0.027-1.161 0.1-1.374 0.411-0.141 0.212-0.213 0.382-0.241 0.494s-0.071 0.171-0.155 0.171c-0.1 0-0.129-0.07-0.129-0.227 0-0.228 0.27-1.518 0.298-1.631 0.043-0.184 0.086-0.268 0.17-0.268 0.114 0 0.255 0.141 0.61 0.169 0.41 0.042 0.948 0.07 1.416 0.07h5.609c0.453 0 0.764-0.043 0.977-0.07 0.212-0.043 0.325-0.069 0.382-0.069 0.099 0 0.113 0.084 0.113 0.295 0 0.299-0.042 1.276-0.042 1.646-0.015 0.142-0.042 0.228-0.128 0.228-0.113 0-0.141-0.071-0.155-0.285l-0.015-0.154c-0.028-0.367-0.41-0.766-1.671-0.794l-1.785-0.042v5.808c0 1.302 0 2.421 0.071 3.029 0.043 0.397 0.128 0.709 0.553 0.767 0.198 0.028 0.51 0.057 0.722 0.057 0.156 0 0.227 0.042 0.227 0.113 0 0.099-0.114 0.142-0.269 0.142-0.935 0-1.827-0.043-2.224-0.043-0.326 0-1.218 0.043-1.785 0.043-0.184 0-0.283-0.043-0.283-0.142 0-0.071 0.057-0.113 0.227-0.113 0.212 0 0.382-0.027 0.51-0.057 0.283-0.058 0.368-0.369 0.41-0.779 0.071-0.596 0.071-1.715 0.071-3.017v-5.81z"/><path d="m93.98 50.121c0.043 0 0.085-0.027 0.085-0.1v-0.297c0-2.154 0-2.55-0.028-3.002-0.028-0.482-0.142-0.707-0.609-0.809-0.114-0.028-0.354-0.043-0.552-0.043-0.156 0-0.241-0.027-0.241-0.127s0.099-0.128 0.297-0.128c0.765 0 1.657 0.043 2.04 0.043 0.34 0 1.232-0.043 1.784-0.043 0.198 0 0.297 0.028 0.297 0.128s-0.085 0.127-0.254 0.127c-0.113 0-0.241 0.015-0.411 0.043-0.382 0.07-0.496 0.313-0.524 0.809-0.029 0.452-0.029 0.848-0.029 3.002v2.493c0 1.302 0 2.421 0.071 3.029 0.043 0.397 0.128 0.709 0.553 0.767 0.198 0.028 0.509 0.057 0.722 0.057 0.156 0 0.227 0.041 0.227 0.113 0 0.099-0.114 0.142-0.283 0.142-0.921 0-1.813-0.043-2.21-0.043-0.326 0-1.218 0.043-1.77 0.043-0.199 0-0.298-0.043-0.298-0.142 0-0.072 0.057-0.113 0.227-0.113 0.212 0 0.382-0.027 0.51-0.057 0.283-0.058 0.354-0.369 0.41-0.779 0.071-0.596 0.071-1.715 0.071-3.017v-1.247c0-0.058-0.042-0.085-0.085-0.085h-5.41c-0.042 0-0.085 0.015-0.085 0.085v1.247c0 1.302 0 2.421 0.071 3.029 0.043 0.397 0.127 0.709 0.552 0.767 0.199 0.028 0.51 0.057 0.722 0.057 0.156 0 0.227 0.041 0.227 0.113 0 0.099-0.113 0.142-0.283 0.142-0.921 0-1.813-0.043-2.21-0.043-0.325 0-1.218 0.043-1.784 0.043-0.184 0-0.283-0.043-0.283-0.142 0-0.072 0.056-0.113 0.226-0.113 0.213 0 0.382-0.027 0.51-0.057 0.283-0.058 0.354-0.369 0.411-0.779 0.071-0.596 0.071-1.715 0.071-3.017v-2.493c0-2.154 0-2.55-0.029-3.002-0.028-0.482-0.142-0.707-0.609-0.809-0.113-0.028-0.354-0.043-0.552-0.043-0.156 0-0.241-0.027-0.241-0.127s0.1-0.128 0.298-0.128c0.764 0 1.657 0.043 2.039 0.043 0.34 0 1.232-0.043 1.785-0.043 0.198 0 0.297 0.028 0.297 0.128s-0.085 0.127-0.255 0.127c-0.113 0-0.24 0.015-0.411 0.043-0.382 0.07-0.496 0.313-0.523 0.809-0.029 0.452-0.029 0.848-0.029 3.002v0.297c0 0.071 0.043 0.1 0.085 0.1h5.41z"/><path d="m101.2 49.727c0-2.154 0-2.551-0.029-3.004-0.028-0.481-0.141-0.707-0.609-0.808-0.113-0.028-0.353-0.043-0.552-0.043-0.155 0-0.24-0.026-0.24-0.127 0-0.099 0.099-0.128 0.311-0.128 0.75 0 1.643 0.043 2.04 0.043 0.453 0 3.272 0 3.54-0.014 0.269-0.029 0.496-0.058 0.609-0.086 0.071-0.014 0.156-0.056 0.227-0.056 0.07 0 0.085 0.056 0.085 0.126 0 0.1-0.071 0.27-0.114 0.921-0.014 0.142-0.042 0.767-0.07 0.935-0.014 0.072-0.043 0.158-0.142 0.158s-0.127-0.074-0.127-0.201c0-0.098-0.014-0.338-0.085-0.508-0.099-0.256-0.241-0.426-0.949-0.511-0.241-0.028-1.728-0.058-2.011-0.058-0.071 0-0.099 0.043-0.099 0.143v3.584c0 0.1 0.013 0.154 0.099 0.154 0.312 0 1.94 0 2.266-0.027 0.34-0.027 0.552-0.07 0.679-0.213 0.1-0.111 0.156-0.185 0.227-0.185 0.057 0 0.099 0.028 0.099 0.114 0 0.084-0.07 0.311-0.113 1.033-0.029 0.283-0.057 0.85-0.057 0.947 0 0.113 0 0.27-0.127 0.27-0.099 0-0.128-0.056-0.128-0.127-0.014-0.143-0.014-0.326-0.057-0.511-0.07-0.282-0.268-0.495-0.792-0.552-0.271-0.027-1.672-0.043-2.012-0.043-0.071 0-0.084 0.059-0.084 0.143v1.119c0 0.48-0.014 1.784 0 2.194 0.028 0.979 0.255 1.188 1.699 1.188 0.369 0 0.963 0 1.331-0.17 0.369-0.168 0.538-0.467 0.638-1.048 0.027-0.155 0.056-0.212 0.156-0.212 0.113 0 0.113 0.112 0.113 0.255 0 0.325-0.113 1.289-0.184 1.571-0.1 0.368-0.227 0.368-0.765 0.368-2.139 0-3.088-0.085-3.923-0.085-0.326 0-1.219 0.043-1.785 0.043-0.184 0-0.283-0.043-0.283-0.141 0-0.072 0.056-0.115 0.227-0.115 0.212 0 0.382-0.027 0.51-0.057 0.283-0.057 0.353-0.367 0.41-0.779 0.071-0.594 0.071-1.713 0.071-3.016v-2.484z"/><path d="m116.06 54.979c-1.388-1.219-1.757-2.804-1.757-4.178 0-0.962 0.298-2.634 1.657-3.881 1.02-0.936 2.366-1.501 4.476-1.501 0.878 0 1.403 0.056 2.054 0.142 0.538 0.07 0.992 0.197 1.416 0.24 0.156 0.014 0.213 0.085 0.213 0.172 0 0.112-0.043 0.282-0.071 0.777-0.028 0.468-0.014 1.247-0.043 1.53-0.014 0.213-0.042 0.325-0.17 0.325-0.113 0-0.141-0.112-0.141-0.313-0.014-0.439-0.198-0.936-0.553-1.304-0.467-0.494-1.572-0.878-2.875-0.878-1.232 0-2.039 0.313-2.663 0.878-1.033 0.948-1.302 2.295-1.302 3.67 0 3.37 2.563 5.041 4.461 5.041 1.261 0 2.025-0.144 2.592-0.793 0.241-0.271 0.425-0.681 0.481-0.937 0.043-0.226 0.071-0.283 0.185-0.283 0.099 0 0.127 0.101 0.127 0.213 0 0.17-0.17 1.402-0.312 1.886-0.07 0.239-0.127 0.312-0.367 0.409-0.567 0.227-1.644 0.326-2.55 0.326-1.941 0.003-3.57-0.42-4.858-1.541"/><path d="m127.9 49.727c0-2.154 0-2.551-0.029-3.004-0.027-0.481-0.17-0.723-0.481-0.793-0.156-0.043-0.34-0.058-0.511-0.058-0.141 0-0.226-0.026-0.226-0.142 0-0.084 0.114-0.113 0.34-0.113 0.538 0 1.43 0.043 1.842 0.043 0.353 0 1.189-0.043 1.727-0.043 0.185 0 0.298 0.029 0.298 0.113 0 0.113-0.084 0.142-0.227 0.142-0.141 0-0.255 0.015-0.425 0.043-0.382 0.069-0.495 0.313-0.524 0.808-0.028 0.453-0.028 0.85-0.028 3.004v2.492c0 1.373 0 2.492 0.057 3.102 0.042 0.383 0.141 0.638 0.566 0.693 0.197 0.028 0.51 0.057 0.722 0.057 0.156 0 0.227 0.043 0.227 0.115 0 0.098-0.112 0.141-0.269 0.141-0.935 0-1.827-0.043-2.21-0.043-0.326 0-1.218 0.043-1.784 0.043-0.184 0-0.284-0.043-0.284-0.141 0-0.072 0.057-0.115 0.227-0.115 0.212 0 0.383-0.027 0.51-0.057 0.283-0.057 0.368-0.297 0.41-0.707 0.072-0.596 0.072-1.715 0.072-3.088v-2.492z"/><path d="m136.91 46.411-2.111 0.058c-0.82 0.027-1.16 0.1-1.373 0.411-0.142 0.212-0.213 0.382-0.24 0.494-0.028 0.112-0.071 0.171-0.156 0.171-0.1 0-0.127-0.07-0.127-0.227 0-0.228 0.268-1.518 0.297-1.631 0.043-0.184 0.085-0.268 0.17-0.268 0.114 0 0.255 0.141 0.609 0.169 0.41 0.042 0.948 0.07 1.417 0.07h5.607c0.453 0 0.766-0.043 0.978-0.07 0.213-0.043 0.326-0.069 0.383-0.069 0.099 0 0.113 0.084 0.113 0.295 0 0.299-0.043 1.276-0.043 1.646-0.015 0.142-0.043 0.228-0.127 0.228-0.113 0-0.143-0.071-0.156-0.285l-0.015-0.154c-0.027-0.367-0.41-0.766-1.671-0.794l-1.785-0.042v5.808c0 1.302 0 2.421 0.071 3.029 0.043 0.397 0.128 0.709 0.553 0.767 0.198 0.028 0.51 0.057 0.723 0.057 0.156 0 0.226 0.042 0.226 0.113 0 0.099-0.113 0.142-0.269 0.142-0.935 0-1.827-0.043-2.224-0.043-0.325 0-1.218 0.043-1.784 0.043-0.185 0-0.283-0.043-0.283-0.142 0-0.071 0.056-0.113 0.227-0.113 0.212 0 0.382-0.027 0.509-0.057 0.284-0.058 0.368-0.369 0.411-0.779 0.071-0.596 0.071-1.715 0.071-3.017l-0.001-5.81z"/><path d="m147.46 52.657c0-0.765-0.143-1.076-0.326-1.488-0.099-0.226-1.997-3.342-2.492-4.077-0.354-0.525-0.708-0.878-0.978-1.033-0.185-0.102-0.425-0.187-0.594-0.187-0.114 0-0.214-0.026-0.214-0.126 0-0.085 0.1-0.128 0.27-0.128 0.255 0 1.316 0.043 1.785 0.043 0.297 0 0.878-0.043 1.515-0.043 0.142 0 0.212 0.043 0.212 0.128s-0.099 0.1-0.311 0.154c-0.128 0.029-0.199 0.142-0.199 0.256 0 0.113 0.071 0.281 0.171 0.482 0.198 0.424 2.181 3.836 2.407 4.232 0.142-0.34 1.926-3.456 2.124-3.895 0.142-0.313 0.199-0.553 0.199-0.737 0-0.14-0.058-0.298-0.298-0.354-0.128-0.028-0.255-0.057-0.255-0.142 0-0.1 0.071-0.128 0.24-0.128 0.468 0 0.921 0.043 1.332 0.043 0.311 0 1.246-0.043 1.515-0.043 0.156 0 0.255 0.028 0.255 0.112 0 0.101-0.112 0.142-0.269 0.142-0.141 0-0.41 0.058-0.624 0.17-0.297 0.144-0.452 0.313-0.764 0.694-0.467 0.566-2.45 3.896-2.705 4.504-0.213 0.51-0.213 0.949-0.213 1.417v1.159c0 0.229 0 0.822 0.043 1.418 0.027 0.41 0.155 0.723 0.581 0.778 0.197 0.028 0.509 0.056 0.708 0.056 0.155 0 0.226 0.043 0.226 0.115 0 0.099-0.113 0.142-0.297 0.142-0.892 0-1.785-0.043-2.167-0.043-0.354 0-1.247 0.043-1.771 0.043-0.197 0-0.312-0.028-0.312-0.142 0-0.072 0.071-0.115 0.226-0.115 0.199 0 0.369-0.026 0.496-0.056 0.283-0.057 0.411-0.368 0.44-0.778 0.042-0.596 0.042-1.189 0.042-1.418v-1.157h0.002z"/><path d="m159.51 50.973c0-2.422 1.6-5.553 5.849-5.553 3.527 0 5.723 2.055 5.723 5.297 0 3.244-2.266 5.807-5.863 5.807-4.067-0.001-5.709-3.045-5.709-5.551m9.589 0.267c0-3.172-1.827-5.141-4.151-5.141-1.628 0-3.484 0.905-3.484 4.433 0 2.946 1.63 5.282 4.35 5.282 0.99 0 3.285-0.479 3.285-4.574"/><path d="m176.55 52.219c0 1.359 0 2.422 0.071 3.016 0.041 0.412 0.126 0.725 0.553 0.779 0.197 0.029 0.509 0.057 0.706 0.057 0.185 0 0.242 0.043 0.242 0.115 0 0.098-0.099 0.142-0.312 0.142-0.893 0-1.784-0.044-2.153-0.044-0.368 0-1.261 0.044-1.799 0.044-0.198 0-0.297-0.029-0.297-0.142 0-0.072 0.057-0.115 0.213-0.115 0.212 0 0.381-0.026 0.509-0.057 0.284-0.056 0.354-0.367 0.412-0.779 0.07-0.594 0.07-1.655 0.07-3.016v-2.492c0-2.154 0-2.551-0.028-3.004-0.028-0.481-0.143-0.707-0.609-0.808-0.113-0.028-0.354-0.042-0.552-0.042-0.142 0-0.241-0.027-0.241-0.113 0-0.113 0.113-0.142 0.325-0.142 0.736 0 1.629 0.043 2.04 0.043 0.537 0 3.413 0 3.738-0.015 0.27-0.016 0.438-0.016 0.581-0.058 0.085-0.028 0.156-0.085 0.228-0.085 0.057 0 0.099 0.057 0.099 0.127 0 0.1-0.071 0.27-0.114 0.637-0.013 0.145-0.041 0.979-0.07 1.148-0.014 0.111-0.043 0.198-0.142 0.198-0.1 0-0.128-0.071-0.143-0.228 0-0.113 0-0.34-0.084-0.537-0.099-0.199-0.396-0.412-0.936-0.427l-2.18-0.043c-0.085 0-0.128 0.043-0.128 0.2v3.54c0 0.085 0.013 0.127 0.1 0.127l1.812-0.015c0.241 0 0.439 0 0.639-0.015 0.269-0.014 0.467-0.069 0.608-0.255 0.071-0.085 0.1-0.142 0.184-0.142 0.057 0 0.086 0.043 0.086 0.128s-0.072 0.439-0.113 0.878c-0.029 0.282-0.057 0.935-0.057 1.032 0 0.13 0 0.271-0.143 0.271-0.085 0-0.113-0.101-0.113-0.196 0-0.101-0.027-0.271-0.084-0.439-0.071-0.198-0.283-0.453-0.723-0.512-0.354-0.041-1.855-0.041-2.096-0.041-0.071 0-0.1 0.027-0.1 0.127l0.001 1.153z"/><path d="m190.06 54.398c0.029 1.104 0.215 1.473 0.496 1.572 0.241 0.084 0.51 0.1 0.736 0.1 0.157 0 0.24 0.027 0.24 0.113 0 0.112-0.126 0.143-0.324 0.143-0.921 0-1.488-0.044-1.758-0.044-0.127 0-0.793 0.044-1.528 0.044-0.185 0-0.313-0.016-0.313-0.143 0-0.086 0.087-0.113 0.228-0.113 0.185 0 0.44-0.016 0.638-0.071 0.367-0.113 0.426-0.524 0.439-1.757l0.127-8.383c0-0.284 0.042-0.482 0.186-0.482 0.154 0 0.283 0.184 0.523 0.439 0.169 0.184 2.323 2.492 4.391 4.547 0.963 0.962 2.873 3.002 3.114 3.229h0.07l-0.142-6.359c-0.015-0.863-0.141-1.133-0.479-1.273-0.214-0.086-0.554-0.086-0.751-0.086-0.171 0-0.227-0.041-0.227-0.126 0-0.114 0.155-0.128 0.367-0.128 0.736 0 1.416 0.043 1.713 0.043 0.155 0 0.694-0.043 1.39-0.043 0.184 0 0.325 0.014 0.325 0.128 0 0.085-0.084 0.126-0.256 0.126-0.142 0-0.256 0-0.425 0.043-0.396 0.114-0.509 0.411-0.522 1.205l-0.156 8.936c0 0.313-0.057 0.439-0.184 0.439-0.156 0-0.326-0.155-0.481-0.313-0.892-0.85-2.705-2.705-4.179-4.164-1.545-1.528-3.115-3.3-3.37-3.568h-0.043l0.155 5.946z"/><path d="m203.4 49.727c0-2.154 0-2.551-0.029-3.004-0.027-0.481-0.141-0.707-0.607-0.808-0.113-0.028-0.354-0.043-0.553-0.043-0.154 0-0.24-0.026-0.24-0.127 0-0.099 0.1-0.128 0.312-0.128 0.751 0 1.644 0.043 2.038 0.043 0.455 0 3.273 0 3.543-0.014 0.269-0.029 0.494-0.058 0.607-0.086 0.072-0.014 0.157-0.056 0.228-0.056 0.069 0 0.085 0.056 0.085 0.126 0 0.1-0.069 0.27-0.112 0.921-0.016 0.142-0.042 0.767-0.071 0.935-0.015 0.072-0.043 0.158-0.142 0.158-0.101 0-0.129-0.074-0.129-0.201 0-0.098-0.015-0.338-0.084-0.508-0.101-0.256-0.24-0.426-0.949-0.511-0.239-0.028-1.727-0.058-2.011-0.058-0.07 0-0.102 0.043-0.102 0.143v3.584c0 0.1 0.017 0.154 0.102 0.154 0.311 0 1.939 0 2.268-0.027 0.338-0.027 0.551-0.07 0.68-0.213 0.098-0.111 0.154-0.185 0.227-0.185 0.057 0 0.1 0.028 0.1 0.114 0 0.084-0.072 0.311-0.113 1.033-0.028 0.283-0.057 0.85-0.057 0.947 0 0.113 0 0.27-0.127 0.27-0.102 0-0.129-0.056-0.129-0.127-0.015-0.143-0.015-0.326-0.057-0.511-0.07-0.282-0.27-0.495-0.793-0.552-0.27-0.027-1.671-0.043-2.012-0.043-0.07 0-0.086 0.059-0.086 0.143v1.119c0 0.48-0.014 1.784 0 2.194 0.029 0.979 0.256 1.188 1.701 1.188 0.367 0 0.963 0 1.33-0.17 0.368-0.168 0.538-0.467 0.637-1.048 0.028-0.155 0.057-0.212 0.158-0.212 0.112 0 0.112 0.112 0.112 0.255 0 0.325-0.112 1.289-0.187 1.571-0.099 0.368-0.225 0.368-0.764 0.368-2.14 0-3.089-0.085-3.924-0.085-0.324 0-1.218 0.043-1.783 0.043-0.186 0-0.283-0.043-0.283-0.141 0-0.072 0.057-0.115 0.227-0.115 0.212 0 0.383-0.027 0.51-0.057 0.282-0.057 0.354-0.367 0.409-0.779 0.071-0.594 0.071-1.713 0.071-3.016v-2.484h-0.001z"/><path d="m211.82 47.006c-0.17-0.523-0.324-0.863-0.524-1.006-0.153-0.1-0.438-0.128-0.565-0.128-0.142 0-0.228-0.013-0.228-0.126 0-0.1 0.114-0.128 0.313-0.128 0.735 0 1.516 0.043 1.644 0.043 0.127 0 0.75-0.043 1.571-0.043 0.197 0 0.298 0.043 0.298 0.128 0 0.113-0.113 0.126-0.255 0.126-0.113 0-0.254 0-0.354 0.058-0.127 0.057-0.155 0.155-0.155 0.313 0 0.184 0.142 0.666 0.312 1.303 0.242 0.936 1.56 5.227 1.813 6.02h0.041l2.748-7.379c0.156-0.396 0.241-0.51 0.355-0.51 0.154 0 0.227 0.213 0.409 0.665l2.944 7.124h0.043c0.256-0.949 1.391-4.688 1.885-6.344 0.1-0.326 0.142-0.624 0.142-0.823 0-0.225-0.127-0.425-0.679-0.425-0.143 0-0.24-0.041-0.24-0.126 0-0.101 0.111-0.128 0.325-0.128 0.75 0 1.345 0.043 1.472 0.043 0.1 0 0.709-0.043 1.176-0.043 0.156 0 0.256 0.027 0.256 0.111 0 0.102-0.07 0.143-0.197 0.143-0.145 0-0.34 0.016-0.495 0.072-0.341 0.128-0.495 0.693-0.794 1.5-0.652 1.785-2.141 6.289-2.833 8.412-0.157 0.496-0.228 0.666-0.411 0.666-0.141 0-0.225-0.17-0.438-0.692l-2.946-7.097h-0.028c-0.268 0.723-2.152 5.736-2.761 7.039-0.271 0.58-0.341 0.75-0.513 0.75-0.141 0-0.211-0.154-0.322-0.523l-3.009-8.995z"/><path d="m235.72 52.657c0-0.765-0.143-1.076-0.326-1.488-0.101-0.226-1.998-3.342-2.491-4.077-0.354-0.525-0.708-0.878-0.978-1.033-0.186-0.102-0.426-0.187-0.597-0.187-0.112 0-0.212-0.026-0.212-0.126 0-0.085 0.1-0.128 0.27-0.128 0.254 0 1.318 0.043 1.784 0.043 0.298 0 0.88-0.043 1.517-0.043 0.142 0 0.211 0.043 0.211 0.128s-0.098 0.1-0.312 0.154c-0.128 0.029-0.198 0.142-0.198 0.256 0 0.113 0.07 0.281 0.17 0.482 0.198 0.424 2.184 3.836 2.408 4.232 0.141-0.34 1.926-3.456 2.123-3.895 0.143-0.313 0.2-0.553 0.2-0.737 0-0.14-0.06-0.298-0.298-0.354-0.128-0.028-0.256-0.057-0.256-0.142 0-0.1 0.07-0.128 0.24-0.128 0.47 0 0.92 0.043 1.332 0.043 0.313 0 1.246-0.043 1.517-0.043 0.153 0 0.254 0.028 0.254 0.112 0 0.101-0.113 0.142-0.269 0.142-0.143 0-0.412 0.058-0.625 0.17-0.297 0.144-0.451 0.313-0.765 0.694-0.467 0.566-2.448 3.896-2.704 4.504-0.214 0.51-0.214 0.949-0.214 1.417v1.159c0 0.229 0 0.822 0.043 1.418 0.029 0.41 0.157 0.723 0.581 0.778 0.198 0.028 0.51 0.056 0.708 0.056 0.156 0 0.228 0.043 0.228 0.115 0 0.099-0.113 0.142-0.297 0.142-0.895 0-1.785-0.043-2.168-0.043-0.354 0-1.246 0.043-1.771 0.043-0.198 0-0.313-0.028-0.313-0.142 0-0.072 0.071-0.115 0.229-0.115 0.197 0 0.367-0.026 0.496-0.056 0.283-0.057 0.408-0.368 0.438-0.778 0.043-0.596 0.043-1.189 0.043-1.418v-1.157h0.002z"/><path d="m242.52 50.973c0-2.422 1.602-5.553 5.849-5.553 3.528 0 5.722 2.055 5.722 5.297 0 3.244-2.265 5.807-5.861 5.807-4.067-0.001-5.71-3.045-5.71-5.551m9.589 0.267c0-3.172-1.827-5.141-4.15-5.141-1.629 0-3.485 0.905-3.485 4.433 0 2.946 1.631 5.282 4.351 5.282 0.988 0 3.284-0.479 3.284-4.574"/><path d="m257.78 49.727c0-2.153 0-2.551-0.028-3.004-0.028-0.481-0.144-0.705-0.61-0.808-0.112-0.026-0.353-0.043-0.553-0.043-0.154 0-0.238-0.026-0.238-0.126s0.098-0.128 0.312-0.128c0.75 0 1.642 0.043 1.938 0.043 0.481 0 1.56-0.043 1.998-0.043 0.893 0 1.84 0.085 2.605 0.608 0.396 0.27 0.962 0.992 0.962 1.939 0 1.049-0.438 2.014-1.869 3.174 1.261 1.586 2.238 2.848 3.074 3.725 0.792 0.82 1.374 0.92 1.587 0.963 0.154 0.029 0.282 0.041 0.396 0.041 0.113 0 0.168 0.043 0.168 0.115 0 0.112-0.098 0.142-0.269 0.142h-1.345c-0.793 0-1.146-0.07-1.518-0.269-0.606-0.326-1.146-0.992-1.938-2.082-0.567-0.779-1.22-1.742-1.401-1.955-0.07-0.084-0.156-0.102-0.256-0.102l-1.23-0.025c-0.07 0-0.113 0.025-0.113 0.112v0.198c0 1.316 0 2.436 0.068 3.029 0.045 0.412 0.129 0.724 0.554 0.779 0.213 0.028 0.524 0.057 0.692 0.057 0.114 0 0.172 0.043 0.172 0.115 0 0.098-0.102 0.141-0.283 0.141-0.821 0-1.869-0.043-2.081-0.043-0.271 0-1.162 0.043-1.729 0.043-0.184 0-0.283-0.043-0.283-0.141 0-0.072 0.058-0.115 0.229-0.115 0.21 0 0.381-0.027 0.509-0.057 0.284-0.057 0.354-0.367 0.411-0.779 0.071-0.594 0.071-1.713 0.071-3.016l-0.002-2.488zm1.671 1.118c0 0.155 0.026 0.212 0.127 0.255 0.297 0.1 0.724 0.142 1.076 0.142 0.565 0 0.753-0.056 1.007-0.24 0.424-0.313 0.834-0.963 0.834-2.125 0-2.011-1.331-2.592-2.167-2.592-0.354 0-0.608 0.015-0.75 0.058-0.101 0.027-0.127 0.085-0.127 0.198v4.304z"/><path d="m270.92 50.35h0.073c0.479-0.524 2.547-2.637 2.959-3.117 0.396-0.467 0.708-0.82 0.708-1.063 0-0.154-0.058-0.255-0.199-0.283-0.128-0.027-0.184-0.056-0.184-0.141 0-0.1 0.069-0.128 0.227-0.128 0.298 0 1.076 0.043 1.459 0.043 0.439 0 1.218-0.043 1.656-0.043 0.144 0 0.241 0.028 0.241 0.128 0 0.099-0.07 0.126-0.213 0.126-0.197 0-0.553 0.058-0.82 0.155-0.439 0.172-0.921 0.469-1.53 1.063-0.438 0.425-2.577 2.55-3.059 3.062 0.508 0.664 3.284 3.65 3.839 4.177 0.622 0.595 1.26 1.231 2.023 1.53 0.426 0.17 0.709 0.211 0.877 0.211 0.101 0 0.186 0.029 0.186 0.115 0 0.098-0.07 0.141-0.339 0.141h-1.233c-0.425 0-0.679 0-0.977-0.028-0.766-0.069-1.146-0.383-1.756-0.921-0.623-0.552-3.413-3.824-3.711-4.232l-0.154-0.215h-0.073v1.29c0 1.304 0 2.421 0.043 3.03 0.03 0.396 0.155 0.709 0.509 0.766 0.198 0.028 0.513 0.057 0.695 0.057 0.114 0 0.184 0.043 0.184 0.113 0 0.099-0.111 0.142-0.269 0.142-0.793 0-1.687-0.043-2.039-0.043-0.325 0-1.218 0.043-1.784 0.043-0.185 0-0.283-0.043-0.283-0.142 0-0.07 0.057-0.113 0.227-0.113 0.213 0 0.382-0.027 0.509-0.057 0.284-0.057 0.354-0.369 0.412-0.779 0.071-0.596 0.071-1.713 0.071-3.017v-2.493c0-2.152 0-2.551-0.028-3.004-0.028-0.48-0.144-0.705-0.61-0.807-0.11-0.027-0.354-0.043-0.552-0.043-0.155 0-0.239-0.027-0.239-0.126s0.099-0.128 0.312-0.128c0.751 0 1.644 0.043 1.981 0.043 0.34 0 1.232-0.043 1.715-0.043 0.197 0 0.297 0.029 0.297 0.128s-0.084 0.126-0.199 0.126c-0.141 0-0.227 0.016-0.396 0.043-0.381 0.07-0.494 0.313-0.521 0.807-0.03 0.453-0.03 0.852-0.03 3.004v0.623h-0.005z"/><path d="m36.743 15.984c-0.353-2.052-2.011-3.48-4.04-3.644-3.625-0.292-6.754 1.647-10.271 2.269-0.282 0.049-0.66-0.55-1.001-0.892 1.631-1.229 1.409-3.639-0.48-4.68-0.13-0.149-0.083-1.537-0.008-1.6 0.154-0.128 1.359 0.104 1.53-0.046 0.171-0.147 0.137-1.592 0.027-1.731-0.109-0.139-1.467 0.01-1.544-0.083-0.076-0.094 0.038-1.394-0.09-1.496-0.091-0.073-0.468-0.081-0.677-0.079-0.21-0.002-0.587 0.006-0.678 0.079-0.128 0.103-0.014 1.402-0.09 1.496-0.077 0.093-1.434-0.056-1.544 0.083-0.109 0.139-0.143 1.584 0.028 1.732 0.171 0.149 1.375-0.082 1.529 0.046 0.074 0.063 0.122 1.45-0.008 1.6-1.889 1.041-2.11 3.45-0.479 4.68-0.342 0.342-0.72 0.94-1.002 0.892-3.516-0.621-6.645-2.561-10.27-2.269-2.029 0.163-3.687 1.592-4.04 3.644-0.635 3.695 2.02 6.535 3.308 9.671 0.408 0.99 0.766 2.321 0.701 3.466 0 0 10.527 0 12.402 0.001h0.143 0.143c1.875-0.001 12.401-0.001 12.401-0.001-0.064-1.145 0.294-2.476 0.702-3.466 1.288-3.136 3.943-5.976 3.308-9.672m-18.054 8.182c-0.326 1.855-1.357 3.033-2.214 3.04-0.562 0.003-1.014-0.211-1.423-0.57-0.565-0.494-1.026-1.307-0.878-1.787 0.125-0.162 1.646 0.07 1.754-0.081 0.109-0.15-0.185-1.336-0.357-1.49-0.171-0.151-1.545 0.053-1.729-0.098-0.183-0.151-0.354-1.619-0.542-1.709 0 0-1.453-0.217-1.558-0.011-0.106 0.209 0.49 1.435 0.388 1.643-0.102 0.209-2.025-0.183-2.059 0.033-0.034 0.217 0.11 1.296 0.295 1.456 0.184 0.16 1.98 0.171 1.98 0.171 0.373 0.284 0.471 0.863 0.473 1.455 0.003 0.752-0.582 1.14-1.514 0.879-1.738-0.487-3.893-4.257-5.172-6.867-0.94-1.919-1.507-5.059 0.961-6 1.503-0.574 3.081-0.249 4.7 0.231 1.695 0.504 3.931 1.185 5.249 2.004 0.323 0.2-0.385 0.04 0.784 2.631 0.544 1.206 1.089 3.775 0.862 5.07m10.384 2.931c-0.932 0.261-1.517-0.127-1.514-0.879 0.002-0.592 0.099-1.171 0.473-1.455 0 0 1.796-0.011 1.98-0.171s0.328-1.239 0.295-1.456c-0.034-0.216-1.958 0.176-2.059-0.033-0.102-0.208 0.494-1.434 0.388-1.643-0.107-0.206-1.558 0.011-1.558 0.011-0.188 0.09-0.359 1.558-0.543 1.709-0.184 0.15-1.557-0.054-1.728 0.098-0.173 0.154-0.465 1.34-0.358 1.49 0.108 0.151 1.629-0.081 1.755 0.081 0.147 0.48-0.313 1.293-0.878 1.787-0.41 0.359-0.861 0.573-1.423 0.57-0.858-0.007-1.888-1.185-2.214-3.04-0.228-1.295 0.318-3.864 0.861-5.07 1.17-2.591 0.461-2.431 0.784-2.631 1.319-0.819 3.555-1.5 5.25-2.004 1.618-0.48 3.196-0.806 4.701-0.231 2.467 0.941 1.899 4.081 0.959 6-1.278 2.61-3.433 6.379-5.171 6.867"/><polygon points="33.016 33.018 33.016 30.839 20.332 30.839 20.046 30.839 7.362 30.839 7.362 33.018 20.046 33.018 20.332 33.018"/></g></svg>