<svg xmlns="http://www.w3.org/2000/svg" width="247" height="78.865" viewBox="0 0 247 78.865">
 <g transform="matrix(1.3333 0 0 -1.3333 -197.8 153.27)">
  <g transform="matrix(.4204 0 0 .4204 139.98 49.182)">
   <path d="m21.681 154.7v-3.4292c8.017-0.857 12.792-3.085 24.39-14.395l4.4341-4.2847v-30.687h3.9229v27.431l109.84-104.03h3.4102v92.886c0 20.908 6.9935 27.764 20.979 33.076v3.4292h-45.88v-3.4292c13.985-5.312 20.978-12.168 20.978-33.076v-61.352l-97.047 93.229c-4.434 4.114-5.6269 4.6289-8.5269 4.6289zm28.79-94.359c-0.514-19.095-7.4924-25.638-20.944-30.747v-3.4277h45.879v3.4277c-13.451 5.109-20.429 11.652-20.943 30.747z" fill="#c8102e"/>
   <path d="m301.75 109.81-1.5806-3e-3 -6.8701-4.4985 1e-3 -0.94043 3.1186 7e-3 0.0425-23.884c4e-3 -2.35-0.3785-2.9494-2.8125-3.2944l1e-3 -1.3242 10.979 0.01904-1e-3 1.3242c-2.435 0.337-2.8207 0.93565-2.8257 3.2856l-0.0176 9.9111c2.047 1.884 3.6259 2.8266 5.4199 2.8286 2.094 4e-3 2.6942-1.0619 2.6982-2.9839l0.0161-9.7427c4e-3 -2.35-0.37997-2.9474-2.814-3.2944l4e-3 -1.3242 10.978 0.01904-3e-3 1.3242c-2.435 0.337-2.8202 0.93565-2.8242 3.2856l-0.0176 10.211c-7e-3 3.418-1.4628 5.8513-5.7788 5.8433-2.606-4e-3 -5.1671-1.5475-7.6831-3.6885zm-68.864-2.0024-10.339-0.0176 3e-3 -1.3242c2.436-0.68 3.8479-1.9586 3.8569-6.9565l0.0264-15.041-21.828 21.965c-1.198 1.194-1.6685 1.3218-2.4375 1.3198l-8.0742-0.0132 3e-3 -1.3257c1.751-0.167 2.7776-0.84809 4.7886-2.7671 0.642-0.597 1.2421-1.3225 1.2451-2.5195l0.0293-17.133c9e-3 -4.999-1.3995-6.2827-3.8335-6.9697l3e-3 -1.3257 10.339 0.01758-3e-3 1.3242c-2.436 0.68-3.8469 1.959-3.8569 6.958l-0.0278 16.15 24.567-24.608 1.7505 0.0029-0.0425 23.968c-9e-3 4.999 1.3985 6.2832 3.8335 6.9712zm156.04-7.541-0.76904-3e-3 -7.6816-5.0552 1e-3 -1.3667 3.1201 0.0044 0.0249-13.97c4e-3 -2.777 1.5876-4.2687 4.7065-4.2627 2.435 4e-3 4.8255 0.82033 6.8745 2.3613l-0.64307 1.3652c-1.152-0.514-2.1792-0.77144-3.0762-0.77344-2.008-3e-3 -2.5219 1.0212-2.5239 2.4302l-0.022 12.86 5.4258 0.01025-6e-3 2.4346-5.4258-0.0088zm-102.83-0.1831-0.76758-1e-3 -7.6816-5.0537 3e-3 -1.3682 3.1186 0.0059 0.0249-13.972c4e-3 -2.778 1.5866-4.2692 4.7065-4.2642 2.435 5e-3 4.8265 0.81933 6.8745 2.3613l-0.64453 1.3667c-1.152-0.515-2.1762-0.7729-3.0732-0.7749-2.008-4e-3 -2.5238 1.0216-2.5268 2.4316l-0.022 12.86 5.4272 0.01025-4e-3 2.4346-5.4258-0.0088zm-230.67-2.2383c-0.275-2e-3 -0.41201-0.0024-0.68701-0.0044-0.357-3e-3 -0.50749-0.11461-0.62549-0.47461-0.586-1.736-0.88554-2.6033-1.4985-4.3403-0.626 1.728-0.9313 2.5914-1.5293 4.3184-0.121 0.359-0.27142 0.46636-0.62842 0.46436-0.313-3e-3 -0.46923-0.0039-0.78223-0.0059-0.245-2e-3 -0.39862-0.22122-0.30762-0.47022 0.856-2.432 1.2989-3.6486 2.2119-6.0806 0.136-0.358 0.29111-0.46736 0.66211-0.46436 0.258 2e-3 0.38653 0.0034 0.64453 0.0044 0.371 3e-3 0.52664 0.11361 0.66064 0.47461 0.904 2.445 1.3409 3.6663 2.1899 6.1113 0.088 0.25-0.06555 0.46928-0.31055 0.46728zm2.4097-0.06006c-0.206 0.01-0.33412-0.21223-0.22412-0.40723 0.689-1.204 1.0395-1.8058 1.7505-3.0088-0.81-1.249-1.2211-1.874-2.0581-3.123-0.121-0.183-0.0011-0.4182 0.21387-0.4292 0.359-0.017 0.53895-0.02448 0.89795-0.04248 0.4-0.019 0.53954 0.05358 0.74854 0.39258 0.499 0.794 0.7454 1.1909 1.2334 1.9849 0.477-0.841 0.71664-1.2625 1.2026-2.1035 0.204-0.358 0.34168-0.44436 0.74268-0.46436 0.391-0.018 0.58605-0.02788 0.97705-0.04687 0.215-0.01 0.34166 0.21369 0.22266 0.40869-0.822 1.327-1.227 1.9894-2.0229 3.3164 0.73 1.132 1.0898 1.6981 1.7988 2.8301 0.111 0.184-0.01319 0.41966-0.22119 0.43066-0.351 0.017-0.52791 0.02594-0.87891 0.04394-0.386 0.019-0.51731-0.05404-0.71631-0.39404-0.4-0.673-0.60274-1.0101-1.0107-1.6831-0.404 0.714-0.60495 1.0702-1.002 1.7842-0.195 0.357-0.32491 0.44536-0.71191 0.46436-0.377 0.019-0.5649 0.02787-0.9419 0.04687zm-12.727-0.21387c-0.272-0.014-0.40769-0.02308-0.67969-0.03808-0.311-0.017-0.47214-0.19395-0.47314-0.52295-4e-3 -2.391-0.0045-3.5875-0.0015-5.9795 0-0.329 0.16626-0.49014 0.48926-0.47314 1.392 0.074 2.088 0.10957 3.479 0.18457 0.322 0.016 0.48454 0.19395 0.47754 0.52295-6e-3 0.219-0.0082 0.32885-0.01318 0.54785-8e-3 0.329-0.17612 0.49061-0.49512 0.47461-0.907-0.049-1.361-0.07358-2.269-0.12158-0.018 1.973-0.02509 2.9591-0.03809 4.9321-3e-3 0.329-0.16408 0.49014-0.47607 0.47314zm397.23-0.4585-1.9644-0.0029-6.1875-4.0693 1e-3 -0.94043 2.9473 0.0044 0.0205-11.364c4e-3 -2.351-0.37897-2.9494-2.814-3.2944l1e-3 -1.3242 10.98 0.01758-1e-3 1.3257c-2.436 0.337-2.8217 0.93518-2.8257 3.2842l-0.0176 9.8701c2.133 1.927 3.8834 2.8696 5.4214 2.8726 2.093 3e-3 2.6923-1.0638 2.6953-2.9868l0.0176-9.7412c4e-3 -2.35-0.37897-2.9474-2.814-3.2944l3e-3 -1.3242 10.979 0.01904-1e-3 1.3242c-2.437 0.337-2.8207 0.93465-2.8257 3.2856l-0.0176 10.211c-6e-3 3.418-1.4638 5.8498-5.7788 5.8418-2.649-5e-3 -5.252-1.6329-7.812-3.8159zm-17.429-0.03076-1.8794-0.0029-6.189-4.0708 1e-3 -0.93896 2.9487 0.0059 0.0205-11.366c4e-3 -2.349-0.37997-2.9489-2.814-3.2959l3e-3 -1.3242 11.32 0.02197-3e-3 1.3242c-2.777 0.422-3.162 1.018-3.167 3.668l-0.0161 8.8008c0.853 1.54 1.6621 2.6519 2.5151 3.4219 3e-3 -1.666 1.1584-2.731 2.6104-2.729 1.452 3e-3 2.8604 1.1589 2.8564 3.3809-3e-3 1.88-1.0727 3.0318-2.9517 3.0278-2.094-4e-3 -3.7145-1.7583-5.2485-4.2393zm-156.88-0.27686-1.8794-0.0029-6.1875-4.0708 1e-3 -0.93896 2.9487 0.0044 0.0191-11.366c4e-3 -2.35-0.37997-2.9474-2.814-3.2944l3e-3 -1.3242 11.322 0.01904-3e-3 1.3257c-2.778 0.421-3.163 1.019-3.167 3.668l-0.0161 8.8022c0.852 1.54 1.6611 2.6509 2.5151 3.4219 3e-3 -1.666 1.1569-2.731 2.6089-2.729 1.453 3e-3 2.8619 1.1589 2.8579 3.3809-3e-3 1.879-1.0731 3.0308-2.9531 3.0278-2.093-4e-3 -3.7141-1.7583-5.2471-4.2393zm138.85-0.0542c-5.938-0.01-10.287-4.8027-10.276-10.742 0.01-5.895 3.7769-10.376 10.399-10.364 4.059 7e-3 6.4914 1.8051 7.9394 4.2861l-1.1543 0.89502c-1.152-1.327-2.9022-2.2265-4.9102-2.2295-3.93-7e-3 -6.158 2.9787-6.977 6.8657l12.81 4.2949c-0.264 4.529-3.6011 7.0012-7.8311 6.9932zm-36.271-0.06445c-4.528-8e-3 -7.4718-2.6183-7.4648-6.5493 8e-3 -3.974 3.2985-5.1211 6.3765-6.1421 3.035-1.019 5.1303-1.6149 5.1343-3.8789 2e-3 -1.41-1.0643-2.4789-3.1143-2.4829-2.863-5e-3 -5.0452 1.8707-7.6582 5.1987l-1.1514-0.4292 1.6772-6.6621 0.72656 0.0015 1.2378 0.89941c1.411-0.682 2.9912-1.0635 4.7432-1.0605 4.357 8e-3 7.9421 2.5772 7.9351 6.7222-7e-3 3.974-3.2999 5.2066-6.3779 6.1846-3.035 0.977-5.1288 1.6144-5.1328 3.8364-2e-3 1.196 0.89351 2.3085 2.6455 2.3115 2.179 3e-3 4.1036-1.3169 6.4146-3.9199l1.1104 0.51562-1.6318 5.2939h-0.68408l-0.76758-0.64307c-1.198 0.51-2.5651 0.8072-4.0181 0.8042zm-19.566-0.03369c-5.426-0.01-9.3946-2.9222-9.3896-5.6572 2e-3 -1.324 0.90096-2.4332 2.439-2.4302 1.751 3e-3 2.6044 1.1575 2.8594 2.3115 0.254 1.325-0.17685 2.3073-0.81885 2.8623 1.068 0.514 2.1351 0.77244 3.2461 0.77344 1.837 3e-3 2.7363-0.63527 2.7393-2.3013l7e-3 -4.2729c-7.644-1.894-11.144-3.5665-11.137-7.6245 6e-3 -3.119 2.0162-4.7809 5.1782-4.7769 2.007 4e-3 4.3124 0.86328 6.2754 2.4053 0.301-1.41 1.286-2.2208 3.123-2.2178 1.837 4e-3 3.8001 0.86074 5.0801 1.7607l-0.38672 1.1968c-2.092-0.389-2.8618-0.09164-2.8638 1.3184l-0.0205 11.408c-6e-3 3.417-1.5041 5.2521-6.331 5.2441zm-20.464-0.03662c-5.939-0.011-10.287-4.8027-10.277-10.742 0.01-5.896 3.7784-10.377 10.4-10.365 4.058 8e-3 6.49 1.8076 7.938 4.2876l-1.1543 0.89502c-1.151-1.326-2.9007-2.227-4.9087-2.231-3.931-7e-3 -6.159 2.9812-6.977 6.8672l12.81 4.2949c-0.264 4.529-3.6021 7.0002-7.831 6.9932zm-84.292-0.14941c-6.922-0.012-11.058-5.0186-11.048-10.83 0.011-5.597 3.7792-10.289 10.658-10.276 6.921 0.011 11.055 5.0171 11.045 10.828-0.01 5.596-3.7773 10.289-10.655 10.277zm159.53-1.9395c1.965 3e-3 3.2071-1.4047 3.7251-4.1807l-7.9424-2.748c-0.043 0.47-0.0444 0.93964-0.0454 1.4106-6e-3 3.461 1.4427 5.5131 4.2627 5.5181zm-76.302-0.13477c1.965 3e-3 3.2071-1.4037 3.7251-4.1807l-7.9424-2.748c-0.043 0.47-0.0439 0.94018-0.0439 1.4092-6e-3 3.461 1.4422 5.5145 4.2612 5.5195zm-83.779-0.01904c4.528 8e-3 5.8626-5.5464 5.8726-10.63 7e-3 -3.844-1.6552-6.2816-5.1592-6.2886-4.529-7e-3 -5.8636 5.5439-5.8726 10.629-6e-3 3.846 1.6552 6.284 5.1592 6.29zm106.39-8.3569 0.0117-6.1963c-1.194-0.942-2.263-1.3706-3.331-1.3726-1.666-3e-3 -2.6503 0.89282-2.6543 2.9868-4e-3 2.179 0.97764 3.206 5.9736 4.582zm-297.78-0.77345c-0.323 2e-3 -0.48972-0.16612-0.49072-0.49512-0.01-2.394-0.01537-3.5914-0.02637-5.9854-2e-3 -0.329 0.17091-0.50091 0.50391-0.50391 0.295-2e-3 0.44228-0.0024 0.73828-0.0044 0.334-3e-3 0.50491 0.16612 0.50391 0.49512-9e-3 2.395-0.01344 3.5918-0.02344 5.9868-1e-3 0.329-0.16872 0.49898-0.49072 0.50098zm4.0884-0.05713c-0.322 0.016-0.49398-0.14661-0.50098-0.47461-5e-3 -0.22-0.0072-0.32932-0.01318-0.54932-7e-3 -0.328 0.1574-0.50548 0.4834-0.52148 0.623-0.028 0.93413-0.04278 1.5571-0.07178-0.026-1.974-0.03931-2.9606-0.07031-4.9336-5e-3 -0.329 0.16405-0.50548 0.49805-0.52148 0.295-0.014 0.44375-0.01923 0.73975-0.03223 0.335-0.016 0.50777 0.14561 0.50977 0.47461 0.015 1.973 0.02076 2.9591 0.03076 4.9321 0.624-0.028 0.93652-0.04231 1.5615-0.07031 0.326-0.016 0.49319 0.14414 0.49219 0.47314-2e-3 0.22-0.0019 0.32885-0.0029 0.54785-2e-3 0.329-0.17112 0.50795-0.49512 0.52295-1.918 0.09-2.876 0.13412-4.79 0.22412zm-9.8232-0.01758c-0.909-0.03-1.3634-0.04424-2.2734-0.07324-0.323-0.011-0.49019-0.18762-0.49219-0.51562-0.011-2.395-0.01644-3.5918-0.02344-5.9868-1e-3 -0.329 0.17184-0.49293 0.50684-0.48193 0.292 8e-3 0.43603 0.01297 0.72803 0.02197 0.335 0.012 0.50637 0.18663 0.50537 0.51562-5e-3 0.853-0.0077 1.2817-0.01172 2.1357l0.78076 0.0249c0.443-0.861 0.66761-1.2909 1.1206-2.1519 0.187-0.352 0.33035-0.4378 0.73535-0.4248l0.89062 0.0293c0.243 8e-3 0.37967 0.24078 0.26367 0.44678-0.565 1.005-0.844 1.5067-1.396 2.5107 0.734 0.363 1.1464 1.0255 1.1294 1.8545-0.028 1.297-0.98487 2.1437-2.4639 2.0947zm-6.1611-0.30468c-1.57-0.133-2.3552-0.19806-3.9302-0.33106-0.325-0.027-0.49126-0.2096-0.48926-0.5376 0.019-2.387 0.03106-3.5793 0.06006-5.9663 4e-3 -0.328 0.18062-0.48257 0.51562-0.45557 1.628 0.133 2.439 0.19906 4.062 0.33106 0.334 0.028 0.50126 0.21106 0.48926 0.53906-7e-3 0.198-0.0096 0.29758-0.01758 0.49658-0.011 0.328-0.18848 0.48503-0.52148 0.45703-1.116-0.092-1.674-0.13798-2.792-0.22998-0.011 0.537-0.01637 0.80526-0.02637 1.3433 0.766 0.062 1.1491 0.0942 1.9131 0.1582 0.331 0.026 0.49633 0.2096 0.48633 0.5376-5e-3 0.175-0.0082 0.26252-0.01318 0.43652-9e-3 0.328-0.18323 0.48357-0.51123 0.45557-0.759-0.062-1.1389-0.0942-1.8999-0.1582-9e-3 0.482-0.01397 0.7231-0.02197 1.2041 1.098 0.092 1.6462 0.13798 2.7422 0.22998 0.326 0.027 0.48607 0.21106 0.47607 0.53906-6e-3 0.198-0.0086 0.29758-0.01465 0.49658-0.01 0.328-0.18384 0.4811-0.50684 0.4541zm25.368-0.2124c-0.375 0.034-0.53369-0.0593-0.67969-0.4043-0.993-2.343-1.5055-3.5149-2.5635-5.8579-0.111-0.24 0.04069-0.47258 0.30469-0.49658 0.297-0.027 0.44521-0.04038 0.74121-0.06738 0.386-0.035 0.5528 0.05876 0.6958 0.40576 0.141 0.338 0.21256 0.50722 0.35156 0.84522 1.059-0.096 1.5889-0.14524 2.6499-0.24024 0.123-0.363 0.18555-0.54227 0.31055-0.90527 0.126-0.37 0.28729-0.49381 0.67529-0.52881 0.338-0.03 0.50622-0.04471 0.84522-0.07471 0.266-0.025 0.43006 0.17852 0.33106 0.43652-0.942 2.517-1.4018 3.7755-2.2998 6.2915-0.134 0.371-0.28857 0.49574-0.66357 0.53174-0.279 0.025-0.41973 0.03845-0.69873 0.06445zm-32.695-0.46436c-0.288-0.039-0.43317-0.06061-0.72217-0.09961-0.374-0.052-0.52807-0.18118-0.64307-0.55518-0.564-1.803-0.84869-2.7043-1.4297-4.5073-0.718 1.629-1.0699 2.4433-1.7549 4.0723-0.138 0.338-0.29829 0.42454-0.67529 0.37354-0.33-0.046-0.49617-0.06779-0.82617-0.11279-0.258-0.035-0.41455-0.2753-0.31055-0.5083 0.982-2.288 1.491-3.4322 2.543-5.7202 0.156-0.337 0.32438-0.42407 0.71338-0.37207l0.67529 0.09082c0.388 0.051 0.54683 0.18164 0.67383 0.55664 0.856 2.544 1.2743 3.8168 2.0933 6.3618 0.086 0.26-0.08091 0.45541-0.33691 0.42041zm40.983-0.41162c-1.321 0.135-2.3184-0.66959-2.3804-1.8296-0.039-0.744 0.32643-1.3999 1.0444-1.9219 0.268-0.202 1.0605-0.75794 1.3315-0.96094 0.283-0.208 0.42702-0.39088 0.41602-0.62988-0.015-0.306-0.317-0.48638-0.75-0.44238-0.383 0.038-0.75889 0.22735-1.2129 0.63135-0.25 0.224-0.47034 0.24604-0.69434 0.01904-0.071-0.065-0.28203-0.27631-0.35303-0.34131-0.235-0.237-0.23875-0.47696 0.01025-0.73096 0.508-0.519 1.2355-0.93186 2.1855-1.0269 1.373-0.138 2.4332 0.56278 2.4902 1.8428 0.031 0.703-0.33394 1.3679-1.0649 1.8999-0.271 0.202-1.0635 0.7594-1.3315 0.9624-0.311 0.221-0.42316 0.38167-0.41016 0.63867 0.014 0.278 0.25286 0.48192 0.65186 0.44092 0.249-0.024 0.52345-0.15086 0.81445-0.38086 0.261-0.206 0.49112-0.2177 0.70312 0.0293 0.06 0.068 0.24469 0.2797 0.30469 0.3457 0.2 0.22 0.21079 0.48822 0.0088 0.67822-0.481 0.448-1.1277 0.71237-1.7637 0.77637zm-27.521-0.014649c0.434 0.014 0.75279-0.29544 0.75879-0.77344 7e-3 -0.459-0.30761-0.78874-0.74561-0.80274-0.421-0.014-0.63122-0.02069-1.0532-0.03369-2e-3 0.631-0.0039 0.94617-0.0059 1.5762 0.418 0.013 0.6279 0.01969 1.0459 0.03369zm19.488-1.2056c0.308-0.928 0.4619-1.3932 0.7749-2.3232-0.66 0.061-0.98895 0.09234-1.648 0.15234 0.353 0.869 0.52805 1.3029 0.87305 2.1709zm-13.778-9.876c-0.334 6e-3 -0.50962-0.16026-0.51562-0.48926-3e-3 -0.22-0.0048-0.32932-0.0088-0.54932-6e-3 -0.329 0.16398-0.50184 0.50098-0.50684l1.6113-0.03076c-0.015-1.975-0.02401-2.963-0.04101-4.938-2e-3 -0.329 0.17402-0.5023 0.52002-0.5083 0.305-6e-3 0.45818-0.0072 0.76318-0.01318 0.345-6e-3 0.52295 0.15972 0.52295 0.49072 1e-3 1.975 1e-3 2.962 0 4.938l1.6099-0.0293c0.337-7e-3 0.50937 0.16026 0.50537 0.48926-2e-3 0.22-0.0024 0.32932-0.0044 0.54932-3e-3 0.33-0.1787 0.5023-0.5127 0.5083-1.982 0.035-2.9712 0.05335-4.9512 0.08935zm-4.8062-0.06006c-0.941-0.023-1.4101-0.03559-2.3511-0.05859-0.334-9e-3 -0.50777-0.18223-0.50977-0.51123-9e-3 -2.395-0.01497-3.5928-0.02197-5.9868-1e-3 -0.33 0.17695-0.49533 0.52295-0.48633 0.301 7e-3 0.45146 0.01104 0.75146 0.01904 0.347 8e-3 0.52348 0.18123 0.52148 0.51123l-0.01025 2.1343c0.323 8e-3 0.48366 0.01251 0.80566 0.02051 0.458-0.863 0.68876-1.2947 1.1558-2.1577 0.192-0.355 0.33979-0.44113 0.75879-0.43213 0.368 0.01 0.55292 0.01444 0.91992 0.02344 0.252 6e-3 0.39246 0.23978 0.27246 0.44678-0.581 1.008-0.86948 1.5101-1.4385 2.5181 0.758 0.359 1.1845 1.0177 1.1675 1.8457-0.027 1.297-1.0154 2.1518-2.5444 2.1138zm12.327-0.12158c-0.264 0.018-0.43338-0.19078-0.33838-0.44678 0.88-2.494 1.3323-3.7404 2.2573-6.2344 0.138-0.369 0.3022-0.4887 0.7002-0.5127 0.277-0.018 0.41587-0.02741 0.69287-0.04541 0.399-0.024 0.56917 0.0748 0.72217 0.4248 1.031 2.37 1.532 3.5548 2.502 5.9268 0.102 0.242-0.06166 0.47079-0.32666 0.48779-0.297 0.019-0.44568 0.02934-0.74268 0.04834-0.387 0.025-0.55101-0.07434-0.68701-0.42334-0.668-1.687-1.0085-2.5303-1.7065-4.2173-0.636 1.771-0.94752 2.6558-1.5615 4.4268-0.123 0.367-0.28343 0.4867-0.66943 0.5127zm-18.877-0.14795c-0.296-0.018-0.44421-0.02741-0.74121-0.04541-0.335-0.021-0.50698-0.20127-0.50098-0.53027 0.036-2.391 0.05654-3.5875 0.10254-5.9795 6e-3 -0.328 0.18867-0.48682 0.53467-0.46582 0.306 0.019 0.45911 0.02641 0.76611 0.04541 0.345 0.02 0.5183 0.20127 0.5083 0.53027-0.065 2.392-0.09341 3.5875-0.14941 5.9795-8e-3 0.329-0.18402 0.48782-0.52002 0.46582zm-4.2026-0.27978c-0.297-0.03-0.44568-0.04517-0.74268-0.07617-0.387-0.039-0.54557-0.16513-0.66357-0.53613-0.586-1.788-0.88282-2.6832-1.4868-4.4722-0.734 1.655-1.0939 2.4827-1.7959 4.1367-0.142 0.344-0.3078 0.43651-0.6958 0.39551-0.339-0.035-0.50814-0.05143-0.84814-0.08643-0.266-0.028-0.4268-0.26251-0.3208-0.49951 1.008-2.327 1.5286-3.488 2.6016-5.814 0.159-0.343 0.33242-0.43404 0.73242-0.39404 0.278 0.027 0.41634 0.04085 0.69434 0.06885 0.399 0.039 0.56234 0.16413 0.69434 0.53613 0.891 2.524 1.3262 3.7851 2.1782 6.3091 0.09 0.258-0.08217 0.46013-0.34717 0.43213zm33.851-0.26807c-1.307 0.12-2.3011-0.69589-2.3701-1.8589-0.045-0.745 0.314-1.3966 1.021-1.9116 0.278-0.194 1.0335-0.75522 1.3125-0.94922 0.279-0.205 0.41876-0.38749 0.40576-0.62549-0.017-0.307-0.31761-0.49017-0.74561-0.45117-0.378 0.034-0.74885 0.21816-1.1938 0.61816-0.247 0.223-0.46448 0.24218-0.68848 0.01318-0.073-0.068-0.27956-0.27817-0.35156-0.34717-0.235-0.238-0.2416-0.47796 0.0044-0.73096 0.499-0.515 1.2187-0.91988 2.1577-1.0049 1.359-0.124 2.4116 0.58961 2.4756 1.8706 0.036 0.706-0.32104 1.3666-1.04 1.8926-0.28 0.194-1.0355 0.75422-1.3125 0.94922-0.306 0.218-0.41537 0.37728-0.40137 0.63428 0.015 0.279 0.25493 0.48717 0.64892 0.45117 0.247-0.023 0.5182-0.14854 0.8042-0.37354 0.257-0.203 0.48434-0.21338 0.69434 0.03662 0.062 0.068 0.24415 0.2821 0.30615 0.3501 0.199 0.222 0.21218 0.48876 0.01318 0.67676-0.472 0.443-1.1112 0.70125-1.7402 0.76025zm-23.127-0.59033c0.449 0.011 0.77916-0.3013 0.78516-0.7793 6e-3 -0.458-0.31951-0.78588-0.77051-0.79688-0.436-0.011-0.65238-0.01783-1.0884-0.02783-3e-3 0.63-0.0043 0.94664-0.0073 1.5776 0.433 0.01 0.64906 0.01537 1.0811 0.02637zm182.96-12.475-10.337-0.01758 1e-3 -1.3257c2.437-0.678 3.8489-1.9575 3.8569-6.9565l0.0176-10.296c0.013-7.221-3.783-10.56-10.96-10.573-7.135-0.012-10.985 3.3132-10.998 10.532l-0.0234 12.99c-6e-3 3.247 0.93302 3.8038 3.624 4.1938l-1e-3 1.4092-12.989-0.02197 1e-3 -1.4106c2.693-0.38 3.5492-0.93367 3.5552-4.1807l0.022-12.817c0.015-8.289 4.3394-14.049 15.234-14.03 10.894 0.019 15.2 5.7936 15.185 13.912l-0.019 10.298c-9e-3 4.999 1.3995 6.2842 3.8335 6.9712zm125.31-1.4019c-1.88-4e-3 -3.2872-1.458-3.2842-3.252 3e-3 -1.666 1.2441-2.9884 2.9531-2.9854 1.795 3e-3 3.2447 1.457 3.2417 3.293-3e-3 1.625-1.2446 2.9473-2.9106 2.9443zm-91.084-0.16113c-1.88-4e-3 -3.2872-1.458-3.2842-3.252 3e-3 -1.666 1.2441-2.9888 2.9531-2.9868 1.795 3e-3 3.2457 1.4589 3.2417 3.2959-3e-3 1.624-1.2446 2.9459-2.9106 2.9429zm106.82-6.0059-0.76904-0.0015-7.6816-5.0552 3e-3 -1.3667 3.1186 0.0044 0.0264-13.97c5e-3 -2.777 1.5876-4.2692 4.7065-4.2642 2.434 4e-3 4.825 0.81933 6.873 2.3613l-0.64307 1.3667c-1.152-0.515-2.1777-0.7739-3.0747-0.7749-2.008-4e-3 -2.5209 1.0202-2.5239 2.4302l-0.0234 12.861 5.4258 0.0088-4e-3 2.436-5.4258-0.01025zm-13.024-3.271-2.0947-0.0044-6.2725-4.1118 3e-3 -0.93896 3.0322 0.0059 0.0205-11.323c3e-3 -2.35-0.42183-2.9059-3.0278-3.2959l1e-3 -1.3242 11.407 0.02051-1e-3 1.3242c-2.649 0.38-3.0356 0.93418-3.0396 3.2842zm-36.144-0.06299-1.8794-0.0044-6.1875-4.0693 1e-3 -0.94043 2.9487 0.0059 0.019-11.364c4e-3 -2.351-0.37897-2.9484-2.814-3.2944l3e-3 -1.3242 11.322 0.01904-1e-3 1.3228c-2.778 0.423-3.1634 1.0214-3.1684 3.6694l-0.0161 8.8022c0.852 1.539 1.6611 2.6519 2.5151 3.4219 3e-3 -1.666 1.1574-2.732 2.6104-2.729 1.452 2e-3 2.8604 1.1584 2.8564 3.3794-3e-3 1.881-1.0746 3.0333-2.9546 3.0293-2.092-3e-3 -3.7131-1.7583-5.2471-4.2393zm-54.94-0.09815-2.0933-0.0029-6.2739-4.1133 3e-3 -0.93896 3.0322 0.0044 0.0205-11.322c4e-3 -2.35-0.42184-2.9059-3.0278-3.2959l3e-3 -1.3242 11.405 0.02051-1e-3 1.3242c-2.649 0.38-3.0356 0.93418-3.0396 3.2842zm-27.555-0.04834-1.9658-0.0044-6.186-4.0693v-0.93896l2.9487 0.0059 0.019-11.366c4e-3 -2.349-0.37896-2.9489-2.814-3.2959l4e-3 -1.3242 10.979 0.02051-3e-3 1.3242c-2.436 0.338-2.8202 0.93418-2.8242 3.2842l-0.019 9.8701c2.133 1.927 3.8834 2.8681 5.4214 2.8711 2.093 4e-3 2.6938-1.0634 2.6968-2.9854l0.0176-9.7412c4e-3 -2.35-0.37897-2.9484-2.814-3.2944l1e-3 -1.3242 10.98 0.01904-3e-3 1.3242c-2.436 0.338-2.8207 0.93565-2.8257 3.2856l-0.0176 10.21c-6e-3 3.418-1.4623 5.8513-5.7773 5.8433-2.649-5e-3 -5.253-1.6329-7.812-3.8159zm99.712-0.12305c-4.528-7e-3 -7.4708-2.6193-7.4648-6.5493 7e-3 -3.974 3.2999-5.1221 6.3779-6.1421 3.036-1.02 5.1293-1.6139 5.1343-3.8789 2e-3 -1.409-1.0647-2.4789-3.1157-2.4829-2.862-5e-3 -5.0433 1.8707-7.6553 5.1987l-1.1543-0.4292 1.6787-6.6621 0.72656 0.0015 1.2378 0.89941c1.411-0.681 2.9912-1.0635 4.7432-1.0605 4.358 8e-3 7.9421 2.5786 7.9351 6.7236-8e-3 3.972-3.2985 5.2061-6.3765 6.1831-3.035 0.978-5.1303 1.613-5.1343 3.835-2e-3 1.196 0.89304 2.309 2.644 2.313 2.18 3e-3 4.105-1.3179 6.416-3.9199l1.1104 0.51416-1.6333 5.2954-0.68408-0.0015-0.76758-0.6416c-1.197 0.51-2.5651 0.8072-4.0181 0.8042zm-35.244-0.06152c-5.938-0.011-10.287-4.8042-10.277-10.743 0.011-5.896 3.7784-10.375 10.4-10.364 4.059 7e-3 6.4904 1.8066 7.9394 4.2876l-1.1572 0.89502c-1.15-1.326-2.8997-2.228-4.9087-2.231-3.929-7e-3 -6.1561 2.9802-6.9741 6.8672l12.809 4.2949c-0.264 4.528-3.601 7.0002-7.831 6.9932zm96.681-0.25635-8.417-0.01465 3e-3 -1.1968c2.778-0.594 3.0802-2.0036 1.8032-4.9966l-3.2329-7.7373-4.0327 9.0923c-0.858 2.007-0.73169 3.1613 2.2163 3.5083l-3e-3 1.3228-11.237-0.01904 3e-3 -1.3242c1.326-0.339 1.8386-0.89418 2.9956-3.2842l7.1631-15.369-1.1924-2.5649c-0.681-1.497-1.3199-2.6085-2.0449-3.2505-0.515 1.751-1.5001 2.6875-3.0381 2.6865-1.538-3e-3 -2.8594-1.0316-2.8564-3.0396 4e-3 -2.007 1.6302-3.5006 3.5522-3.4966 2.735 5e-3 4.4409 1.3742 6.5259 5.9502l8.0435 17.832c1.574 3.506 2.0855 4.2751 3.7515 4.7051zm-107.28-0.18896-8.4155-0.01465 1e-3 -1.1968c2.779-0.594 3.0807-2.0036 1.8047-4.9966l-3.2329-7.7388-4.0342 9.0938c-0.858 2.007-0.73069 3.1598 2.2163 3.5068l-3e-3 1.3242-11.235-0.01904 3e-3 -1.3257c1.325-0.34 1.8806-0.89318 2.9956-3.2842l7.3345-15.838 2.2222 0.0029 6.5947 14.581c1.576 3.507 2.0855 4.278 3.7515 4.708zm9.5317-1.7783c1.966 3e-3 3.2066-1.4047 3.7236-4.1807l-7.9409-2.748c-0.044 0.469-0.0454 0.93918-0.0454 1.4092-7e-3 3.461 1.4427 5.5135 4.2627 5.5195z"/>
  </g>
 </g>
</svg>