<?xml version="1.0" encoding="utf-8"?>
<!-- Generator: Adobe Illustrator 26.5.1, SVG Export Plug-In . SVG Version: 6.00 Build 0)  -->
<svg version="1.1" id="Layer_1" xmlns="http://www.w3.org/2000/svg" xmlns:xlink="http://www.w3.org/1999/xlink" x="0px" y="0px"
	 viewBox="0 0 539.1 137.2" style="enable-background:new 0 0 539.1 137.2;" xml:space="preserve">
<style type="text/css">
	.st0{fill:#B31B1B;}
	.st1{fill:none;stroke:#47BD9D;stroke-width:1.1494;stroke-miterlimit:10;}
</style>
<g>
	<g>
		<g>
			<g>
				<path class="st0" d="M198.5,80.6l-0.9,2.2c-1.8,0.9-3.7,1.5-5.5,2s-3.7,0.7-5.7,0.7c-2.4,0-4.6-0.2-6.8-0.9
					c-2.2-0.7-4-1.5-5.5-2.6s-2.9-2.4-3.7-3.7s-1.8-2.9-2.2-4.6c-0.4-1.8-0.9-3.5-0.9-5.5c0-5.1,1.8-9.3,5.3-12.6s8.4-4.9,14.3-4.9
					c1.5,0,2.9,0,4,0.2c1.3,0.2,2.6,0.4,4.4,0.9c1.8,0.4,2.9,0.7,3.3,0.9c-0.4,0.9-0.7,1.8-0.9,2.6c-0.2,1.3-0.4,2.9-0.4,4.6h-1.5
					V57c-0.2-1.5-1.1-2.6-2.6-3.5c-1.5-0.7-3.7-1.1-6.8-1.1c-2.2,0-4.2,0.2-5.7,0.9c-1.5,0.4-2.9,1.3-4.2,2.6
					c-1.1,1.1-2.2,2.6-2.9,4.4s-1.1,4-1.1,6.8c0,4.9,1.5,8.6,4.4,11.5s6.8,4.4,11.7,4.4c2.2,0,4.2-0.2,6-0.9c1.3-0.4,2.4-1.1,3.7-2
					L198.5,80.6z"/>
			</g>
		</g>
		<g>
			<g>
				<path class="st0" d="M199.9,74c0-3.5,1.1-6.4,3.3-8.6c2.2-2.2,5.1-3.3,8.6-3.3c3.3,0,6,1.1,8.2,3.1c2.2,2,3.1,4.9,3.1,8.2
					c0,2.2-0.4,4.4-1.5,6.4s-2.6,3.3-4.6,4.4s-4.2,1.5-6.4,1.5c-1.8,0-3.3-0.2-4.6-0.9c-1.3-0.7-2.2-1.3-3.1-2.4
					c-0.9-0.9-1.3-2-1.8-2.9C200.1,77.7,199.9,75.9,199.9,74z M204.3,72.2c0,2,0.2,4,0.9,6s1.5,3.5,2.9,4.4c1.3,0.9,2.6,1.3,4,1.3
					c1.8,0,3.3-0.7,4.6-2.2s1.8-3.7,1.8-6.6c0-2.4-0.4-4.6-1.1-6.4c-0.7-1.8-1.8-3.1-2.9-4c-1.1-0.7-2.4-1.1-3.7-1.1
					c-2,0-3.5,0.7-4.6,2.2C204.9,67.3,204.3,69.1,204.3,72.2z"/>
			</g>
		</g>
		<g>
			<g>
				<path class="st0" d="M223.2,84.8v-1.3c1.8,0,2.6,0,2.9,0c0.2,0,0.4-0.2,0.7-0.2c0.2,0,0.2-0.2,0.2-0.4c0.2-0.4,0.2-0.9,0.2-1.8
					c0-4.2,0.2-6.4,0.2-6.6v-2.9c0-1.3,0-2.6,0-4c0-0.9,0-1.5-0.2-1.8c0-0.2-0.2-0.2-0.4-0.4c-0.2,0-1.3-0.2-3.1,0V64
					c3.1-0.4,5.5-1.1,7.1-1.8c0.2-0.2,0.4-0.2,0.7-0.2c0,0,0.2,0,0.2,0.2c0,0,0,0.2,0,0.4c0,0,0,0.2,0,0.4c0,0.9-0.2,2.4-0.2,4.4
					c0.7-0.9,1.3-1.5,2-2.4s1.1-1.3,1.3-1.5c0.4-0.4,1.1-0.7,1.5-0.9c0.7-0.2,1.3-0.4,2-0.4s1.3,0.2,2,0.4l0.2,0.4
					c-0.2,2.2-0.4,4-0.4,5.5h-1.3c-0.4-0.7-0.9-1.3-1.3-1.8c-0.4-0.4-1.1-0.4-1.8-0.4c-1.3,0-2.2,0.4-3.1,1.5
					c-0.9,1.1-1.3,2.4-1.3,4.4v2.4c0,1.1,0,2.9,0.2,5.7c0,0.9,0,1.5,0.2,1.8c0,0.2,0.2,0.4,0.2,0.7c0,0.2,0.2,0.2,0.4,0.2
					c0.4,0.2,1.8,0.2,3.7,0.4V85c-2.9,0-5.1-0.2-7.1-0.2C227,84.8,225,84.8,223.2,84.8z"/>
			</g>
		</g>
		<g>
			<g>
				<path class="st0" d="M242,84.8v-1.3h2.2c0.4,0,0.7,0,0.7-0.2c0.2,0,0.2-0.2,0.4-0.4c0.2-0.2,0.2-0.9,0.4-1.8
					c0-0.2,0-2.4,0.2-6.8v-2.9c0-1.3,0-2.6,0-4.2c0-0.9-0.2-1.5-0.2-1.8c0-0.2-0.2-0.2-0.4-0.4c-0.2,0-1.3-0.2-3.1,0v-1.3
					c3.1-0.4,5.5-1.1,7.1-1.8c0.2-0.2,0.4-0.2,0.7-0.2c0.2,0,0.2,0,0.2,0.2c0,0,0,0.2,0,0.4c0,0,0,0.2,0,0.4c0,0.7,0,1.8-0.2,3.5
					l4.4-3.7c1.3-0.4,2.4-0.7,3.7-0.7s2.4,0.2,3.7,0.9c1.1,0.4,2,1.1,2.6,2c0.7,0.9,0.9,1.8,1.1,3.1c0,0.7,0.2,2.6,0.2,6V78
					c0,2,0,3.5,0.2,4.2c0,0.4,0.2,0.9,0.4,0.9c0.2,0.2,0.4,0.2,0.7,0.4h2.4v1.3c-1.5,0-2.9-0.2-4-0.2c-0.9,0-2.4,0-4.4,0.2
					c0.2-4,0.4-6.4,0.4-7.5v-4c0-2.4,0-4.2-0.2-4.9c-0.2-1.1-0.9-2-1.8-2.6c-0.9-0.7-2.2-0.9-3.5-0.9c-1.1,0-2.2,0.2-3.3,0.9
					c-1.1,0.7-1.8,1.1-2.2,2c-0.4,0.7-0.7,2-0.7,3.7v2.9c0,4.2,0.2,6.4,0.2,6.6c0,0.9,0.2,1.3,0.2,1.8c0,0.2,0.2,0.2,0.2,0.4
					c0.2,0,0.2,0.2,0.7,0.2c0,0,0.9,0,2.6,0v1.3c-2,0-3.7-0.2-5.3-0.2C247.1,84.8,244.9,84.8,242,84.8z"/>
			</g>
		</g>
		<g>
			<g>
				<path class="st0" d="M289.4,81.2l-0.7,1.8c-1.1,0.7-2,1.1-2.4,1.3c-0.7,0.4-1.5,0.7-2.6,0.9c-0.9,0.2-2,0.4-3.1,0.4
					c-2,0-4-0.4-5.7-1.3c-1.8-0.9-3.1-2.2-4-4s-1.3-3.7-1.3-6.2c0-1.8,0.2-3.5,0.7-4.9c0.4-1.5,1.1-2.6,1.8-3.3
					c0.4-0.4,1.1-1.1,2.2-1.8c0.9-0.7,2-1.1,2.9-1.5c1.3-0.4,2.6-0.9,4-0.9c1.8,0,3.3,0.4,4.9,1.1c1.3,0.9,2.4,2,3.1,3.3
					s1.1,2.9,1.1,4.6c0,0.4,0,0.9,0,1.5c-1.1,0.2-2.2,0.4-3.1,0.4c-1.8,0.2-3.3,0.2-5.1,0.2h-7.7c0,2.2,0.4,4.2,1.1,5.5
					s1.8,2.4,3.1,3.1c1.3,0.7,2.6,1.1,4.2,1.1c0.9,0,2-0.2,2.9-0.4c0.9-0.2,2.2-0.9,3.5-1.8L289.4,81.2z M274.4,71.5
					c0.4,0,1.3,0,2.4,0.2c2.4,0,4,0.2,4.9,0.2c2.2,0,3.5,0,4.2-0.2c0-0.4,0-0.7,0-0.9c0-2.4-0.4-4.4-1.5-5.5s-2.4-1.8-4-1.8
					c-1.8,0-3.3,0.7-4.4,2C274.9,66.7,274.4,68.7,274.4,71.5z"/>
			</g>
		</g>
		<g>
			<g>
				<path class="st0" d="M290.5,84.8v-1.3h2.2c0.4,0,0.7,0,0.9-0.2c0.2,0,0.2-0.2,0.4-0.4c0.2-0.2,0.2-0.9,0.2-1.8
					c0-0.2,0-2.4,0.2-6.8v-9.9c0-2.6,0-5.3-0.2-8.2c0-2-0.2-2.9-0.2-3.1s-0.2-0.2-0.4-0.4c-0.2,0-1.3-0.2-3.3-0.2V51
					c3.5-0.4,6-1.1,7.5-1.8c0.2,0,0.4-0.2,0.4-0.2h0.2v0.2c0,0,0,0.2,0,0.4v0.9c0,2.9-0.2,5.3-0.2,7.3v3.7V74c0,4.2,0.2,6.4,0.2,6.6
					c0,0.9,0,1.3,0.2,1.8c0,0.2,0.2,0.2,0.2,0.4c0.2,0,0.2,0.2,0.7,0.2c0,0,0.9,0,2.6,0v1.3c-2.2-0.2-4-0.2-5.7-0.2
					C294.9,84.6,292.9,84.8,290.5,84.8z"/>
			</g>
		</g>
		<g>
			<g>
				<path class="st0" d="M304.6,84.8v-1.3h2.2c0.4,0,0.7,0,0.9-0.2c0.2,0,0.2-0.2,0.4-0.4c0.2-0.2,0.2-0.9,0.2-1.8
					c0-0.2,0-2.4,0.2-6.8v-9.9c0-2.6,0-5.3-0.2-8.2c0-2-0.2-2.9-0.2-3.1s-0.2-0.2-0.4-0.4c-0.2,0-1.3-0.2-3.3-0.2V51
					c3.5-0.4,6-1.1,7.5-1.8c0.2,0,0.4-0.2,0.4-0.2h0.2v0.2c0,0,0,0.2,0,0.4v0.9c0,2.9-0.2,5.3-0.2,7.3v3.7V74c0,4.2,0.2,6.4,0.2,6.6
					c0,0.9,0,1.3,0.2,1.8c0,0.2,0.2,0.2,0.2,0.4c0.2,0,0.2,0.2,0.7,0.2c0,0,0.9,0,2.6,0v1.3c-2.2-0.2-4-0.2-5.7-0.2
					C309,84.6,307.1,84.8,304.6,84.8z"/>
			</g>
		</g>
		<g>
			<g>
				<path class="st0" d="M326.9,52.6V51c2.6,0.2,5.1,0.2,7.3,0.2s4.4,0,6.6-0.2v1.5c-1.8,0-3.1,0.2-3.3,0.2
					c-0.4,0.2-0.7,0.2-0.9,0.7c-0.2,0.2-0.4,1.1-0.4,2.2c0,0.2,0,2.6,0,6.8v8.8c0,3.3,0.2,5.7,0.7,6.6c0.4,1.1,1.1,2,2,2.6
					c0.7,0.4,1.8,0.9,2.9,1.3c1.3,0.2,2.6,0.4,4.2,0.4c1.8,0,3.3-0.2,4.6-0.7c1.3-0.4,2.4-0.9,3.1-1.5c0.7-0.7,1.1-1.3,1.5-2.2
					s0.7-1.8,0.7-3.1c0.2-1.3,0.2-3.1,0.2-5.1v-7.3c0-2.2,0-4.2,0-6.4c0-1.5-0.2-2.4-0.2-2.6c-0.2-0.2-0.4-0.4-0.9-0.7
					c-0.4-0.2-1.5-0.2-3.3-0.2V51c2.6,0.2,4.4,0.2,5.7,0.2c1.1,0,3.1,0,6-0.2v1.5c-2,0-3.1,0.2-3.5,0.2c-0.4,0.2-0.7,0.2-0.9,0.7
					c-0.2,0.2-0.2,1.1-0.4,2.2c0,0.2,0,2.6,0,6.8v7.9c0,4-0.2,6.6-0.9,8.2c-0.4,1.5-1.5,2.9-3.1,4.2c-1.1,0.9-2.4,1.5-4.2,2
					c-1.8,0.4-3.5,0.7-5.7,0.7c-2.4,0-4.6-0.2-6.4-0.9c-1.8-0.7-3.1-1.3-4-2.2c-0.9-0.9-1.5-2-2-2.9c-0.4-1.3-0.7-3.5-0.7-6.6V62.5
					c0-2.2,0-4.2,0-6.4c0-1.5-0.2-2.4-0.4-2.6c-0.2-0.2-0.4-0.4-0.9-0.7C329.8,52.8,328.7,52.8,326.9,52.6z"/>
			</g>
		</g>
		<g>
			<g>
				<path class="st0" d="M360.2,84.8v-1.3h2.2c0.4,0,0.7,0,0.7-0.2c0.2,0,0.2-0.2,0.4-0.4c0.2-0.2,0.2-0.9,0.4-1.8
					c0-0.2,0-2.4,0.2-6.8v-2.9c0-1.3,0-2.6,0-4.2c0-0.9-0.2-1.5-0.2-1.8c0-0.2-0.2-0.2-0.4-0.4c-0.2,0-1.3-0.2-3.1,0v-1.3
					c3.1-0.4,5.5-1.1,7.1-1.8c0.2-0.2,0.4-0.2,0.7-0.2c0.2,0,0.2,0,0.2,0.2s0,0.2,0,0.4c0,0,0,0.2,0,0.4c0,0.7,0,1.8-0.2,3.5
					l4.4-3.7c1.3-0.4,2.4-0.7,3.7-0.7c1.3,0,2.4,0.2,3.7,0.9c1.1,0.4,2,1.1,2.6,2c0.7,0.9,0.9,1.8,1.1,3.1c0,0.7,0.2,2.6,0.2,6V78
					c0,2,0,3.5,0.2,4.2c0,0.4,0.2,0.9,0.4,0.9c0.2,0.2,0.4,0.2,0.7,0.4h2.4v1.3c-1.5,0-2.9-0.2-4-0.2c-0.9,0-2.4,0-4.4,0.2
					c0.2-4,0.4-6.4,0.4-7.5v-4c0-2.4,0-4.2-0.2-4.9c-0.2-1.1-0.9-2-1.8-2.6c-0.9-0.7-2.2-0.9-3.5-0.9c-1.1,0-2.2,0.2-3.3,0.9
					c-0.9,0.7-1.8,1.1-2.2,2c-0.4,0.7-0.7,2-0.7,3.7v2.9c0,4.2,0.2,6.4,0.2,6.6c0,0.9,0.2,1.3,0.2,1.8c0,0.2,0.2,0.2,0.2,0.4
					c0.2,0,0.2,0.2,0.7,0.2c0,0,0.9,0,2.6,0v1.3c-2,0-3.7-0.2-5.3-0.2C365.3,84.8,363.1,84.8,360.2,84.8z"/>
			</g>
		</g>
		<g>
			<g>
				<path class="st0" d="M388.9,65.4V64c3.1-0.4,5.7-1.1,7.7-2l0.4,0.4c-0.2,3.3-0.2,6-0.2,7.7v4.4c0,4.2,0.2,6.4,0.2,6.6
					c0,0.9,0,1.3,0.2,1.8c0,0.2,0.2,0.2,0.2,0.4c0.2,0,0.2,0.2,0.7,0.2c0,0,0.9,0,2.6,0V85c-2.4,0-4.4-0.2-5.7-0.2
					c-1.3,0-3.3,0-6.2,0.2v-1.3h2.2c0.4,0,0.7,0,0.7-0.2c0.2,0,0.2-0.2,0.4-0.4c0.2-0.2,0.2-0.9,0.4-1.8c0-0.2,0-2.4,0.2-6.8v-4.2
					c0-2.4,0-3.7-0.2-4.2c0-0.2-0.2-0.4-0.4-0.4C391.8,65.4,390.7,65.4,388.9,65.4z M394.6,51.5c0.7,0,1.3,0.2,2,0.9
					c0.4,0.4,0.7,1.1,0.7,2c0,0.7-0.2,1.3-0.9,1.8c-0.7,0.4-1.1,0.9-1.8,0.9c-0.7,0-1.3-0.2-2-0.9s-0.9-1.1-0.9-1.8s0.2-1.3,0.9-2
					C393.3,51.7,393.7,51.5,394.6,51.5z"/>
			</g>
		</g>
		<g>
			<g>
				<path class="st0" d="M411.6,85c-0.7-1.5-1.1-2.6-1.3-3.3l-2-4.6l-4.9-11.2c-0.2-0.7-0.7-1.1-0.9-1.3s-0.4-0.4-0.7-0.4
					c-0.2,0-0.9,0-1.8-0.2v-1.3c2.6,0,4.6,0.2,5.7,0.2c1.3,0,3.1,0,5.5-0.2V64c-1.8,0-2.6,0.2-3.1,0.4s-0.4,0.4-0.4,0.7
					c0,0.4,0.2,1.5,0.9,3.1l2.9,7.3l0.7,1.5c0.9,2,1.3,3.1,1.5,3.7l2.4-5.3c0.2-0.2,0.9-2,2.2-5.3c0.7-2,1.3-3.3,1.5-4.4
					c0-0.2,0-0.4,0-0.7c0-0.2,0-0.4-0.2-0.7c-0.4-0.2-1.3-0.4-3.1-0.4v-1.3c2.4,0,4,0.2,4.6,0.2c0.7,0,2,0,4.6-0.2v1.3
					c-0.9,0-1.5,0.2-2,0.4c-0.2,0.2-0.7,0.7-0.9,1.1c-0.2,0.4-1.1,2-2.6,5.1l-2.2,4.9c-0.4,0.9-1.8,4.2-4.2,9.7
					C414,85,411.6,85,411.6,85z"/>
			</g>
		</g>
		<g>
			<g>
				<path class="st0" d="M445.6,81.2l-0.7,1.8c-1.1,0.7-2,1.1-2.4,1.3c-0.7,0.4-1.5,0.7-2.6,0.9c-0.9,0.2-2,0.4-3.1,0.4
					c-2,0-4-0.4-5.7-1.3s-3.1-2.2-4-4s-1.3-3.7-1.3-6.2c0-1.8,0.2-3.5,0.7-4.9c0.4-1.5,1.1-2.6,1.8-3.3c0.4-0.4,1.1-1.1,2.2-1.8
					c0.9-0.7,2-1.1,2.9-1.5c1.3-0.4,2.6-0.9,4-0.9c1.8,0,3.3,0.4,4.9,1.1c1.3,0.9,2.4,2,3.1,3.3s1.1,2.9,1.1,4.6c0,0.4,0,0.9,0,1.5
					c-1.1,0.2-2.2,0.4-3.1,0.4c-1.8,0.2-3.3,0.2-5.1,0.2h-7.7c0,2.2,0.4,4.2,1.1,5.5s1.8,2.4,3.1,3.1c1.3,0.7,2.6,1.1,4.2,1.1
					c0.9,0,2-0.2,2.9-0.4c0.9-0.2,2.2-0.9,3.5-1.8L445.6,81.2z M430.4,71.5c0.4,0,1.3,0,2.4,0.2c2.4,0,4,0.2,4.9,0.2
					c2.2,0,3.5,0,4.2-0.2c0-0.4,0-0.7,0-0.9c0-2.4-0.4-4.4-1.5-5.5s-2.4-1.8-4-1.8c-1.8,0-3.3,0.7-4.4,2
					C430.8,66.7,430.4,68.7,430.4,71.5z"/>
			</g>
		</g>
		<g>
			<g>
				<path class="st0" d="M447.6,84.8v-1.3c1.8,0,2.6,0,2.9,0s0.4-0.2,0.7-0.2s0.2-0.2,0.2-0.4c0.2-0.4,0.2-0.9,0.2-1.8
					c0-4.2,0.2-6.4,0.2-6.6v-2.9c0-1.3,0-2.6,0-4c0-0.9,0-1.5-0.2-1.8c0-0.2-0.2-0.2-0.4-0.4c-0.2,0-1.3-0.2-3.1,0V64
					c3.1-0.4,5.5-1.1,7.1-1.8c0.2-0.2,0.4-0.2,0.7-0.2s0.2,0,0.2,0.2s0,0.2,0,0.4c0,0,0,0.2,0,0.4c0,0.9-0.2,2.4-0.2,4.4
					c0.7-0.9,1.3-1.5,2-2.4s1.1-1.3,1.3-1.5c0.4-0.4,1.1-0.7,1.5-0.9c0.7-0.2,1.3-0.4,2-0.4s1.3,0.2,2,0.4l0.2,0.4
					c-0.2,2.2-0.4,4-0.4,5.5h-1.1c-0.4-0.7-0.9-1.3-1.3-1.8c-0.4-0.4-1.1-0.4-1.8-0.4c-1.3,0-2.2,0.4-3.1,1.5s-1.3,2.4-1.3,4.4v2.4
					c0,1.1,0,2.9,0.2,5.7c0,0.9,0,1.5,0.2,1.8c0.2,0.2,0.2,0.4,0.2,0.7c0,0.2,0.2,0.2,0.4,0.2c0.4,0.2,1.8,0.2,3.7,0.4V85
					c-2.9,0-5.1-0.2-7.1-0.2C451.3,84.8,449.5,84.8,447.6,84.8z"/>
			</g>
		</g>
		<g>
			<g>
				<path class="st0" d="M466.8,77.7h1.3c0,0.9,0,1.5,0.2,2.2s0.2,1.1,0.4,1.5c0.2,0.4,0.4,0.9,0.9,1.3c0.4,0.4,0.9,0.7,1.3,0.9
					s0.9,0.2,1.3,0.4c0.4,0,1.1,0,2.2,0c1.5,0,2.9-0.4,4-1.3s1.5-2,1.5-3.5c0-0.7-0.2-1.3-0.4-1.8c-0.2-0.4-0.9-0.9-1.3-1.1
					c-0.7-0.2-2-0.7-4-1.1s-3.3-0.9-4-1.1c-0.9-0.4-1.5-0.7-2.2-1.1s-0.9-1.1-1.3-1.8c-0.2-0.7-0.4-1.5-0.4-2.4
					c0-1.3,0.2-2.4,0.9-3.5c0.7-1.1,1.8-2,3.1-2.6c1.3-0.7,2.9-0.9,4.6-0.9c1.1,0,2.2,0.2,3.5,0.4s2.4,0.7,3.3,1.1
					c0,1.8-0.2,3.5-0.2,5.3h-1.3c0-1.1-0.2-2-0.2-2.2c0-0.4-0.2-0.7-0.4-0.9s-0.4-0.7-0.9-0.9s-0.9-0.7-1.5-0.9
					c-0.7-0.2-1.5-0.4-2.4-0.4c-1.3,0-2.4,0.4-3.3,1.3s-1.3,1.8-1.3,2.9c0,0.7,0.2,1.1,0.4,1.5c0.2,0.4,0.7,0.9,0.9,1.1
					c0.4,0.2,0.9,0.4,1.8,0.7l4,0.9c2,0.4,3.3,0.9,4.2,1.3c0.7,0.4,1.3,0.9,1.8,1.8c0.4,0.7,0.7,1.8,0.7,2.9c0,2.2-0.9,4-2.6,5.5
					c-1.8,1.5-4.2,2.4-7.1,2.4c-1.3,0-3.1-0.2-5.5-0.7c-1.3-0.2-2-0.4-2-0.4v-0.2c0,0,0-0.2,0-0.4c0.2-0.7,0.2-1.3,0.2-2
					C466.8,81.2,466.8,79.7,466.8,77.7z"/>
			</g>
		</g>
		<g>
			<g>
				<path class="st0" d="M485.7,65.4V64c3.1-0.4,5.7-1.1,7.7-2l0.4,0.4c-0.2,3.3-0.2,6-0.2,7.7v4.4c0,4.2,0.2,6.4,0.2,6.6
					c0,0.9,0,1.3,0.2,1.8c0,0.2,0.2,0.2,0.2,0.4c0.2,0,0.2,0.2,0.7,0.2c0,0,0.9,0,2.6,0V85c-2.4,0-4.4-0.2-5.7-0.2
					c-1.3,0-3.3,0-6.2,0.2v-1.3h2.2c0.4,0,0.7,0,0.7-0.2c0.2,0,0.2-0.2,0.4-0.4c0.2-0.2,0.2-0.9,0.4-1.8c0-0.2,0-2.4,0.2-6.8v-4.2
					c0-2.4,0-3.7-0.2-4.2c0-0.2-0.2-0.4-0.4-0.4C488.6,65.4,487.7,65.4,485.7,65.4z M491.5,51.5c0.7,0,1.3,0.2,2,0.9
					c0.4,0.4,0.7,1.1,0.7,2c0,0.7-0.2,1.3-0.9,1.8s-1.1,0.9-1.8,0.9s-1.3-0.2-2-0.9s-0.9-1.1-0.9-1.8s0.2-1.3,0.9-2
					S490.8,51.5,491.5,51.5z"/>
			</g>
		</g>
		<g>
			<g>
				<path class="st0" d="M498.7,66.2v-1.1c1.5-0.7,2.9-1.1,3.7-1.5c0-3.7,0-6.2-0.2-7.3c1.5-0.7,2.9-1.1,4-1.8l0.7,0.4
					c-0.2,1.3-0.4,4.2-0.7,8.6c1.3,0,2,0,2.2,0s0.9,0,2.4,0c0.9,0,1.5,0,1.8,0l0.2,0.2l-0.4,2.2c-1.1,0-2,0-2.6,0c-0.7,0-2,0-3.5,0
					l-0.2,9.7c0,2.4,0,3.7,0,4.2s0.2,0.9,0.4,1.1c0.2,0.4,0.4,0.7,0.9,0.9c0.4,0.2,0.9,0.4,1.8,0.4c0.7,0,1.1,0,1.5,0
					s0.9-0.2,1.5-0.4l0.2,0.9c-0.7,0.7-1.5,1.1-2.2,1.8c-0.7,0.2-1.1,0.4-1.8,0.4c-0.4,0-1.1,0-1.8,0c-0.9,0-1.5,0-2-0.2
					c-0.4-0.2-0.9-0.4-1.3-0.9s-0.7-0.7-1.1-1.3c-0.4-0.7-0.4-1.3-0.4-2.4s0-2.2,0-3.5c0-0.2,0-0.4,0-0.9V66h-0.9
					C500.7,66,499.8,66.2,498.7,66.2z"/>
			</g>
		</g>
		<g>
			<g>
				<path class="st0" d="M514.6,97.6l1.1-3.7h0.7c0.2,0.2,0.7,0.4,0.7,0.7c0.2,0.2,0.4,0.2,0.7,0.4c0.2,0,0.7,0.2,1.1,0.2
					c0.4,0,0.9,0,1.3-0.2c0.4-0.2,0.9-0.4,1.3-1.1c0.4-0.4,0.9-1.3,1.3-2.4c0.9-1.8,1.5-3.3,2.2-5.1c-0.4-1.3-1.1-3.1-1.8-4.9
					l-3.7-9.3c-1.1-2.9-2-4.9-2.6-6.4c-0.2-0.7-0.7-0.9-0.9-1.1s-1.1-0.4-2.2-0.4V63c2,0,4,0.2,5.7,0.2s3.7,0,5.3-0.2v0.9
					c-1.5,0-2.6,0.2-2.9,0.2c-0.4,0.2-0.7,0.4-0.7,0.9c0,0.2,0.2,0.9,0.4,1.5c0.7,2,1.1,3.5,1.8,5.1l1.5,3.7c0.9,2.2,1.8,4,2.2,5.3
					l1.3-2.9c0.4-1.1,1.3-3.3,2.6-6.4s2-5.1,2.2-5.7c0-0.2,0-0.4,0-0.7c0-0.2-0.2-0.4-0.4-0.7c-0.2-0.2-1.1-0.2-2.9-0.4v-1.5
					c1.8,0,3.5,0.2,4.9,0.2c1.3,0,2.9,0,4.2-0.2l-0.2,1.5c-0.9,0-1.3,0.2-1.8,0.4c-0.4,0.2-1.1,1.3-2,3.1s-2.6,5.3-5.1,10.6
					l-5.5,12.8c-0.9,2-1.5,3.5-2.2,4.4s-1.3,1.5-2.4,2c-0.9,0.4-2,0.7-2.9,0.7c-0.4,0-0.9,0-1.3-0.2C515.5,98,515.1,97.8,514.6,97.6
					z"/>
			</g>
		</g>
	</g>
	<g>
		<g>
			<g>
				<g>
					<g>
						<g>
							<g>
								<path class="st0" d="M9.2,69.1c2.9,0,4.6-1.8,4.8-5.1c0-0.6,0-1.4-0.1-2.2v-0.2h-2.4l0.2,0.5c0.1,0.4,0.2,1.1,0.2,1.8
									c-0.1,1.6-1.4,2.7-3.1,2.5c-1.7,0-2.8-1.2-2.8-2.8c0-0.6,0.1-1.1,0.6-1.7L7,61.4L4.7,61l-0.1,0.2c-0.4,0.7-0.5,1.5-0.6,2.2
									c-0.2,3.3,1.6,5.5,5,5.6C9,69.1,9.1,69.1,9.2,69.1z"/>
							</g>
						</g>
					</g>
				</g>
				<g>
					<g>
						<g>
							<g>
								<path class="st0" d="M9.7,57.9c0.7,0.2,1.3,0.2,1.8,0.2c2.2,0,3.8-1.3,4.5-3.4c0.4-1.4,0.2-2.5-0.4-3.7
									c-0.7-1.1-1.8-1.9-3.3-2.4c-0.6-0.2-1.3-0.2-1.7-0.2c-2.2,0-3.8,1.3-4.5,3.4C5.2,54.6,6.6,56.9,9.7,57.9z M8.1,52.5
									c0.4-1.3,1.4-1.5,2.2-1.5c0.4,0,0.8,0.1,1.3,0.2c1,0.4,1.8,0.8,2.2,1.5c0.2,0.5,0.4,0.9,0.1,1.5c-0.4,1.3-1.4,1.5-2.2,1.5
									c-0.5,0-0.8-0.1-1.3-0.2C9,55,7.6,54,8.1,52.5z"/>
							</g>
						</g>
					</g>
				</g>
				<g>
					<g>
						<g>
							<g>
								<path class="st0" d="M19.6,45l-3.3-1.8l0.1-0.2c0.4-0.6,0.6-0.6,1-0.5l3.3,0.5l1.3-2.4l-4.4-0.5c-0.4,0-0.6,0-0.8,0
									c0-0.9-0.5-1.8-1.4-2.3c-0.5-0.2-0.9-0.4-1.4-0.4c-1.6,0-2.4,1.6-3.2,3.1l-1.2,2.2l8.7,4.7L19.6,45z M14.4,41.9l-0.1,0.2
									l-1.6-0.8l0.1-0.2c0.4-0.7,0.8-1.4,1.5-1c0.2,0.1,0.4,0.2,0.5,0.5C14.8,41,14.6,41.5,14.4,41.9z"/>
							</g>
						</g>
					</g>
				</g>
				<g>
					<g>
						<g>
							<g>
								<polygon class="st0" points="25,36.3 20.5,32.6 26.9,34.1 28.6,31.9 21.1,25.5 19.4,27.4 24,31.2 17.6,29.7 15.8,31.9 
									23.5,38.2 								"/>
							</g>
						</g>
					</g>
				</g>
				<g>
					<g>
						<g>
							<g>
								<polygon class="st0" points="36.1,25.5 34.7,24 32,26.1 30.7,24.7 33.2,22.6 31.9,21 29.4,23 28.4,21.8 31.2,19.6 
									29.8,17.9 25.1,21.7 31.3,29.4 								"/>
							</g>
						</g>
					</g>
				</g>
				<g>
					<g>
						<g>
							<g>
								<polygon class="st0" points="44.3,20.6 43.3,18.8 40.1,20.5 36.4,13.7 34.2,15 39,23.6 								"/>
							</g>
						</g>
					</g>
				</g>
				<g>
					<g>
						<g>
							<g>
								<polygon class="st0" points="52.7,17.4 51.9,15.5 48.6,16.6 46,9.4 43.6,10.2 46.9,19.5 								"/>
							</g>
						</g>
					</g>
				</g>
				<g>
					<g>
						<g>
							<g>
								<path class="st0" d="M62.7,15.8c0.2,0,0.4,0,0.6,0c1.4-0.1,2.4-0.6,3-1.3c0.6-0.7,0.8-1.7,0.7-2.9l-0.5-6.2L64,5.5l0.5,5.6
									c0.1,1.9-0.7,2.3-1.4,2.4c-0.1,0-0.1,0-0.2,0c-0.6,0-1.4-0.2-1.6-2.2l-0.5-5.6L58.3,6l0.5,6.2
									C59.1,14.5,60.4,15.8,62.7,15.8z"/>
							</g>
						</g>
					</g>
				</g>
				<g>
					<g>
						<g>
							<g>
								<polygon class="st0" points="74,9.9 76.1,16 79,16.5 80.2,6.6 77.8,6.3 77.1,12.1 75,5.9 72.2,5.6 70.8,15.4 73.2,15.7 
																	"/>
							</g>
						</g>
					</g>
				</g>
				<g>
					<g>
						<g>
							<g>
								<polygon class="st0" points="87.7,8.8 85.3,8 82.3,17.4 84.7,18.2 								"/>
							</g>
						</g>
					</g>
				</g>
				<g>
					<g>
						<g>
							<g>
								<polygon class="st0" points="100.2,14.3 98,13.2 93.2,18.1 94.1,11.3 91.7,10 90.3,20.5 92.8,21.7 								"/>
							</g>
						</g>
					</g>
				</g>
				<g>
					<g>
						<g>
							<g>
								<polygon class="st0" points="102.7,28.6 103.9,26.9 101.2,24.7 102.3,23.1 104.9,25.1 106.2,23.4 103.7,21.4 104.6,20.2 
									107.4,22.4 108.8,20.6 103.9,16.9 97.9,24.8 								"/>
							</g>
						</g>
					</g>
				</g>
				<g>
					<g>
						<g>
							<g>
								<path class="st0" d="M106.8,32.7l2.9-2.5l0.1,0.2c0.4,0.5,0.4,0.6,0.1,1.1l-1.6,3l1.8,2.1l1.9-3.9c0.1-0.1,0.2-0.5,0.2-0.8
									c0.8,0.4,1.8,0.2,2.7-0.5c2.2-1.8,0.5-3.8-0.8-5.3l-1.6-1.8l-7.5,6.5L106.8,32.7z M112.7,27.5l0.1,0.2
									c0.4,0.5,0.7,0.9,0.7,1.3c0,0.2-0.1,0.4-0.4,0.5c-0.1,0.2-0.4,0.2-0.5,0.2c-0.5,0-0.9-0.5-1.1-0.8l-0.1-0.2L112.7,27.5z"/>
							</g>
						</g>
					</g>
				</g>
				<g>
					<g>
						<g>
							<g>
								<path class="st0" d="M116,40.6c-0.5,0.4-1.1-0.2-1.4-0.7c-0.4-0.6-0.5-1.1-0.5-1.9v-0.6l-2.3,1L112,39
									c0.2,0.8,0.4,1.3,0.8,2.1c0.8,1.4,1.8,2.1,3,2.1c0.6,0,1-0.1,1.6-0.5c1.7-1,1.5-2.7,1.3-3.9c-0.1-0.8-0.2-1.4,0.1-1.6
									c0.2-0.1,0.4-0.1,0.5-0.1c0.5,0,0.8,0.5,0.9,0.6c0.4,0.5,0.5,1,0.6,1.6l0.1,0.5l2.1-0.9v-0.2c-0.1-0.7-0.5-1.4-0.9-2.2
									c-1-1.8-2.9-2.4-4.5-1.4c-1.7,1-1.5,2.7-1.3,3.8C116.4,39.8,116.5,40.4,116,40.6z"/>
							</g>
						</g>
					</g>
				</g>
				<g>
					<g>
						<g>
							<g>
								
									<rect x="116.3" y="45.3" transform="matrix(0.9259 -0.3777 0.3777 0.9259 -8.6086 49.2392)" class="st0" width="9.9" height="2.5"/>
							</g>
						</g>
					</g>
				</g>
				<g>
					<g>
						<g>
							<g>
								<polygon class="st0" points="126.3,52.9 118.9,54.8 119.4,57.2 127.1,55.3 127.6,57.9 129.7,57.4 127.8,49.8 125.8,50.4 
																	"/>
							</g>
						</g>
					</g>
				</g>
				<g>
					<g>
						<g>
							<g>
								<polygon class="st0" points="120.5,64.4 120.6,67 124.5,66.7 130.7,70 130.6,67.2 126.9,65.5 130.4,63.3 130.1,60.3 
									124.4,64.3 								"/>
							</g>
						</g>
					</g>
				</g>
				<g>
					<g>
						<g>
							<g>
								<polygon class="st0" points="11.2,87.6 13.3,87 12.4,84.1 14,83.6 14.8,86.8 16.9,86.2 15.3,80.6 5.8,83.4 6.5,85.8 
									10.4,84.6 								"/>
							</g>
						</g>
					</g>
				</g>
				<g>
					<g>
						<g>
							<g>
								<path class="st0" d="M20,95.9c0.4-1.1,0.2-2.4-0.4-3.7c-0.9-1.8-2.3-2.8-4.1-2.8c-0.8,0-1.7,0.2-2.7,0.7
									c-1.5,0.7-2.4,1.7-2.9,3c-0.4,1.1-0.2,2.4,0.4,3.7c0.9,1.7,2.3,2.8,4.1,2.8c0.8,0,1.7-0.2,2.7-0.7
									C18.7,98.1,19.7,97.2,20,95.9z M16.1,96.5c-0.6,0.4-1.3,0.5-1.8,0.5c-0.9,0-1.5-0.4-1.8-1.1c-0.2-0.6-0.4-1-0.1-1.5
									c0.2-0.7,0.9-1.4,1.8-1.8c0.6-0.2,1.1-0.5,1.7-0.5c0.9,0,1.5,0.4,1.8,1.1c0.2,0.6,0.4,1,0.1,1.5C17.6,95.3,17,96,16.1,96.5z
									"/>
							</g>
						</g>
					</g>
				</g>
				<g>
					<g>
						<g>
							<g>
								<path class="st0" d="M26.9,103.6l-4.5,3.6c-1.1,0.9-2.1,1-2.8,0.2c-0.2-0.4-0.4-0.7-0.4-1c0.1-0.5,0.5-1,1.1-1.6l4.5-3.6
									l-1.6-1.9l-5,3.9c-1,0.8-1.6,1.7-1.6,2.8c0,0.9,0.4,1.8,1.1,2.9c0.9,1.3,1.9,1.8,3.1,1.8c0.8,0,1.6-0.4,2.4-1l5-4
									L26.9,103.6z"/>
							</g>
						</g>
					</g>
				</g>
				<g>
					<g>
						<g>
							<g>
								<polygon class="st0" points="35.3,111.6 31.7,116.2 33,109.8 30.8,108 24.5,115.7 26.5,117.3 30.1,112.7 28.8,119.1 
									30.9,120.9 37.3,113.3 								"/>
							</g>
						</g>
					</g>
				</g>
				<g>
					<g>
						<g>
							<g>
								<path class="st0" d="M42.7,116.3l-2.5-1.3l-4.5,8.8l2.5,1.3c1.3,0.6,2.3,0.9,3.3,0.9c1.7,0,3.1-0.9,4-2.8
									C47,120.4,46,118.1,42.7,116.3z M43.2,122.3c-0.5,1-1.4,1.6-2.4,1.6c-0.5,0-0.8-0.1-1.3-0.4l-0.6-0.4l2.5-5.1l0.6,0.4
									c0.7,0.4,1.1,0.9,1.4,1.5C43.6,120.7,43.5,121.4,43.2,122.3z"/>
							</g>
						</g>
					</g>
				</g>
				<g>
					<g>
						<g>
							<g>
								<polygon class="st0" points="48.2,129.5 54.1,131.1 54.6,129 51.2,128.1 51.6,126.3 54.9,127.1 55.4,125 52.2,124.2 
									52.6,122.6 56.1,123.5 56.6,121.4 50.7,120 								"/>
							</g>
						</g>
					</g>
				</g>
				<g>
					<g>
						<g>
							<g>
								<path class="st0" d="M62.8,122.3l-2.9-0.1l-0.6,9.9l2.9,0.1c0.2,0,0.5,0,0.7,0c3.3,0,5.1-1.6,5.3-4.7c0.1-1.5-0.2-2.8-1-3.7
									C66.2,122.9,64.8,122.4,62.8,122.3z M62.7,130H62l0.4-5.6h0.7c1.4,0.1,2.7,1.1,2.5,3C65.4,129.3,64.1,130,62.7,130z"/>
							</g>
						</g>
					</g>
				</g>
				<g>
					<g>
						<g>
							<g>
								<path class="st0" d="M76.9,121.4l-1.7,10.4l2.7-0.6l0.4-2.2l3.2-0.7l1.3,1.9l2.8-0.6l-5.9-8.8L76.9,121.4z M78.5,127
									l0.4-2.7l1.4,2.2L78.5,127z"/>
							</g>
						</g>
					</g>
				</g>
				<g>
					<g>
						<g>
							<g>
								<polygon class="st0" points="86.4,126.6 87.3,129 89.5,128.1 88.8,125.8 								"/>
							</g>
						</g>
					</g>
				</g>
				<g>
					<g>
						<g>
							<g>
								<path class="st0" d="M91.2,116.6l-2.5,1.4l4.7,8.7l2.5-1.4c3.3-1.8,4.1-4.1,2.7-7C97,115.4,94.5,114.8,91.2,116.6z
									 M95.2,123.2l-0.6,0.4l-2.7-5l0.6-0.4c0.4-0.2,0.8-0.4,1.3-0.4c1,0,1.8,0.6,2.4,1.5C97.2,121.1,96.3,122.6,95.2,123.2z"/>
							</g>
						</g>
					</g>
				</g>
				<g>
					<g>
						<g>
							<g>
								<polygon class="st0" points="100.5,119.7 101.9,121.8 103.9,120.3 102.6,118.2 								"/>
							</g>
						</g>
					</g>
				</g>
				<g>
					<g>
						<g>
							<g>
								<polygon class="st0" points="104.4,106.9 103.9,110.9 106.1,111.2 106.4,109.6 111.1,114.3 112.9,112.6 105.9,105.4 
																	"/>
							</g>
						</g>
					</g>
				</g>
				<g>
					<g>
						<g>
							<g>
								<path class="st0" d="M117.9,101.8c-0.8-0.6-1.7-0.7-2.8-0.4c0-0.9-0.5-1.8-1.1-2.3c-1.3-0.9-2.9-0.4-4.1,1.3
									c-1.1,1.6-1,3.2,0.4,4.2c0.7,0.5,1.6,0.6,2.4,0.4c-0.1,1,0.2,1.8,1,2.4c0.6,0.5,1.1,0.6,1.7,0.6c1,0,1.9-0.6,2.9-1.7
									c0.7-0.9,1-1.8,0.9-2.8C119,102.9,118.5,102.3,117.9,101.8z M113.1,102.5c-0.4,0.2-0.7,0.5-1,0.5c-0.1,0-0.4,0-0.5-0.1
									c-0.5-0.4-0.2-0.9,0-1.3c0.1-0.2,0.4-0.4,0.6-0.4c0.1,0,0.4,0.1,0.6,0.2C113.1,101.7,113.3,102.1,113.1,102.5z M116.6,105.2
									c-0.4,0.5-0.9,0.6-1.4,0.2c-0.4-0.4-0.6-0.7-0.5-1.4c0.7-0.5,1.3-0.6,1.7-0.2c0.2,0.1,0.4,0.4,0.4,0.6
									S116.7,105,116.6,105.2z"/>
							</g>
						</g>
					</g>
				</g>
				<g>
					<g>
						<g>
							<g>
								<path class="st0" d="M122.3,92.1c-1.7-0.8-3.3-0.4-4.1,1.3c-0.2,0.5-0.4,0.9-0.2,1.4c-0.6-0.5-1.1-1.3-0.7-2.3
									c0.2-0.5,0.6-0.8,0.9-1.1l0.4-0.2l-1.8-1.3l-0.2,0.2c-0.5,0.5-0.9,1-1.3,1.7c-0.5,1-0.6,1.9-0.2,2.9
									c0.6,1.6,2.2,2.8,3.4,3.3c1.1,0.6,2.1,0.8,2.9,0.8c1.3,0,2.2-0.6,2.9-1.8C125.1,94.9,124.4,93.2,122.3,92.1z M122.3,95.8
									c-0.1,0.4-0.5,0.5-0.8,0.5c-0.2,0-0.6-0.1-0.8-0.2c-0.5-0.2-0.8-0.6-0.9-0.8c-0.1-0.2,0-0.4,0-0.6c0.1-0.4,0.4-0.5,0.8-0.5
									c0.2,0,0.6,0.1,0.9,0.2c0.5,0.2,0.7,0.5,0.8,0.8C122.5,95.5,122.3,95.7,122.3,95.8z"/>
							</g>
						</g>
					</g>
				</g>
				<g>
					<g>
						<g>
							<g>
								<path class="st0" d="M125.9,82c-1.9-0.6-3.6,0.4-4.1,2.2c0,0.2-0.1,0.4-0.1,0.5l-1.1-0.4l1-3.4l-1.9-0.6L118,86l5.5,1.7
									v-0.5c0-0.6,0.1-1,0.2-1.6c0.1-0.5,0.7-1.6,1.7-1.4c1.1,0.4,0.9,1.6,0.8,1.9c-0.2,0.7-0.6,1.1-0.9,1.6l-0.4,0.4l2.3,0.8
									l0.1-0.2c0.4-0.7,0.7-1.5,0.9-2.1c0.4-1.1,0.4-2.2-0.1-3.1C127.6,82.9,126.8,82.3,125.9,82z"/>
							</g>
						</g>
					</g>
				</g>
			</g>
			<g>
				<g>
					<g>
						<g>
							<path class="st0" d="M53.2,58l-0.5-0.3c-2.8-1.5-7.5-4.3-7.5-6.4V40.4h16.3v11c0,1.8-4.3,4.4-7.8,6.3L53.2,58z M47.2,47.5
								v3.9c0.2,0.7,2.9,2.7,6,4.3c3.2-1.7,6-3.6,6.3-4.3v-3.9H47.2z M47.2,45.5h12.3v-3.1H47.2V45.5z"/>
						</g>
					</g>
				</g>
			</g>
			<g>
				<g>
					<g>
						<g>
							<path class="st0" d="M67.3,137.2c-37.8,0-68.6-30.8-68.6-68.6S29.5,0,67.3,0s68.6,30.8,68.6,68.6S105.1,137.2,67.3,137.2z
								 M67.3,2C30.6,2,0.7,31.9,0.7,68.6s29.9,66.6,66.6,66.6s66.6-29.9,66.6-66.6S104,2,67.3,2z"/>
						</g>
					</g>
				</g>
			</g>
			<g>
				<g>
					<g>
						<g>
							<path class="st0" d="M67.3,118.7c-27.6,0-50.1-22.5-50.1-50.1s22.5-50.1,50.1-50.1s50.1,22.5,50.1,50.1
								S94.9,118.7,67.3,118.7z M67.3,20.5c-26.5,0-48.1,21.6-48.1,48.1s21.6,48.1,48.1,48.1s48.1-21.6,48.1-48.1
								S93.8,20.5,67.3,20.5z"/>
						</g>
					</g>
				</g>
			</g>
			<g>
				<g>
					<g>
						<g>
							<path class="st1" d="M67.3,44.5"/>
						</g>
					</g>
				</g>
			</g>
			<g>
				<g>
					<g>
						<g>
							<path class="st0" d="M81.3,58l-0.5-0.3c-2.9-1.5-7.7-4.3-7.7-6.4V40.4h16.3v11c0,1.5-2.6,3.6-7.7,6.3L81.3,58z M75.1,51.3
								c0.3,0.7,3,2.7,6.2,4.4c3.1-1.7,5.8-3.6,6.2-4.3V50l-6.2-4l-6.2,4V51.3z M87.5,51.4L87.5,51.4L87.5,51.4z M81.3,43.6l6.2,4
								v-5.2H75.2v5.2L81.3,43.6z"/>
						</g>
					</g>
				</g>
			</g>
			<g>
				<g>
					<g>
						<g>
							
								<rect x="56.8" y="74.1" transform="matrix(0.999 -4.550020e-02 4.550020e-02 0.999 -3.3617 2.8193)" class="st0" width="6.9" height="2.3"/>
						</g>
					</g>
				</g>
			</g>
			<g>
				<g>
					<g>
						<g>
							
								<rect x="56.8" y="80.5" transform="matrix(0.999 -4.528096e-02 4.528096e-02 0.999 -3.6356 2.8121)" class="st0" width="6.9" height="2.3"/>
						</g>
					</g>
				</g>
			</g>
			<g>
				<g>
					<g>
						<g>
							
								<rect x="56.8" y="86.8" transform="matrix(0.999 -4.528096e-02 4.528096e-02 0.999 -3.9208 2.8185)" class="st0" width="6.9" height="2.3"/>
						</g>
					</g>
				</g>
			</g>
			<g>
				<g>
					<g>
						<g>
							<rect x="48.9" y="75.3" class="st0" width="4" height="3.2"/>
						</g>
					</g>
				</g>
			</g>
			<g>
				<g>
					<g>
						<g>
							<rect x="48.9" y="84.4" class="st0" width="4" height="3.2"/>
						</g>
					</g>
				</g>
			</g>
			<g>
				<g>
					<g>
						<g>
							<path class="st0" d="M66.4,94.4c-0.1-0.1-1.4-1-2.2-0.9C60,94.2,53.3,94,53,94h-1V69.3l1.1,0.1c0.1,0,5.3,0.6,10-0.3
								c1.6-0.4,3.3,0,4.1,0.3c0.8-0.3,2.7-0.7,4.3-0.3c4.7,0.8,9.9,0.3,10,0.3l1.1-0.1V94h-1c-0.3,0-7.2,0.2-11.3-0.5
								c-0.9-0.2-2,0.7-2.3,0.9L67.2,95L66.4,94.4z M64.6,91.5c1.1-0.1,2,0.5,2.6,0.9c0.7-0.5,2.2-1.1,3.6-0.9
								c3,0.5,7.8,0.5,9.9,0.5V71.5c-1.9,0.2-5.7,0.3-9.5-0.4h-0.1c-1.5-0.4-3.4,0.3-3.4,0.3l-0.5,0.1h-0.1c0,0-1.9-0.8-3.4-0.4
								h-0.1c-3.7,0.7-7.6,0.5-9.5,0.4v20.6c2,0,6.8,0,9.9-0.5C64.4,91.5,64.4,91.5,64.6,91.5z"/>
						</g>
					</g>
				</g>
			</g>
			<g>
				<g>
					<g>
						<g>
							
								<rect x="73.3" y="78.2" transform="matrix(4.537401e-02 -0.999 0.999 4.537401e-02 -10.4278 152.3425)" class="st0" width="2.3" height="6.9"/>
						</g>
					</g>
				</g>
			</g>
			<g>
				<g>
					<g>
						<g>
							
								<rect x="73.3" y="84.5" transform="matrix(4.537401e-02 -0.999 0.999 4.537401e-02 -16.7655 158.3547)" class="st0" width="2.3" height="6.9"/>
						</g>
					</g>
				</g>
			</g>
			<g>
				<g>
					<g>
						<g>
							<rect x="82" y="75.3" class="st0" width="3.7" height="3.2"/>
						</g>
					</g>
				</g>
			</g>
			<g>
				<g>
					<g>
						<g>
							<rect x="82" y="84.4" class="st0" width="3.7" height="3.2"/>
						</g>
					</g>
				</g>
			</g>
			<g>
				<g>
					<g>
						<g>
							
								<rect x="73.4" y="72" transform="matrix(3.784794e-02 -0.9993 0.9993 3.784794e-02 -3.6649 147.0134)" class="st0" width="2.3" height="6.9"/>
						</g>
					</g>
				</g>
			</g>
		</g>
		<g>
			<g>
				<g>
					<g>
						<path class="st0" d="M67.2,114.3l-0.4-0.2c-0.3-0.2-7.8-3.5-15.4-9.4c-10.2-7.9-15.8-16.6-15.9-25.2
							c0.4-18.3,0.1-42.6,0.1-42.9v-1h63.7v1c0,0.3-0.1,24.9-0.1,42.9c0,8.6-5.5,17.2-15.9,25.2c-7.7,5.9-15.4,9.3-15.7,9.4
							L67.2,114.3z M68.2,62.5v49.1c6-2.9,28.9-15.3,28.9-32.1c0-5.3,0-11.3,0-17H68.2L68.2,62.5z M37.6,62.5c0,5.7-0.1,11.6-0.2,17
							c0.2,9.9,8.4,18.3,15.2,23.6c5.5,4.3,11.1,7.3,13.6,8.5V62.5H37.6z M37.6,60.6h59.5c0-10.5,0.1-19.9,0.1-22.9H37.5
							C37.5,40.6,37.6,50,37.6,60.6z"/>
					</g>
				</g>
			</g>
		</g>
	</g>
</g>
</svg>
