<?xml version="1.0" encoding="utf-8"?>
<svg viewBox="0 0 500 500" xmlns="http://www.w3.org/2000/svg">
  <defs>
    <linearGradient id="paint0_linear_44_153" x1="40" y1="7" x2="-7.20049" y2="19.3253" gradientUnits="userSpaceOnUse" gradientTransform="matrix(12.500018, 0, 0, 12.531315, 0.032708, -87.717927)">
      <stop stop-color="#4FC5EB"/>
      <stop offset="1" stop-color="#5D52D9"/>
    </linearGradient>
  </defs>
  <path d="M 275.037 0 L 275.037 75.942 C 359.787 88.096 425.038 161.029 425.038 249.373 C 425.038 271.803 420.663 293.234 413.04 312.907 L 478.037 351.381 C 491.914 320.174 500.038 285.839 500.038 249.373 C 500.038 119.422 401.414 12.657 275.037 0 Z M 250.039 424.813 C 153.412 424.813 75.038 346.241 75.038 249.373 C 75.038 161.029 140.288 88.096 225.038 75.942 L 225.038 0 C 98.538 12.529 0.038 119.422 0.038 249.373 C 0.038 387.844 111.786 500 249.914 500 C 332.663 500 405.787 459.524 451.289 397.495 L 386.413 359.149 C 354.415 399.122 305.288 424.813 250.039 424.813 Z" fill="url(#paint0_linear_44_153)" style=""/>
</svg>